G04*
G04 #@! TF.GenerationSoftware,Altium Limited,Altium Designer,25.8.1 (18)*
G04*
G04 Layer_Physical_Order=3*
G04 Layer_Color=16440176*
%FSLAX44Y44*%
%MOMM*%
G71*
G04*
G04 #@! TF.SameCoordinates,8F23BA87-5D77-4B18-ACBD-F43482CDFDDC*
G04*
G04*
G04 #@! TF.FilePolarity,Positive*
G04*
G01*
G75*
%ADD72C,1.6000*%
%ADD91C,1.8000*%
%ADD92C,2.7000*%
%ADD96C,0.6000*%
%ADD97C,0.8000*%
G36*
X1453589Y1495451D02*
X1450200Y1494047D01*
X1445838Y1491374D01*
X1441948Y1488052D01*
X1438626Y1484162D01*
X1435953Y1479800D01*
X1433995Y1475074D01*
X1432801Y1470100D01*
X1432399Y1465000D01*
X1432801Y1459900D01*
X1433995Y1454926D01*
X1435953Y1450200D01*
X1438626Y1445838D01*
X1441948Y1441948D01*
X1445838Y1438626D01*
X1450200Y1435953D01*
X1454926Y1433995D01*
X1459900Y1432801D01*
X1465000Y1432399D01*
X1470100Y1432801D01*
X1475074Y1433995D01*
X1479800Y1435953D01*
X1484162Y1438626D01*
X1488052Y1441948D01*
X1491374Y1445838D01*
X1494047Y1450200D01*
X1495451Y1453589D01*
X1497451Y1453191D01*
Y945039D01*
X1367039D01*
Y993000D01*
X1366884Y993780D01*
X1366442Y994442D01*
X1365780Y994884D01*
X1365000Y995039D01*
X1362872D01*
X1361871Y996771D01*
X1362150Y997254D01*
X1362900Y1000052D01*
Y1002948D01*
X1362150Y1005746D01*
X1360702Y1008254D01*
X1358654Y1010302D01*
X1356146Y1011750D01*
X1353348Y1012500D01*
X1350452D01*
X1347654Y1011750D01*
X1345146Y1010302D01*
X1343098Y1008254D01*
X1341650Y1005746D01*
X1340900Y1002948D01*
Y1000052D01*
X1341650Y997254D01*
X1341929Y996771D01*
X1340928Y995039D01*
X1312072D01*
X1311071Y996771D01*
X1311350Y997254D01*
X1312100Y1000052D01*
Y1002948D01*
X1311350Y1005746D01*
X1309902Y1008254D01*
X1307854Y1010302D01*
X1305346Y1011750D01*
X1302548Y1012500D01*
X1299652D01*
X1296854Y1011750D01*
X1294346Y1010302D01*
X1292298Y1008254D01*
X1290850Y1005746D01*
X1290100Y1002948D01*
Y1000052D01*
X1290850Y997254D01*
X1292298Y994746D01*
X1294346Y992698D01*
X1296854Y991250D01*
X1299652Y990500D01*
X1302548D01*
X1303961Y990879D01*
X1305961Y989392D01*
Y856000D01*
X1306116Y855220D01*
X1306558Y854558D01*
X1307220Y854116D01*
X1308000Y853961D01*
X1362961D01*
Y779039D01*
X1350105D01*
X1349106Y780771D01*
X1349319Y781140D01*
X1350000Y783683D01*
Y784000D01*
X1340000D01*
Y785000D01*
X1339000D01*
Y795000D01*
X1338683D01*
X1336140Y794318D01*
X1334000Y793083D01*
X1332952Y793361D01*
X1332000Y793755D01*
Y802000D01*
X1298197D01*
X1298000Y802039D01*
X1190000D01*
X1189220Y801884D01*
X1188558Y801442D01*
X1188116Y800780D01*
X1187961Y800000D01*
Y777000D01*
Y753000D01*
X1187591Y752549D01*
X1129039D01*
Y774894D01*
X1130771Y775894D01*
X1131140Y775682D01*
X1133683Y775000D01*
X1134000D01*
Y785000D01*
Y795000D01*
X1133683D01*
X1131140Y794318D01*
X1130771Y794106D01*
X1129039Y795106D01*
Y815000D01*
X1128884Y815780D01*
X1128442Y816442D01*
X1127780Y816884D01*
X1127000Y817039D01*
X1054000D01*
X1053220Y816884D01*
X1052558Y816442D01*
X1052116Y815780D01*
X1051961Y815000D01*
Y752549D01*
X999039D01*
Y774894D01*
X1000771Y775894D01*
X1001140Y775682D01*
X1003683Y775000D01*
X1004000D01*
Y785000D01*
Y795000D01*
X1003683D01*
X1001140Y794318D01*
X1000771Y794106D01*
X999039Y795106D01*
Y815000D01*
X998884Y815780D01*
X998442Y816442D01*
X997780Y816884D01*
X997000Y817039D01*
X924000D01*
X923220Y816884D01*
X922558Y816442D01*
X922116Y815780D01*
X921961Y815000D01*
Y752549D01*
X869039D01*
Y774644D01*
X870771Y775645D01*
X871140Y775432D01*
X873683Y774750D01*
X874000D01*
Y784750D01*
Y794750D01*
X873683D01*
X871140Y794069D01*
X870771Y793856D01*
X869039Y794855D01*
Y814750D01*
X868884Y815530D01*
X868442Y816192D01*
X867780Y816634D01*
X867000Y816789D01*
X794000D01*
X793220Y816634D01*
X793017Y816499D01*
X790100Y817199D01*
X785000Y817600D01*
X779900Y817199D01*
X774926Y816005D01*
X770200Y814047D01*
X765838Y811374D01*
X761948Y808052D01*
X758626Y804162D01*
X755953Y799800D01*
X754549Y796411D01*
X752549Y796809D01*
Y1453191D01*
X754549Y1453589D01*
X755953Y1450200D01*
X758626Y1445838D01*
X761948Y1441948D01*
X765838Y1438626D01*
X770200Y1435953D01*
X774926Y1433995D01*
X779900Y1432801D01*
X785000Y1432399D01*
X790100Y1432801D01*
X795074Y1433995D01*
X799800Y1435953D01*
X804162Y1438626D01*
X808052Y1441948D01*
X811374Y1445838D01*
X814047Y1450200D01*
X816005Y1454926D01*
X817199Y1459900D01*
X817600Y1465000D01*
X817199Y1470100D01*
X816005Y1475074D01*
X814047Y1479800D01*
X811374Y1484162D01*
X808052Y1488052D01*
X804162Y1491374D01*
X799800Y1494047D01*
X796411Y1495451D01*
X796809Y1497451D01*
X1303646D01*
X1305000Y1495495D01*
Y1493506D01*
X1305761Y1491668D01*
X1307168Y1490261D01*
X1309005Y1489500D01*
X1310995D01*
X1312832Y1490261D01*
X1314239Y1491668D01*
X1315000Y1493506D01*
Y1495495D01*
X1316354Y1497451D01*
X1378853D01*
X1380189Y1495451D01*
X1380000Y1494995D01*
Y1493005D01*
X1380761Y1491168D01*
X1382168Y1489761D01*
X1384005Y1489000D01*
X1385995D01*
X1387832Y1489761D01*
X1389239Y1491168D01*
X1390000Y1493005D01*
Y1494995D01*
X1389811Y1495451D01*
X1391147Y1497451D01*
X1453191D01*
X1453589Y1495451D01*
D02*
G37*
%LPC*%
G36*
X889193Y1454000D02*
X886806D01*
X884601Y1453087D01*
X883500Y1451985D01*
X882399Y1453087D01*
X880193Y1454000D01*
X877806D01*
X875601Y1453087D01*
X873913Y1451399D01*
X873000Y1449194D01*
Y1446806D01*
X873913Y1444601D01*
X875015Y1443500D01*
X873913Y1442399D01*
X873000Y1440193D01*
Y1437807D01*
X873913Y1435601D01*
X875015Y1434500D01*
X873913Y1433399D01*
X873000Y1431194D01*
Y1428806D01*
X873913Y1426601D01*
X875601Y1424913D01*
X877806Y1424000D01*
X880193D01*
X882399Y1424913D01*
X883500Y1426015D01*
X884601Y1424913D01*
X886806Y1424000D01*
X889193D01*
X891399Y1424913D01*
X893087Y1426601D01*
X894000Y1428806D01*
Y1431194D01*
X893087Y1433399D01*
X891985Y1434500D01*
X893087Y1435601D01*
X894000Y1437807D01*
Y1440193D01*
X893087Y1442399D01*
X891985Y1443500D01*
X893087Y1444601D01*
X894000Y1446806D01*
Y1449194D01*
X893087Y1451399D01*
X891399Y1453087D01*
X889193Y1454000D01*
D02*
G37*
G36*
X1195995Y1428000D02*
X1194005D01*
X1192168Y1427239D01*
X1190761Y1425832D01*
X1190000Y1423995D01*
Y1422005D01*
X1190761Y1420168D01*
X1192168Y1418761D01*
X1194005Y1418000D01*
X1195995D01*
X1197832Y1418761D01*
X1199239Y1420168D01*
X1200000Y1422005D01*
Y1423995D01*
X1199239Y1425832D01*
X1197832Y1427239D01*
X1195995Y1428000D01*
D02*
G37*
G36*
X1311995Y1419000D02*
X1310005D01*
X1308168Y1418239D01*
X1306761Y1416832D01*
X1306000Y1414995D01*
Y1413005D01*
X1306761Y1411168D01*
X1308168Y1409761D01*
X1310005Y1409000D01*
X1311995D01*
X1313832Y1409761D01*
X1315239Y1411168D01*
X1316000Y1413005D01*
Y1414995D01*
X1315239Y1416832D01*
X1313832Y1418239D01*
X1311995Y1419000D01*
D02*
G37*
G36*
X1195995Y1416000D02*
X1194005D01*
X1192168Y1415239D01*
X1190761Y1413832D01*
X1190000Y1411995D01*
Y1410005D01*
X1190761Y1408168D01*
X1192168Y1406761D01*
X1194005Y1406000D01*
X1195995D01*
X1197832Y1406761D01*
X1199239Y1408168D01*
X1200000Y1410005D01*
Y1411995D01*
X1199239Y1413832D01*
X1197832Y1415239D01*
X1195995Y1416000D01*
D02*
G37*
G36*
X805500Y1420500D02*
X774500D01*
Y1389500D01*
X805500D01*
Y1420500D01*
D02*
G37*
G36*
X1353348Y1394900D02*
X1350452D01*
X1347654Y1394150D01*
X1345146Y1392702D01*
X1343098Y1390654D01*
X1341650Y1388146D01*
X1340900Y1385348D01*
Y1382452D01*
X1341650Y1379654D01*
X1343098Y1377146D01*
X1345146Y1375098D01*
X1347654Y1373650D01*
X1350452Y1372900D01*
X1353348D01*
X1356146Y1373650D01*
X1358654Y1375098D01*
X1360702Y1377146D01*
X1362150Y1379654D01*
X1362900Y1382452D01*
Y1385348D01*
X1362150Y1388146D01*
X1360702Y1390654D01*
X1358654Y1392702D01*
X1356146Y1394150D01*
X1353348Y1394900D01*
D02*
G37*
G36*
X1327948D02*
X1325052D01*
X1322254Y1394150D01*
X1319746Y1392702D01*
X1317698Y1390654D01*
X1316250Y1388146D01*
X1315500Y1385348D01*
Y1382452D01*
X1316250Y1379654D01*
X1317698Y1377146D01*
X1319746Y1375098D01*
X1322254Y1373650D01*
X1325052Y1372900D01*
X1327948D01*
X1330746Y1373650D01*
X1333254Y1375098D01*
X1335302Y1377146D01*
X1336750Y1379654D01*
X1337500Y1382452D01*
Y1385348D01*
X1336750Y1388146D01*
X1335302Y1390654D01*
X1333254Y1392702D01*
X1330746Y1394150D01*
X1327948Y1394900D01*
D02*
G37*
G36*
X1480480Y1395900D02*
X1477320D01*
X1474268Y1395082D01*
X1471532Y1393502D01*
X1469298Y1391268D01*
X1467718Y1388532D01*
X1466900Y1385480D01*
Y1382320D01*
X1467718Y1379268D01*
X1469298Y1376532D01*
X1471532Y1374298D01*
X1474268Y1372718D01*
X1477320Y1371900D01*
X1480480D01*
X1483532Y1372718D01*
X1486268Y1374298D01*
X1488502Y1376532D01*
X1490082Y1379268D01*
X1490900Y1382320D01*
Y1385480D01*
X1490082Y1388532D01*
X1488502Y1391268D01*
X1486268Y1393502D01*
X1483532Y1395082D01*
X1480480Y1395900D01*
D02*
G37*
G36*
X1253995Y1379000D02*
X1252005D01*
X1250168Y1378239D01*
X1248761Y1376832D01*
X1248000Y1374995D01*
Y1373005D01*
X1248761Y1371168D01*
X1250168Y1369761D01*
X1252005Y1369000D01*
X1253995D01*
X1255832Y1369761D01*
X1257239Y1371168D01*
X1258000Y1373005D01*
Y1374995D01*
X1257239Y1376832D01*
X1255832Y1378239D01*
X1253995Y1379000D01*
D02*
G37*
G36*
X1161995Y1373000D02*
X1160005D01*
X1158168Y1372239D01*
X1156761Y1370832D01*
X1156000Y1368995D01*
Y1367005D01*
X1156761Y1365168D01*
X1158168Y1363761D01*
X1160005Y1363000D01*
X1161995D01*
X1163832Y1363761D01*
X1165239Y1365168D01*
X1166000Y1367005D01*
Y1368995D01*
X1165239Y1370832D01*
X1163832Y1372239D01*
X1161995Y1373000D01*
D02*
G37*
G36*
X1353348Y1369500D02*
X1350452D01*
X1347654Y1368750D01*
X1345146Y1367302D01*
X1343098Y1365254D01*
X1341650Y1362746D01*
X1340900Y1359948D01*
Y1357052D01*
X1341650Y1354254D01*
X1343098Y1351746D01*
X1345146Y1349698D01*
X1347654Y1348250D01*
X1350452Y1347500D01*
X1353348D01*
X1356146Y1348250D01*
X1358654Y1349698D01*
X1360702Y1351746D01*
X1362150Y1354254D01*
X1362900Y1357052D01*
Y1359948D01*
X1362150Y1362746D01*
X1360702Y1365254D01*
X1358654Y1367302D01*
X1356146Y1368750D01*
X1353348Y1369500D01*
D02*
G37*
G36*
X1302548D02*
X1299652D01*
X1296854Y1368750D01*
X1294346Y1367302D01*
X1292298Y1365254D01*
X1290850Y1362746D01*
X1290100Y1359948D01*
Y1357052D01*
X1290850Y1354254D01*
X1292298Y1351746D01*
X1294346Y1349698D01*
X1296854Y1348250D01*
X1299652Y1347500D01*
X1302548D01*
X1305346Y1348250D01*
X1307854Y1349698D01*
X1309902Y1351746D01*
X1311350Y1354254D01*
X1312100Y1357052D01*
Y1359948D01*
X1311350Y1362746D01*
X1309902Y1365254D01*
X1307854Y1367302D01*
X1305346Y1368750D01*
X1302548Y1369500D01*
D02*
G37*
G36*
X938245Y1353800D02*
X936255D01*
X934418Y1353039D01*
X933011Y1351632D01*
X932250Y1349795D01*
Y1347805D01*
X933011Y1345968D01*
X934418Y1344561D01*
X936255Y1343800D01*
X938245D01*
X940082Y1344561D01*
X941489Y1345968D01*
X942250Y1347805D01*
Y1349795D01*
X941489Y1351632D01*
X940082Y1353039D01*
X938245Y1353800D01*
D02*
G37*
G36*
X976194Y1346001D02*
X973807D01*
X971602Y1345087D01*
X970001Y1343486D01*
X968399Y1345087D01*
X966194Y1346001D01*
X963807D01*
X961602Y1345087D01*
X960001Y1343486D01*
X958399Y1345087D01*
X956194Y1346001D01*
X953807D01*
X951602Y1345087D01*
X949914Y1343399D01*
X949000Y1341194D01*
Y1338807D01*
X949914Y1336602D01*
X951602Y1334914D01*
X953257Y1334228D01*
X953821Y1333946D01*
X954335Y1332001D01*
X954000Y1331194D01*
Y1328807D01*
X954914Y1326602D01*
X956602Y1324914D01*
X958807Y1324001D01*
X961194D01*
X963399Y1324914D01*
X965001Y1326516D01*
X966602Y1324914D01*
X968807Y1324001D01*
X971194D01*
X973399Y1324914D01*
X975001Y1326516D01*
X976602Y1324914D01*
X978807Y1324001D01*
X981194D01*
X983399Y1324914D01*
X985087Y1326602D01*
X986001Y1328807D01*
Y1331194D01*
X985087Y1333399D01*
X983399Y1335087D01*
X981744Y1335773D01*
X981180Y1336055D01*
X980666Y1338001D01*
X981001Y1338807D01*
Y1341194D01*
X980087Y1343399D01*
X978399Y1345087D01*
X976194Y1346001D01*
D02*
G37*
G36*
X1140995Y1349000D02*
X1139005D01*
X1137168Y1348239D01*
X1135761Y1346832D01*
X1135000Y1344995D01*
Y1343005D01*
X1135761Y1341168D01*
X1137168Y1339761D01*
X1139005Y1339000D01*
X1140995D01*
X1142832Y1339761D01*
X1144239Y1341168D01*
X1145000Y1343005D01*
Y1344995D01*
X1144239Y1346832D01*
X1142832Y1348239D01*
X1140995Y1349000D01*
D02*
G37*
G36*
X921194Y1336001D02*
X918807D01*
X916602Y1335087D01*
X915001Y1333486D01*
X913399Y1335087D01*
X911194Y1336001D01*
X908807D01*
X906602Y1335087D01*
X904914Y1333399D01*
X904000Y1331194D01*
Y1328807D01*
X904914Y1326602D01*
X906602Y1324914D01*
X908807Y1324001D01*
X911194D01*
X913399Y1324914D01*
X915001Y1326516D01*
X916602Y1324914D01*
X918807Y1324001D01*
X921194D01*
X923399Y1324914D01*
X925087Y1326602D01*
X926001Y1328807D01*
Y1331194D01*
X925087Y1333399D01*
X923399Y1335087D01*
X921194Y1336001D01*
D02*
G37*
G36*
X1141995Y1336000D02*
X1140005D01*
X1138168Y1335239D01*
X1136761Y1333832D01*
X1136000Y1331995D01*
Y1330005D01*
X1136761Y1328168D01*
X1138168Y1326761D01*
X1140005Y1326000D01*
X1141995D01*
X1143832Y1326761D01*
X1145239Y1328168D01*
X1146000Y1330005D01*
Y1331995D01*
X1145239Y1333832D01*
X1143832Y1335239D01*
X1141995Y1336000D01*
D02*
G37*
G36*
X1195945Y1335950D02*
X1193955D01*
X1192118Y1335189D01*
X1190711Y1333782D01*
X1189950Y1331944D01*
Y1329955D01*
X1190711Y1328118D01*
X1192118Y1326711D01*
X1193955Y1325950D01*
X1195945D01*
X1197782Y1326711D01*
X1199189Y1328118D01*
X1199950Y1329955D01*
Y1331944D01*
X1199189Y1333782D01*
X1197782Y1335189D01*
X1195945Y1335950D01*
D02*
G37*
G36*
X1327948Y1344100D02*
X1325052D01*
X1322254Y1343350D01*
X1319746Y1341902D01*
X1317698Y1339854D01*
X1316250Y1337346D01*
X1315500Y1334548D01*
Y1331652D01*
X1316250Y1328854D01*
X1317698Y1326346D01*
X1319746Y1324298D01*
X1322254Y1322850D01*
X1325052Y1322100D01*
X1327948D01*
X1330746Y1322850D01*
X1333254Y1324298D01*
X1335302Y1326346D01*
X1336750Y1328854D01*
X1337500Y1331652D01*
Y1334548D01*
X1336750Y1337346D01*
X1335302Y1339854D01*
X1333254Y1341902D01*
X1330746Y1343350D01*
X1327948Y1344100D01*
D02*
G37*
G36*
X1302548D02*
X1299652D01*
X1296854Y1343350D01*
X1294346Y1341902D01*
X1292298Y1339854D01*
X1290850Y1337346D01*
X1290100Y1334548D01*
Y1331652D01*
X1290850Y1328854D01*
X1292298Y1326346D01*
X1294346Y1324298D01*
X1296854Y1322850D01*
X1299652Y1322100D01*
X1302548D01*
X1305346Y1322850D01*
X1307854Y1324298D01*
X1309902Y1326346D01*
X1311350Y1328854D01*
X1312100Y1331652D01*
Y1334548D01*
X1311350Y1337346D01*
X1309902Y1339854D01*
X1307854Y1341902D01*
X1305346Y1343350D01*
X1302548Y1344100D01*
D02*
G37*
G36*
X1253995Y1304000D02*
X1252005D01*
X1250168Y1303239D01*
X1248761Y1301832D01*
X1248000Y1299995D01*
Y1298005D01*
X1248761Y1296168D01*
X1250168Y1294761D01*
X1252005Y1294000D01*
X1253995D01*
X1255832Y1294761D01*
X1257239Y1296168D01*
X1258000Y1298005D01*
Y1299995D01*
X1257239Y1301832D01*
X1255832Y1303239D01*
X1253995Y1304000D01*
D02*
G37*
G36*
X953995Y1303000D02*
X952005D01*
X950168Y1302239D01*
X948761Y1300832D01*
X948000Y1298995D01*
Y1297005D01*
X948761Y1295168D01*
X950168Y1293761D01*
X952005Y1293000D01*
X953995D01*
X955832Y1293761D01*
X957239Y1295168D01*
X958000Y1297005D01*
Y1298995D01*
X957239Y1300832D01*
X955832Y1302239D01*
X953995Y1303000D01*
D02*
G37*
G36*
X795000Y1310000D02*
X775000D01*
Y1290000D01*
X795000D01*
Y1310000D01*
D02*
G37*
G36*
X928995Y1295000D02*
X927005D01*
X925168Y1294239D01*
X923761Y1292832D01*
X923000Y1290995D01*
Y1289005D01*
X923761Y1287168D01*
X925168Y1285761D01*
X927005Y1285000D01*
X928995D01*
X930832Y1285761D01*
X932239Y1287168D01*
X933000Y1289005D01*
Y1290995D01*
X932239Y1292832D01*
X930832Y1294239D01*
X928995Y1295000D01*
D02*
G37*
G36*
X786317Y1285000D02*
X783683D01*
X781140Y1284319D01*
X778860Y1283002D01*
X776998Y1281140D01*
X775682Y1278860D01*
X775000Y1276317D01*
Y1273683D01*
X775682Y1271140D01*
X776998Y1268860D01*
X778860Y1266998D01*
X781140Y1265682D01*
X783683Y1265000D01*
X786317D01*
X788860Y1265682D01*
X791140Y1266998D01*
X793002Y1268860D01*
X794318Y1271140D01*
X795000Y1273683D01*
Y1276317D01*
X794318Y1278860D01*
X793002Y1281140D01*
X791140Y1283002D01*
X788860Y1284319D01*
X786317Y1285000D01*
D02*
G37*
G36*
X976194Y1266001D02*
X973807D01*
X971602Y1265087D01*
X970001Y1263486D01*
X968399Y1265087D01*
X966194Y1266001D01*
X963807D01*
X961602Y1265087D01*
X959914Y1263399D01*
X959000Y1261194D01*
Y1258807D01*
X959914Y1256602D01*
X961602Y1254914D01*
X963807Y1254001D01*
X966194D01*
X968399Y1254914D01*
X970001Y1256515D01*
X971602Y1254914D01*
X973807Y1254001D01*
X976194D01*
X978399Y1254914D01*
X980087Y1256602D01*
X981001Y1258807D01*
Y1261194D01*
X980087Y1263399D01*
X978399Y1265087D01*
X976194Y1266001D01*
D02*
G37*
G36*
X1456000Y1267618D02*
Y1259400D01*
X1464218D01*
X1463750Y1261146D01*
X1462302Y1263654D01*
X1460254Y1265702D01*
X1457746Y1267150D01*
X1456000Y1267618D01*
D02*
G37*
G36*
X1451000D02*
X1449254Y1267150D01*
X1446746Y1265702D01*
X1444698Y1263654D01*
X1443250Y1261146D01*
X1442782Y1259400D01*
X1451000D01*
Y1267618D01*
D02*
G37*
G36*
X934995Y1268000D02*
X933005D01*
X931168Y1267239D01*
X929761Y1265832D01*
X929000Y1263995D01*
Y1262005D01*
X929761Y1260168D01*
X931168Y1258761D01*
X933005Y1258000D01*
X934995D01*
X936832Y1258761D01*
X938239Y1260168D01*
X939000Y1262005D01*
Y1263995D01*
X938239Y1265832D01*
X936832Y1267239D01*
X934995Y1268000D01*
D02*
G37*
G36*
X1031194Y1276001D02*
X1028807D01*
X1026602Y1275087D01*
X1024914Y1273399D01*
X1024001Y1271194D01*
Y1268807D01*
X1024335Y1268001D01*
X1023821Y1266055D01*
X1023257Y1265773D01*
X1021602Y1265087D01*
X1019914Y1263399D01*
X1019001Y1261194D01*
Y1258807D01*
X1019335Y1258001D01*
X1018821Y1256055D01*
X1018257Y1255773D01*
X1016602Y1255087D01*
X1015001Y1253486D01*
X1013399Y1255087D01*
X1011194Y1256001D01*
X1008807D01*
X1006602Y1255087D01*
X1004914Y1253399D01*
X1004001Y1251194D01*
Y1248807D01*
X1004914Y1246602D01*
X1006602Y1244914D01*
X1008807Y1244001D01*
X1011194D01*
X1013399Y1244914D01*
X1015001Y1246515D01*
X1016602Y1244914D01*
X1018807Y1244001D01*
X1021194D01*
X1023399Y1244914D01*
X1025001Y1246515D01*
X1026602Y1244914D01*
X1028807Y1244001D01*
X1031194D01*
X1033399Y1244914D01*
X1035001Y1246515D01*
X1036602Y1244914D01*
X1038807Y1244001D01*
X1041194D01*
X1043399Y1244914D01*
X1045087Y1246602D01*
X1046001Y1248807D01*
Y1251194D01*
X1045667Y1252001D01*
X1046180Y1253946D01*
X1046744Y1254228D01*
X1048399Y1254914D01*
X1050087Y1256602D01*
X1051001Y1258807D01*
Y1261194D01*
X1050087Y1263399D01*
X1048399Y1265087D01*
X1046194Y1266001D01*
X1043807D01*
X1041602Y1265087D01*
X1040001Y1263486D01*
X1038399Y1265087D01*
X1036744Y1265773D01*
X1036180Y1266055D01*
X1035667Y1268001D01*
X1036001Y1268807D01*
Y1271194D01*
X1035087Y1273399D01*
X1033399Y1275087D01*
X1031194Y1276001D01*
D02*
G37*
G36*
X885995Y1269000D02*
X884005D01*
X882168Y1268239D01*
X880761Y1266832D01*
X880000Y1264995D01*
Y1263005D01*
X880761Y1261168D01*
X881929Y1260000D01*
X880761Y1258832D01*
X880000Y1256995D01*
Y1255005D01*
X880761Y1253168D01*
X882168Y1251761D01*
X884005Y1251000D01*
X885995D01*
X887832Y1251761D01*
X889239Y1253168D01*
X890000Y1255005D01*
Y1256995D01*
X889239Y1258832D01*
X888071Y1260000D01*
X889239Y1261168D01*
X890000Y1263005D01*
Y1264995D01*
X889239Y1266832D01*
X887832Y1268239D01*
X885995Y1269000D01*
D02*
G37*
G36*
X1464218Y1254400D02*
X1456000D01*
Y1246182D01*
X1457746Y1246650D01*
X1460254Y1248098D01*
X1462302Y1250146D01*
X1463750Y1252654D01*
X1464218Y1254400D01*
D02*
G37*
G36*
X1451000D02*
X1442782D01*
X1443250Y1252654D01*
X1444698Y1250146D01*
X1446746Y1248098D01*
X1449254Y1246650D01*
X1451000Y1246182D01*
Y1254400D01*
D02*
G37*
G36*
X1480348Y1267900D02*
X1477452D01*
X1474654Y1267150D01*
X1472146Y1265702D01*
X1470098Y1263654D01*
X1468650Y1261146D01*
X1467900Y1258348D01*
Y1255452D01*
X1468650Y1252654D01*
X1470098Y1250146D01*
X1472146Y1248098D01*
X1474654Y1246650D01*
X1477452Y1245900D01*
X1480348D01*
X1483146Y1246650D01*
X1485654Y1248098D01*
X1487702Y1250146D01*
X1489150Y1252654D01*
X1489900Y1255452D01*
Y1258348D01*
X1489150Y1261146D01*
X1487702Y1263654D01*
X1485654Y1265702D01*
X1483146Y1267150D01*
X1480348Y1267900D01*
D02*
G37*
G36*
X1175000Y1260250D02*
X1155000D01*
Y1240250D01*
X1175000D01*
Y1260250D01*
D02*
G37*
G36*
X1141317D02*
X1138683D01*
X1136140Y1259568D01*
X1133860Y1258252D01*
X1131998Y1256390D01*
X1130682Y1254110D01*
X1130000Y1251566D01*
Y1248933D01*
X1130682Y1246390D01*
X1131998Y1244110D01*
X1133860Y1242248D01*
X1136140Y1240931D01*
X1138683Y1240250D01*
X1141317D01*
X1143860Y1240931D01*
X1146140Y1242248D01*
X1148002Y1244110D01*
X1149318Y1246390D01*
X1150000Y1248933D01*
Y1251566D01*
X1149318Y1254110D01*
X1148002Y1256390D01*
X1146140Y1258252D01*
X1143860Y1259568D01*
X1141317Y1260250D01*
D02*
G37*
G36*
X923995Y1247000D02*
X922005D01*
X920168Y1246239D01*
X918761Y1244832D01*
X918000Y1242995D01*
Y1241005D01*
X918761Y1239168D01*
X920168Y1237761D01*
X922005Y1237000D01*
X923995D01*
X925832Y1237761D01*
X927239Y1239168D01*
X928000Y1241005D01*
Y1242995D01*
X927239Y1244832D01*
X925832Y1246239D01*
X923995Y1247000D01*
D02*
G37*
G36*
X834995D02*
X833005D01*
X831168Y1246239D01*
X829761Y1244832D01*
X829000Y1242995D01*
Y1241005D01*
X829761Y1239168D01*
X831168Y1237761D01*
X833005Y1237000D01*
X834995D01*
X836832Y1237761D01*
X838239Y1239168D01*
X839000Y1241005D01*
Y1242995D01*
X838239Y1244832D01*
X836832Y1246239D01*
X834995Y1247000D01*
D02*
G37*
G36*
X806995Y1243000D02*
X805005D01*
X803168Y1242239D01*
X801761Y1240832D01*
X801000Y1238995D01*
Y1237005D01*
X801761Y1235168D01*
X803168Y1233761D01*
X805005Y1233000D01*
X806995D01*
X808832Y1233761D01*
X810239Y1235168D01*
X811000Y1237005D01*
Y1238995D01*
X810239Y1240832D01*
X808832Y1242239D01*
X806995Y1243000D01*
D02*
G37*
G36*
X1480348Y1242500D02*
X1477452D01*
X1474654Y1241750D01*
X1472146Y1240302D01*
X1470098Y1238254D01*
X1468650Y1235746D01*
X1467900Y1232948D01*
Y1230052D01*
X1468014Y1229626D01*
X1466797Y1228039D01*
X1440203D01*
X1438986Y1229626D01*
X1439100Y1230052D01*
Y1232948D01*
X1438350Y1235746D01*
X1436902Y1238254D01*
X1434854Y1240302D01*
X1432346Y1241750D01*
X1429548Y1242500D01*
X1426652D01*
X1423854Y1241750D01*
X1421346Y1240302D01*
X1419298Y1238254D01*
X1417850Y1235746D01*
X1417100Y1232948D01*
Y1230052D01*
X1417215Y1229623D01*
X1416794Y1229073D01*
X1415591Y1227958D01*
X1415220Y1227884D01*
X1414558Y1227442D01*
X1414116Y1226780D01*
X1413961Y1226000D01*
Y1135000D01*
X1414116Y1134220D01*
X1414558Y1133558D01*
X1415220Y1133116D01*
X1415845Y1132992D01*
X1416037Y1132907D01*
X1417371Y1130961D01*
X1417100Y1129948D01*
Y1127052D01*
X1417850Y1124254D01*
X1419298Y1121746D01*
X1421346Y1119698D01*
X1423854Y1118250D01*
X1426652Y1117500D01*
X1429548D01*
X1432346Y1118250D01*
X1434854Y1119698D01*
X1436902Y1121746D01*
X1438350Y1124254D01*
X1439100Y1127052D01*
Y1129948D01*
X1438829Y1130961D01*
X1440363Y1132961D01*
X1466637D01*
X1468171Y1130961D01*
X1467900Y1129948D01*
Y1127052D01*
X1468650Y1124254D01*
X1470098Y1121746D01*
X1472146Y1119698D01*
X1474654Y1118250D01*
X1477452Y1117500D01*
X1480348D01*
X1483146Y1118250D01*
X1485654Y1119698D01*
X1487702Y1121746D01*
X1489150Y1124254D01*
X1489900Y1127052D01*
Y1129948D01*
X1489150Y1132746D01*
X1487702Y1135254D01*
X1485654Y1137302D01*
X1483146Y1138750D01*
X1480348Y1139500D01*
X1477452D01*
X1476039Y1140584D01*
Y1219416D01*
X1477452Y1220500D01*
X1480348D01*
X1483146Y1221250D01*
X1485654Y1222698D01*
X1487702Y1224746D01*
X1489150Y1227254D01*
X1489900Y1230052D01*
Y1232948D01*
X1489150Y1235746D01*
X1487702Y1238254D01*
X1485654Y1240302D01*
X1483146Y1241750D01*
X1480348Y1242500D01*
D02*
G37*
G36*
X818995Y1231000D02*
X817005D01*
X815168Y1230239D01*
X813761Y1228832D01*
X813000Y1226995D01*
Y1225005D01*
X813761Y1223168D01*
X815168Y1221761D01*
X817005Y1221000D01*
X818995D01*
X820832Y1221761D01*
X822239Y1223168D01*
X823000Y1225005D01*
Y1226995D01*
X822239Y1228832D01*
X820832Y1230239D01*
X818995Y1231000D01*
D02*
G37*
G36*
X781448Y1238000D02*
X778552D01*
X775754Y1237250D01*
X773246Y1235802D01*
X771198Y1233754D01*
X769750Y1231246D01*
X769000Y1228448D01*
Y1225552D01*
X769750Y1222754D01*
X771198Y1220246D01*
X773246Y1218198D01*
X775754Y1216750D01*
X778552Y1216000D01*
X781448D01*
X784246Y1216750D01*
X786754Y1218198D01*
X788802Y1220246D01*
X790250Y1222754D01*
X791000Y1225552D01*
Y1228448D01*
X790250Y1231246D01*
X788802Y1233754D01*
X786754Y1235802D01*
X784246Y1237250D01*
X781448Y1238000D01*
D02*
G37*
G36*
X948995Y1214000D02*
X947005D01*
X945168Y1213239D01*
X944215Y1212287D01*
X943000Y1212007D01*
X941785Y1212287D01*
X940832Y1213239D01*
X938995Y1214000D01*
X937005D01*
X935168Y1213239D01*
X933761Y1211832D01*
X933000Y1209995D01*
Y1208005D01*
X933761Y1206168D01*
X935168Y1204761D01*
X937005Y1204000D01*
X938995D01*
X940832Y1204761D01*
X941785Y1205714D01*
X943000Y1205993D01*
X944215Y1205714D01*
X945168Y1204761D01*
X947005Y1204000D01*
X948995D01*
X950832Y1204761D01*
X952239Y1206168D01*
X953000Y1208005D01*
Y1209995D01*
X952239Y1211832D01*
X950832Y1213239D01*
X948995Y1214000D01*
D02*
G37*
G36*
X1164995Y1219000D02*
X1163005D01*
X1161168Y1218239D01*
X1159761Y1216832D01*
X1159000Y1214995D01*
Y1213005D01*
X1159761Y1211168D01*
X1161168Y1209761D01*
X1163005Y1209000D01*
X1164995D01*
X1166832Y1209761D01*
X1168239Y1211168D01*
X1169000Y1213005D01*
Y1214995D01*
X1168239Y1216832D01*
X1166832Y1218239D01*
X1164995Y1219000D01*
D02*
G37*
G36*
X1140995Y1218000D02*
X1139005D01*
X1137168Y1217239D01*
X1135761Y1215832D01*
X1135000Y1213995D01*
Y1212005D01*
X1135761Y1210168D01*
X1137168Y1208761D01*
X1139005Y1208000D01*
X1140995D01*
X1142832Y1208761D01*
X1144239Y1210168D01*
X1145000Y1212005D01*
Y1213995D01*
X1144239Y1215832D01*
X1142832Y1217239D01*
X1140995Y1218000D01*
D02*
G37*
G36*
X975995Y1212000D02*
X974005D01*
X972168Y1211239D01*
X970761Y1209832D01*
X970000Y1207995D01*
Y1206005D01*
X970761Y1204168D01*
X972168Y1202761D01*
X974005Y1202000D01*
X975995D01*
X977832Y1202761D01*
X979239Y1204168D01*
X980000Y1206005D01*
Y1207995D01*
X979239Y1209832D01*
X977832Y1211239D01*
X975995Y1212000D01*
D02*
G37*
G36*
X960995D02*
X959005D01*
X957168Y1211239D01*
X955761Y1209832D01*
X955000Y1207995D01*
Y1206005D01*
X955761Y1204168D01*
X957168Y1202761D01*
X959005Y1202000D01*
X960995D01*
X962832Y1202761D01*
X964239Y1204168D01*
X965000Y1206005D01*
Y1207995D01*
X964239Y1209832D01*
X962832Y1211239D01*
X960995Y1212000D01*
D02*
G37*
G36*
X842995Y1221000D02*
X841005D01*
X839168Y1220239D01*
X837761Y1218832D01*
X837000Y1216995D01*
Y1215005D01*
X837761Y1213168D01*
X837921Y1213008D01*
X837668Y1210739D01*
X836261Y1209332D01*
X835500Y1207495D01*
Y1205505D01*
X836261Y1203668D01*
X837668Y1202261D01*
X839505Y1201500D01*
X841495D01*
X843332Y1202261D01*
X844739Y1203668D01*
X845500Y1205505D01*
Y1207495D01*
X844739Y1209332D01*
X844579Y1209492D01*
X844832Y1211761D01*
X846239Y1213168D01*
X847000Y1215005D01*
Y1216995D01*
X846239Y1218832D01*
X844832Y1220239D01*
X842995Y1221000D01*
D02*
G37*
G36*
X1302680Y1218100D02*
X1299520D01*
X1296468Y1217282D01*
X1293732Y1215702D01*
X1291498Y1213468D01*
X1289918Y1210732D01*
X1289100Y1207680D01*
Y1204520D01*
X1289918Y1201468D01*
X1291498Y1198732D01*
X1293732Y1196498D01*
X1296468Y1194918D01*
X1299520Y1194100D01*
X1302680D01*
X1305732Y1194918D01*
X1308468Y1196498D01*
X1310702Y1198732D01*
X1312282Y1201468D01*
X1313100Y1204520D01*
Y1207680D01*
X1312282Y1210732D01*
X1310702Y1213468D01*
X1308468Y1215702D01*
X1305732Y1217282D01*
X1302680Y1218100D01*
D02*
G37*
G36*
X781448Y1212600D02*
X778552D01*
X775754Y1211850D01*
X773246Y1210402D01*
X771198Y1208354D01*
X769750Y1205846D01*
X769000Y1203048D01*
Y1200152D01*
X769750Y1197354D01*
X771198Y1194846D01*
X773246Y1192798D01*
X775754Y1191350D01*
X778552Y1190600D01*
X781448D01*
X784246Y1191350D01*
X786754Y1192798D01*
X788802Y1194846D01*
X790250Y1197354D01*
X791000Y1200152D01*
Y1203048D01*
X790250Y1205846D01*
X788802Y1208354D01*
X786754Y1210402D01*
X784246Y1211850D01*
X781448Y1212600D01*
D02*
G37*
G36*
X799995Y1199000D02*
X798005D01*
X796168Y1198239D01*
X794761Y1196832D01*
X794000Y1194995D01*
Y1193005D01*
X794761Y1191168D01*
X796168Y1189761D01*
X798005Y1189000D01*
X799995D01*
X801832Y1189761D01*
X803239Y1191168D01*
X804000Y1193005D01*
Y1194995D01*
X803239Y1196832D01*
X801832Y1198239D01*
X799995Y1199000D01*
D02*
G37*
G36*
X1214245Y1187250D02*
X1212255D01*
X1210418Y1186489D01*
X1209011Y1185082D01*
X1208250Y1183245D01*
Y1181255D01*
X1209011Y1179418D01*
X1210418Y1178011D01*
X1212255Y1177250D01*
X1214245D01*
X1216082Y1178011D01*
X1217489Y1179418D01*
X1218250Y1181255D01*
Y1183245D01*
X1217489Y1185082D01*
X1216082Y1186489D01*
X1214245Y1187250D01*
D02*
G37*
G36*
X1014744Y1182750D02*
X1012755D01*
X1010918Y1181989D01*
X1009511Y1180582D01*
X1008750Y1178745D01*
Y1176756D01*
X1009511Y1174918D01*
X1010918Y1173511D01*
X1012755Y1172750D01*
X1014744D01*
X1016582Y1173511D01*
X1017989Y1174918D01*
X1018750Y1176756D01*
Y1178745D01*
X1017989Y1180582D01*
X1016582Y1181989D01*
X1014744Y1182750D01*
D02*
G37*
G36*
X1002995Y1174000D02*
X1001005D01*
X999168Y1173239D01*
X998000Y1172071D01*
X996832Y1173239D01*
X994995Y1174000D01*
X993006D01*
X991168Y1173239D01*
X989761Y1171832D01*
X989000Y1169995D01*
Y1168005D01*
X989761Y1166168D01*
X991168Y1164761D01*
X993006Y1164000D01*
X994995D01*
X996832Y1164761D01*
X998000Y1165929D01*
X999168Y1164761D01*
X1001005Y1164000D01*
X1002995D01*
X1004832Y1164761D01*
X1006239Y1166168D01*
X1007000Y1168005D01*
Y1169995D01*
X1006239Y1171832D01*
X1004832Y1173239D01*
X1002995Y1174000D01*
D02*
G37*
G36*
X1111995Y1178000D02*
X1110005D01*
X1108168Y1177239D01*
X1106761Y1175832D01*
X1106000Y1173995D01*
Y1172005D01*
X1106761Y1170168D01*
X1108168Y1168761D01*
X1110005Y1168000D01*
X1111995D01*
X1113832Y1168761D01*
X1115239Y1170168D01*
X1116000Y1172005D01*
Y1173995D01*
X1115239Y1175832D01*
X1113832Y1177239D01*
X1111995Y1178000D01*
D02*
G37*
G36*
X813995D02*
X812005D01*
X810168Y1177239D01*
X808761Y1175832D01*
X808000Y1173995D01*
Y1172005D01*
X808761Y1170168D01*
X810168Y1168761D01*
X812005Y1168000D01*
X813995D01*
X815832Y1168761D01*
X817239Y1170168D01*
X818000Y1172005D01*
Y1173995D01*
X817239Y1175832D01*
X815832Y1177239D01*
X813995Y1178000D01*
D02*
G37*
G36*
X918995Y1187000D02*
X917005D01*
X915168Y1186239D01*
X913761Y1184832D01*
X913000Y1182995D01*
Y1181005D01*
X913761Y1179168D01*
X915168Y1177761D01*
X917005Y1177000D01*
X917101D01*
X917614Y1176263D01*
X918124Y1175000D01*
X917500Y1173495D01*
Y1171505D01*
X918261Y1169668D01*
X919668Y1168261D01*
X921505Y1167500D01*
X923495D01*
X925332Y1168261D01*
X926739Y1169668D01*
X927500Y1171505D01*
Y1173495D01*
X926739Y1175332D01*
X925332Y1176739D01*
X923495Y1177500D01*
X923400D01*
X922887Y1178237D01*
X922376Y1179500D01*
X923000Y1181005D01*
Y1182995D01*
X922239Y1184832D01*
X920832Y1186239D01*
X918995Y1187000D01*
D02*
G37*
G36*
X907995Y1177000D02*
X906005D01*
X904168Y1176239D01*
X902761Y1174832D01*
X902000Y1172995D01*
Y1171005D01*
X902761Y1169168D01*
X904168Y1167761D01*
X906005Y1167000D01*
X907995D01*
X909832Y1167761D01*
X911239Y1169168D01*
X912000Y1171005D01*
Y1172995D01*
X911239Y1174832D01*
X909832Y1176239D01*
X907995Y1177000D01*
D02*
G37*
G36*
X781448Y1187200D02*
X778552D01*
X775754Y1186450D01*
X773246Y1185002D01*
X771198Y1182954D01*
X769750Y1180446D01*
X769000Y1177648D01*
Y1174752D01*
X769750Y1171954D01*
X771198Y1169446D01*
X773246Y1167398D01*
X775754Y1165950D01*
X778552Y1165200D01*
X781448D01*
X784246Y1165950D01*
X786754Y1167398D01*
X788802Y1169446D01*
X790250Y1171954D01*
X791000Y1174752D01*
Y1177648D01*
X790250Y1180446D01*
X788802Y1182954D01*
X786754Y1185002D01*
X784246Y1186450D01*
X781448Y1187200D01*
D02*
G37*
G36*
Y1161800D02*
X781000D01*
Y1151800D01*
X791000D01*
Y1152248D01*
X790250Y1155046D01*
X788802Y1157554D01*
X786754Y1159602D01*
X784246Y1161050D01*
X781448Y1161800D01*
D02*
G37*
G36*
X779000D02*
X778552D01*
X775754Y1161050D01*
X773246Y1159602D01*
X771198Y1157554D01*
X769750Y1155046D01*
X769000Y1152248D01*
Y1151800D01*
X779000D01*
Y1161800D01*
D02*
G37*
G36*
X1302680Y1165900D02*
X1299520D01*
X1296468Y1165082D01*
X1293732Y1163502D01*
X1291498Y1161268D01*
X1289918Y1158532D01*
X1289100Y1155480D01*
Y1152320D01*
X1289918Y1149268D01*
X1291498Y1146532D01*
X1293732Y1144298D01*
X1296468Y1142718D01*
X1299520Y1141900D01*
X1302680D01*
X1305732Y1142718D01*
X1308468Y1144298D01*
X1310702Y1146532D01*
X1312282Y1149268D01*
X1313100Y1152320D01*
Y1155480D01*
X1312282Y1158532D01*
X1310702Y1161268D01*
X1308468Y1163502D01*
X1305732Y1165082D01*
X1302680Y1165900D01*
D02*
G37*
G36*
X910994Y1151000D02*
X909005D01*
X907168Y1150239D01*
X905761Y1148832D01*
X905000Y1146995D01*
Y1145005D01*
X905761Y1143168D01*
X907168Y1141761D01*
X909005Y1141000D01*
X910994D01*
X912832Y1141761D01*
X913199Y1142128D01*
X915558Y1141658D01*
X915761Y1141168D01*
X917168Y1139761D01*
X919005Y1139000D01*
X920995D01*
X922832Y1139761D01*
X924193Y1141122D01*
X924266Y1141171D01*
X926508Y1141421D01*
X927168Y1140761D01*
X929005Y1140000D01*
X930995D01*
X932832Y1140761D01*
X934239Y1142168D01*
X935000Y1144005D01*
Y1145995D01*
X934239Y1147832D01*
X932832Y1149239D01*
X930995Y1150000D01*
X929005D01*
X927168Y1149239D01*
X925807Y1147878D01*
X925734Y1147829D01*
X923492Y1147579D01*
X922832Y1148239D01*
X920995Y1149000D01*
X919005D01*
X917168Y1148239D01*
X916801Y1147872D01*
X914442Y1148342D01*
X914239Y1148832D01*
X912832Y1150239D01*
X910994Y1151000D01*
D02*
G37*
G36*
X791000Y1149800D02*
X781000D01*
Y1139800D01*
X781448D01*
X784246Y1140550D01*
X786754Y1141998D01*
X788802Y1144046D01*
X790250Y1146554D01*
X791000Y1149352D01*
Y1149800D01*
D02*
G37*
G36*
X779000D02*
X769000D01*
Y1149352D01*
X769750Y1146554D01*
X771198Y1144046D01*
X773246Y1141998D01*
X775754Y1140550D01*
X778552Y1139800D01*
X779000D01*
Y1149800D01*
D02*
G37*
G36*
X891995Y1139000D02*
X890005D01*
X888168Y1138239D01*
X886761Y1136832D01*
X886000Y1134995D01*
Y1133005D01*
X886761Y1131168D01*
X888168Y1129761D01*
X890005Y1129000D01*
X891995D01*
X893832Y1129761D01*
X895239Y1131168D01*
X896000Y1133005D01*
Y1134995D01*
X895239Y1136832D01*
X893832Y1138239D01*
X891995Y1139000D01*
D02*
G37*
G36*
X781448Y1136400D02*
X778552D01*
X775754Y1135650D01*
X773246Y1134202D01*
X771198Y1132154D01*
X769750Y1129646D01*
X769000Y1126848D01*
Y1123952D01*
X769750Y1121154D01*
X771198Y1118646D01*
X773246Y1116598D01*
X775754Y1115150D01*
X778552Y1114400D01*
X781448D01*
X784246Y1115150D01*
X786754Y1116598D01*
X788802Y1118646D01*
X790250Y1121154D01*
X791000Y1123952D01*
Y1126848D01*
X790250Y1129646D01*
X788802Y1132154D01*
X786754Y1134202D01*
X784246Y1135650D01*
X781448Y1136400D01*
D02*
G37*
G36*
X1065995Y1104000D02*
X1064005D01*
X1062168Y1103239D01*
X1060761Y1101832D01*
X1060000Y1099995D01*
Y1098005D01*
X1060761Y1096168D01*
X1062168Y1094761D01*
X1064005Y1094000D01*
X1065995D01*
X1067832Y1094761D01*
X1069239Y1096168D01*
X1070000Y1098005D01*
Y1099995D01*
X1069239Y1101832D01*
X1067832Y1103239D01*
X1065995Y1104000D01*
D02*
G37*
G36*
X1480348Y1114100D02*
X1477452D01*
X1474654Y1113350D01*
X1472146Y1111902D01*
X1470098Y1109854D01*
X1468650Y1107346D01*
X1467900Y1104548D01*
Y1101652D01*
X1468650Y1098854D01*
X1470098Y1096346D01*
X1472146Y1094298D01*
X1474654Y1092850D01*
X1477452Y1092100D01*
X1480348D01*
X1483146Y1092850D01*
X1485654Y1094298D01*
X1487702Y1096346D01*
X1489150Y1098854D01*
X1489900Y1101652D01*
Y1104548D01*
X1489150Y1107346D01*
X1487702Y1109854D01*
X1485654Y1111902D01*
X1483146Y1113350D01*
X1480348Y1114100D01*
D02*
G37*
G36*
X1454948D02*
X1452052D01*
X1449254Y1113350D01*
X1446746Y1111902D01*
X1444698Y1109854D01*
X1443250Y1107346D01*
X1442500Y1104548D01*
Y1101652D01*
X1443250Y1098854D01*
X1444698Y1096346D01*
X1446746Y1094298D01*
X1449254Y1092850D01*
X1452052Y1092100D01*
X1454948D01*
X1457746Y1092850D01*
X1460254Y1094298D01*
X1462302Y1096346D01*
X1463750Y1098854D01*
X1464500Y1101652D01*
Y1104548D01*
X1463750Y1107346D01*
X1462302Y1109854D01*
X1460254Y1111902D01*
X1457746Y1113350D01*
X1454948Y1114100D01*
D02*
G37*
G36*
X781448Y1111000D02*
X778552D01*
X775754Y1110250D01*
X773246Y1108802D01*
X771198Y1106754D01*
X769750Y1104246D01*
X769000Y1101448D01*
Y1098552D01*
X769750Y1095754D01*
X771198Y1093246D01*
X773246Y1091198D01*
X775754Y1089750D01*
X778552Y1089000D01*
X781448D01*
X784246Y1089750D01*
X786754Y1091198D01*
X788802Y1093246D01*
X790250Y1095754D01*
X791000Y1098552D01*
Y1101448D01*
X790250Y1104246D01*
X788802Y1106754D01*
X786754Y1108802D01*
X784246Y1110250D01*
X781448Y1111000D01*
D02*
G37*
G36*
X1016995Y1070000D02*
X1015005D01*
X1013168Y1069239D01*
X1011761Y1067832D01*
X1011000Y1065994D01*
Y1064005D01*
X1011761Y1062168D01*
X1013168Y1060761D01*
X1015005Y1060000D01*
X1016995D01*
X1018832Y1060761D01*
X1020239Y1062168D01*
X1021000Y1064005D01*
Y1065994D01*
X1020239Y1067832D01*
X1018832Y1069239D01*
X1016995Y1070000D01*
D02*
G37*
G36*
X886995Y1065000D02*
X885005D01*
X883168Y1064239D01*
X881761Y1062832D01*
X881000Y1060995D01*
Y1059005D01*
X881761Y1057168D01*
X883168Y1055761D01*
X885005Y1055000D01*
X886995D01*
X888832Y1055761D01*
X890239Y1057168D01*
X891000Y1059005D01*
Y1060995D01*
X890239Y1062832D01*
X888832Y1064239D01*
X886995Y1065000D01*
D02*
G37*
G36*
X1083995Y1071000D02*
X1082005D01*
X1080168Y1070239D01*
X1078761Y1068832D01*
X1078000Y1066995D01*
Y1065005D01*
X1078761Y1063168D01*
X1079929Y1062000D01*
X1079739Y1060875D01*
X1079316Y1060000D01*
X1079005D01*
X1077168Y1059239D01*
X1075761Y1057832D01*
X1075000Y1055995D01*
Y1054005D01*
X1075480Y1052848D01*
X1075438Y1052690D01*
X1074390Y1051112D01*
X1074245Y1051000D01*
X1073005D01*
X1071168Y1050239D01*
X1069761Y1048832D01*
X1069000Y1046995D01*
Y1045005D01*
X1069761Y1043168D01*
X1071168Y1041761D01*
X1073005Y1041000D01*
X1074995D01*
X1076832Y1041761D01*
X1078239Y1043168D01*
X1079000Y1045005D01*
Y1046995D01*
X1078521Y1048152D01*
X1078562Y1048310D01*
X1079610Y1049888D01*
X1079755Y1050000D01*
X1080995D01*
X1082832Y1050761D01*
X1084239Y1052168D01*
X1085000Y1054005D01*
Y1055995D01*
X1084239Y1057832D01*
X1083071Y1059000D01*
X1083261Y1060125D01*
X1083684Y1061000D01*
X1083995D01*
X1085832Y1061761D01*
X1087239Y1063168D01*
X1088000Y1065005D01*
Y1066995D01*
X1087239Y1068832D01*
X1085832Y1070239D01*
X1083995Y1071000D01*
D02*
G37*
G36*
X1016995Y1055000D02*
X1015005D01*
X1013168Y1054239D01*
X1011761Y1052832D01*
X1011000Y1050994D01*
Y1049005D01*
X1011761Y1047168D01*
X1012713Y1046215D01*
X1012993Y1045000D01*
X1012713Y1043784D01*
X1011761Y1042832D01*
X1011000Y1040994D01*
Y1039005D01*
X1011761Y1037168D01*
X1013168Y1035761D01*
X1015005Y1035000D01*
X1016995D01*
X1018832Y1035761D01*
X1020239Y1037168D01*
X1021000Y1039005D01*
Y1040994D01*
X1020239Y1042832D01*
X1019287Y1043784D01*
X1019007Y1045000D01*
X1019287Y1046215D01*
X1020239Y1047168D01*
X1021000Y1049005D01*
Y1050994D01*
X1020239Y1052832D01*
X1018832Y1054239D01*
X1016995Y1055000D01*
D02*
G37*
G36*
X996995Y1035000D02*
X995005D01*
X993168Y1034239D01*
X991761Y1032832D01*
X991000Y1030995D01*
Y1029005D01*
X991761Y1027168D01*
X993168Y1025761D01*
X995005Y1025000D01*
X996995D01*
X998832Y1025761D01*
X1000239Y1027168D01*
X1001000Y1029005D01*
Y1030995D01*
X1000239Y1032832D01*
X998832Y1034239D01*
X996995Y1035000D01*
D02*
G37*
G36*
X934000Y1033750D02*
X932011D01*
X930173Y1032989D01*
X928767Y1031582D01*
X928006Y1029744D01*
Y1027755D01*
X928767Y1025918D01*
X930173Y1024511D01*
X932011Y1023750D01*
X934000D01*
X935838Y1024511D01*
X937244Y1025918D01*
X938005Y1027755D01*
Y1029744D01*
X937244Y1031582D01*
X935838Y1032989D01*
X934000Y1033750D01*
D02*
G37*
G36*
X1010995Y1021000D02*
X1009005D01*
X1007168Y1020239D01*
X1006000Y1019071D01*
X1004832Y1020239D01*
X1002995Y1021000D01*
X1001005D01*
X999168Y1020239D01*
X997761Y1018832D01*
X997000Y1016995D01*
Y1015005D01*
X997761Y1013168D01*
X999168Y1011761D01*
X1001005Y1011000D01*
X1002995D01*
X1004832Y1011761D01*
X1006000Y1012929D01*
X1007168Y1011761D01*
X1009005Y1011000D01*
X1010995D01*
X1012832Y1011761D01*
X1014239Y1013168D01*
X1015000Y1015005D01*
Y1016995D01*
X1014239Y1018832D01*
X1012832Y1020239D01*
X1010995Y1021000D01*
D02*
G37*
G36*
X1327948Y1037900D02*
X1325052D01*
X1322254Y1037150D01*
X1319746Y1035702D01*
X1317698Y1033654D01*
X1316250Y1031146D01*
X1315500Y1028348D01*
Y1025452D01*
X1316250Y1022654D01*
X1317698Y1020146D01*
X1319746Y1018098D01*
X1322254Y1016650D01*
X1325052Y1015900D01*
X1327948D01*
X1330746Y1016650D01*
X1333254Y1018098D01*
X1335302Y1020146D01*
X1336750Y1022654D01*
X1337500Y1025452D01*
Y1028348D01*
X1336750Y1031146D01*
X1335302Y1033654D01*
X1333254Y1035702D01*
X1330746Y1037150D01*
X1327948Y1037900D01*
D02*
G37*
G36*
X1302548D02*
X1299652D01*
X1296854Y1037150D01*
X1294346Y1035702D01*
X1292298Y1033654D01*
X1290850Y1031146D01*
X1290100Y1028348D01*
Y1025452D01*
X1290850Y1022654D01*
X1292298Y1020146D01*
X1294346Y1018098D01*
X1296854Y1016650D01*
X1299652Y1015900D01*
X1302548D01*
X1305346Y1016650D01*
X1307854Y1018098D01*
X1309902Y1020146D01*
X1311350Y1022654D01*
X1312100Y1025452D01*
Y1028348D01*
X1311350Y1031146D01*
X1309902Y1033654D01*
X1307854Y1035702D01*
X1305346Y1037150D01*
X1302548Y1037900D01*
D02*
G37*
G36*
X876995Y999000D02*
X875005D01*
X873168Y998239D01*
X871761Y996832D01*
X871000Y994995D01*
Y993006D01*
X871761Y991168D01*
X873168Y989761D01*
X875005Y989000D01*
X876995D01*
X878832Y989761D01*
X880239Y991168D01*
X881000Y993006D01*
Y994995D01*
X880239Y996832D01*
X878832Y998239D01*
X876995Y999000D01*
D02*
G37*
G36*
X1480480Y988100D02*
X1477320D01*
X1474268Y987282D01*
X1471532Y985702D01*
X1469298Y983468D01*
X1467718Y980732D01*
X1466900Y977680D01*
Y974520D01*
X1467718Y971468D01*
X1469298Y968732D01*
X1471532Y966498D01*
X1474268Y964918D01*
X1477320Y964100D01*
X1480480D01*
X1483532Y964918D01*
X1486268Y966498D01*
X1488502Y968732D01*
X1490082Y971468D01*
X1490900Y974520D01*
Y977680D01*
X1490082Y980732D01*
X1488502Y983468D01*
X1486268Y985702D01*
X1483532Y987282D01*
X1480480Y988100D01*
D02*
G37*
G36*
X1020995Y960000D02*
X1019005D01*
X1017168Y959239D01*
X1015761Y957832D01*
X1015000Y955995D01*
Y954005D01*
X1015761Y952168D01*
X1017168Y950761D01*
X1019005Y950000D01*
X1020995D01*
X1022832Y950761D01*
X1024239Y952168D01*
X1025000Y954005D01*
Y955995D01*
X1024239Y957832D01*
X1022832Y959239D01*
X1020995Y960000D01*
D02*
G37*
G36*
X813495Y946500D02*
X811505D01*
X809668Y945739D01*
X808261Y944332D01*
X807500Y942495D01*
Y940505D01*
X808261Y938668D01*
X809668Y937261D01*
X811505Y936500D01*
X813495D01*
X815332Y937261D01*
X816739Y938668D01*
X817500Y940505D01*
Y942495D01*
X816739Y944332D01*
X815332Y945739D01*
X813495Y946500D01*
D02*
G37*
G36*
X1087095Y945000D02*
X1085106D01*
X1083268Y944239D01*
X1081862Y942832D01*
X1081101Y940995D01*
Y939005D01*
X1081862Y937168D01*
X1083268Y935761D01*
X1085106Y935000D01*
X1087095D01*
X1088933Y935761D01*
X1090339Y937168D01*
X1091101Y939005D01*
Y940995D01*
X1090339Y942832D01*
X1088933Y944239D01*
X1087095Y945000D01*
D02*
G37*
G36*
X1136317Y795000D02*
X1136000D01*
Y786000D01*
X1145000D01*
Y786317D01*
X1144318Y788860D01*
X1143002Y791140D01*
X1141140Y793002D01*
X1138860Y794318D01*
X1136317Y795000D01*
D02*
G37*
G36*
X1006317D02*
X1006000D01*
Y786000D01*
X1015000D01*
Y786317D01*
X1014318Y788860D01*
X1013002Y791140D01*
X1011140Y793002D01*
X1008860Y794318D01*
X1006317Y795000D01*
D02*
G37*
G36*
X1341317D02*
X1341000D01*
Y786000D01*
X1350000D01*
Y786317D01*
X1349319Y788860D01*
X1348002Y791140D01*
X1346140Y793002D01*
X1343860Y794318D01*
X1341317Y795000D01*
D02*
G37*
G36*
X876317Y794750D02*
X876000D01*
Y785750D01*
X885000D01*
Y786067D01*
X884318Y788610D01*
X883002Y790890D01*
X881140Y792752D01*
X878860Y794069D01*
X876317Y794750D01*
D02*
G37*
G36*
X1145000Y784000D02*
X1136000D01*
Y775000D01*
X1136317D01*
X1138860Y775682D01*
X1141140Y776998D01*
X1143002Y778860D01*
X1144318Y781140D01*
X1145000Y783683D01*
Y784000D01*
D02*
G37*
G36*
X1015000D02*
X1006000D01*
Y775000D01*
X1006317D01*
X1008860Y775682D01*
X1011140Y776998D01*
X1013002Y778860D01*
X1014318Y781140D01*
X1015000Y783683D01*
Y784000D01*
D02*
G37*
G36*
X885000Y783750D02*
X876000D01*
Y774750D01*
X876317D01*
X878860Y775432D01*
X881140Y776748D01*
X883002Y778610D01*
X884318Y780890D01*
X885000Y783434D01*
Y783750D01*
D02*
G37*
%LPD*%
D72*
X1340000Y785000D02*
D03*
X1135000D02*
D03*
X1005000D02*
D03*
X875000Y784750D02*
D03*
D91*
X780000Y1150800D02*
D03*
X1453500Y1256900D02*
D03*
D92*
X790000Y1355000D02*
D03*
D96*
X933000Y1357000D02*
D03*
X884000Y974000D02*
D03*
X1289250Y1494500D02*
D03*
X1433000Y1422000D02*
D03*
X1203000Y1439000D02*
D03*
X1155000Y1429000D02*
D03*
X1135750Y1417250D02*
D03*
X1179000Y1398000D02*
D03*
X1118250Y1317750D02*
D03*
X1174000Y1297000D02*
D03*
X1040000Y1333000D02*
D03*
X1034000Y1213000D02*
D03*
X1263000Y1161000D02*
D03*
X1200519Y1096841D02*
D03*
X1190500Y1168500D02*
D03*
X1258000Y997000D02*
D03*
X1193000Y1000000D02*
D03*
X1167000Y1086000D02*
D03*
X1128000Y1195000D02*
D03*
X1133000Y1161000D02*
D03*
X1174908Y1008908D02*
D03*
X1128000Y997000D02*
D03*
X1201000Y926000D02*
D03*
X1193000Y985000D02*
D03*
X1192000Y970000D02*
D03*
X1258000Y865000D02*
D03*
Y845000D02*
D03*
X1167000Y914000D02*
D03*
X1128000Y845000D02*
D03*
Y865000D02*
D03*
X1077000Y1099000D02*
D03*
X1056250Y1137000D02*
D03*
X1042000Y1086000D02*
D03*
X1064000Y1007000D02*
D03*
X1071000Y926000D02*
D03*
X1066000Y954000D02*
D03*
X1037000Y916000D02*
D03*
X916750Y1485000D02*
D03*
X927750Y1372500D02*
D03*
X987000Y1230000D02*
D03*
X1018000Y1156000D02*
D03*
X940519Y1096841D02*
D03*
X885000Y1388000D02*
D03*
X911000Y1263000D02*
D03*
X869750Y1243750D02*
D03*
X862000Y1293000D02*
D03*
X860000Y1393000D02*
D03*
X841250Y1403750D02*
D03*
X830025Y1319975D02*
D03*
X818000Y1216000D02*
D03*
X888000Y1184000D02*
D03*
X873000Y1161000D02*
D03*
X907000Y1087000D02*
D03*
X860000Y1055000D02*
D03*
X810519Y1096841D02*
D03*
X835000Y1033061D02*
D03*
X767000Y1075000D02*
D03*
X1010000Y985000D02*
D03*
X987000Y1019000D02*
D03*
X911750Y1029750D02*
D03*
X933000Y976000D02*
D03*
X1019750Y919000D02*
D03*
X998000Y865000D02*
D03*
Y845000D02*
D03*
X985000Y938000D02*
D03*
X972000Y939000D02*
D03*
X956000Y938000D02*
D03*
X941000Y926000D02*
D03*
X868000Y997000D02*
D03*
X803000Y985000D02*
D03*
X769000Y1031000D02*
D03*
X803000Y1000000D02*
D03*
X802000Y970000D02*
D03*
X898000Y939000D02*
D03*
X868000Y865000D02*
D03*
Y845000D02*
D03*
X830000Y948000D02*
D03*
X767000Y940000D02*
D03*
X810950Y925950D02*
D03*
X767000Y925000D02*
D03*
X789500Y868500D02*
D03*
D97*
X1419000Y1481000D02*
D03*
X1410000Y1472000D02*
D03*
Y1481000D02*
D03*
X1419000Y1472000D02*
D03*
X1410000Y1463000D02*
D03*
X1401000Y1472000D02*
D03*
Y1481000D02*
D03*
Y1463000D02*
D03*
X1419000D02*
D03*
Y1454000D02*
D03*
X1410000D02*
D03*
X1419000Y1445000D02*
D03*
X1410000D02*
D03*
X1401000Y1454000D02*
D03*
Y1445000D02*
D03*
X1218500Y1475000D02*
D03*
X1234000D02*
D03*
X1241000Y1283000D02*
D03*
X1232000Y1274000D02*
D03*
Y1283000D02*
D03*
X1270000Y1243250D02*
D03*
X1241000Y1274000D02*
D03*
X1232000Y1265000D02*
D03*
X1241000D02*
D03*
X1223000Y1283000D02*
D03*
Y1265000D02*
D03*
Y1274000D02*
D03*
X1214000Y1283000D02*
D03*
Y1265000D02*
D03*
Y1274000D02*
D03*
X1187500Y1475000D02*
D03*
X1203000D02*
D03*
X1144750Y1366750D02*
D03*
X1089000Y1453000D02*
D03*
X1120000Y1395250D02*
D03*
X1050333Y1453000D02*
D03*
X1031000D02*
D03*
X1069667D02*
D03*
X1103750Y1368000D02*
D03*
X1205000Y1283000D02*
D03*
Y1265000D02*
D03*
Y1274000D02*
D03*
X1085000Y1318000D02*
D03*
X1102950Y1283050D02*
D03*
X1078000Y1200000D02*
D03*
X1075500Y1169500D02*
D03*
X1059500Y1158000D02*
D03*
X1010250Y1394250D02*
D03*
X1027250Y1366250D02*
D03*
X1009750Y1339500D02*
D03*
X994500Y1366250D02*
D03*
X1009000Y1291000D02*
D03*
X928000Y1450000D02*
D03*
X939000D02*
D03*
X916000D02*
D03*
X962000Y1291000D02*
D03*
X978000D02*
D03*
X994000D02*
D03*
X864000Y1217000D02*
D03*
X860000Y1349000D02*
D03*
X846000D02*
D03*
X831000D02*
D03*
M02*
