M48
;Layer_Color=9474304
;FILE_FORMAT=4:4
METRIC,LZ
;TYPE=PLATED
T01F00S00C0.3000
T02F00S00C0.4000
T03F00S00C1.0000
T04F00S00C1.3000
T05F00S00C1.8000
;TYPE=NON_PLATED
T06F00S00C3.2000
%
T01
X007895Y008685
X00767Y00925
Y0094
X00769Y01031
X00767Y01075
X00810519Y01096841
X00813Y01173
X00873Y01161
X00888Y01184
X00907Y01172
X009225Y011725
X00918Y01182
X0092Y01144
X0093Y01145
X0091Y01146
X00891Y01134
X00907Y01087
X00940519Y01096841
X00933005Y0102875
X0091175Y0102975
X00886Y0106
X0086Y01055
X00835Y01033061
X00803Y01
Y00985
X00802Y0097
X008125Y009415
X0081095Y0092595
X0083Y00948
X00898Y00939
X00884Y00974
X00876Y00994
X00868Y00997
X00933Y00976
X00941Y00926
X00956Y00938
X00972Y00939
X00985Y00938
X0102Y00955
X0101975Y00919
X01037Y00916
X01071Y00926
X01086101Y0094
X01066Y00954
X01064Y01007
X01074Y01046
X0108Y01055
X01083Y01066
X01077Y01099
X01065
X01042Y01086
X01016Y01065
Y0105
Y0104
X0101Y01016
X01002
X00987Y01019
X00996Y0103
X0101Y00985
X01128Y00997
X01174908Y01008908
X01167Y01086
X011905Y011685
X01133Y01161
X01111Y01173
X0105625Y01137
X01018Y01156
X0101375Y0117775
X01002Y01169
X00994
X00998Y00865
Y00845
X01128
Y00865
X01167Y00914
X00868Y00865
Y00845
X01258
Y00865
X01201Y00926
X01192Y0097
X01193Y00985
Y01
X01258Y00997
X01200519Y01096841
X0121325Y0118225
X01263Y01161
X01253Y01299
Y01374
X01195Y01411
Y01423
X01203Y01439
X0119495Y0133095
X01311Y01414
X0131Y014945
X0128925
X01385Y01494
X01433Y01422
X01179Y01398
X01161Y01368
X0114Y01344
X01141Y01331
X0111825Y0131775
X01174Y01297
X01164Y01214
X0114Y01213
X01128Y01195
X01034Y01213
X00987Y0123
X00975Y01207
X0096
X00948Y01209
X00938
X00923Y01242
X00934Y01263
X00911Y01263
X00885Y01264
Y01256
X0086975Y0124375
X00834Y01242
X00818Y01226
Y01216
X00842
X008405Y012065
X00799Y01194
X00806Y01238
X00830025Y01319975
X00862Y01293
X00928Y0129
X00953Y01298
X0093725Y013488
X00933Y01357
X0092775Y013725
X00885Y01388
X0086Y01393
X0084125Y0140375
X0091675Y01485
X0104Y01333
X0113575Y0141725
X01155Y01429
T02
X010595Y01158
X010755Y011695
X01205Y01265
X01214
X01223
X01232
Y01274
Y01283
X01241
Y01274
Y01265
X01223Y01274
Y01283
X01214
Y01274
X01205
Y01283
X0127Y0124325
X01234Y01475
X012185
X01203
X01401Y01472
X0141
Y01481
X01401
X01419
Y01472
Y01463
Y01454
X0141
Y01463
X01401
Y01454
Y01445
X0141
X01419
X011875Y01475
X01089Y01453
X01069667
X01050333
X01031
X0101025Y0139425
X009945Y0136625
X0102725
X0100975Y013395
X00975001Y01340001
X00965001
X00955001
X00960001Y01330001
X00970001
X00980001
X00978Y01291
X00962
X00994
X01009
X01010001Y01250001
X01020001
X01030001
X01040001
X01045001Y01260001
X01035001
X01025001
X01030001Y01270001
X00975001Y01260001
X00965001
X00920001Y01330001
X00910001
X0086Y01349
X00846
X00831
X00879Y0143
Y01439
X00888
Y0143
Y01448
X00879
X00916Y0145
X00928
X00939
X0112Y0139525
X0110375Y01368
X0114475Y0136675
X01085Y01318
X0110295Y0128305
X01078Y012
X00864Y01217
T03
X01315Y00785
X0134
X01135
X0111
X01005
X0098
X00875Y0078475
X0085
X0078Y011
Y011254
Y011508
Y011762
X013011Y010269
X013265
X013519Y010015
Y009761
X013265
X013011Y010015
X014281Y011285
Y011539
X014535
Y011031
X014789
Y011285
X014535Y012061
X014281
Y012315
X014535Y012569
X014789
Y012315
X013265Y013331
X013011
Y013585
X013519
Y013839
X013265
X01165Y0125025
X0114
X00785Y01275
Y013
X0078Y01227
Y012016
T04
X014789Y009761
X013011Y011539
Y012061
X014789Y013839
T05
X0079Y01355
Y01405
T06
X01465Y00785
X00785
X01465Y01465
X00785
M30
