G04*
G04 #@! TF.GenerationSoftware,Altium Limited,Altium Designer,25.8.1 (18)*
G04*
G04 Layer_Color=8421504*
%FSLAX44Y44*%
%MOMM*%
G71*
G04*
G04 #@! TF.SameCoordinates,46F575A0-C790-4288-9651-3E30E3B10091*
G04*
G04*
G04 #@! TF.FilePolarity,Positive*
G04*
G01*
G75*
%ADD16R,1.5000X2.1200*%
G04:AMPARAMS|DCode=17|XSize=1.9mm|YSize=3.37mm|CornerRadius=0.0665mm|HoleSize=0mm|Usage=FLASHONLY|Rotation=0.000|XOffset=0mm|YOffset=0mm|HoleType=Round|Shape=RoundedRectangle|*
%AMROUNDEDRECTD17*
21,1,1.9000,3.2370,0,0,0.0*
21,1,1.7670,3.3700,0,0,0.0*
1,1,0.1330,0.8835,-1.6185*
1,1,0.1330,-0.8835,-1.6185*
1,1,0.1330,-0.8835,1.6185*
1,1,0.1330,0.8835,1.6185*
%
%ADD17ROUNDEDRECTD17*%
%ADD18R,0.9000X1.0500*%
%ADD19R,0.7620X0.7620*%
%ADD20R,2.7062X0.9542*%
%ADD21R,1.0500X0.9000*%
%ADD22R,0.9542X2.7062*%
%ADD23R,0.8000X0.9500*%
%ADD24R,0.6450X0.9000*%
%ADD25R,1.4000X2.0000*%
%ADD26O,1.4500X0.3000*%
%ADD27O,0.3000X1.4500*%
%ADD28R,0.9000X2.1500*%
%ADD29R,0.9500X0.8000*%
%ADD30R,1.0000X1.1000*%
%ADD31R,2.0000X1.4000*%
%ADD32R,1.4000X1.5000*%
%ADD33R,1.5000X1.4000*%
%ADD34R,1.9000X4.4000*%
%ADD35R,1.2000X0.6000*%
%ADD36R,1.4000X1.2000*%
%ADD37R,2.0000X4.5000*%
%ADD38R,3.2500X2.1500*%
%ADD39R,1.4500X0.6000*%
%ADD40R,1.1100X1.7300*%
G36*
X1221900Y1312250D02*
X1206200D01*
Y1324600D01*
X1221900D01*
Y1312250D01*
D02*
G37*
G36*
X1221150Y1296200D02*
X1216150D01*
Y1301200D01*
X1221150D01*
Y1296200D01*
D02*
G37*
G36*
X1208450D02*
X1203450D01*
Y1301200D01*
X1208450D01*
Y1296200D01*
D02*
G37*
G36*
X1233850Y1301200D02*
Y1296200D01*
X1228850D01*
Y1301200D01*
X1233850D01*
D02*
G37*
G36*
X1246550D02*
Y1296200D01*
X1241550D01*
Y1301200D01*
X1246550D01*
D02*
G37*
G36*
X1243800Y1324600D02*
Y1312250D01*
X1228100D01*
Y1324600D01*
X1243800D01*
D02*
G37*
G36*
X1221150Y1351600D02*
X1216150D01*
Y1356600D01*
X1221150D01*
Y1351600D01*
D02*
G37*
G36*
X1208450D02*
X1203450D01*
Y1356600D01*
X1208450D01*
Y1351600D01*
D02*
G37*
G36*
X1221900Y1329600D02*
X1206200D01*
Y1345450D01*
X1221900D01*
Y1329600D01*
D02*
G37*
G36*
X1246550Y1351600D02*
X1241550D01*
Y1356600D01*
X1246550D01*
Y1351600D01*
D02*
G37*
G36*
X1233850D02*
X1228850D01*
Y1356600D01*
X1233850D01*
Y1351600D01*
D02*
G37*
G36*
X1245550Y1330870D02*
X1229850D01*
Y1346720D01*
X1245550D01*
Y1330870D01*
D02*
G37*
G36*
X1208450Y1376200D02*
Y1371200D01*
X1203450D01*
Y1376200D01*
X1208450D01*
D02*
G37*
G36*
X1221150D02*
Y1371200D01*
X1216150D01*
Y1376200D01*
X1221150D01*
D02*
G37*
G36*
X1221900Y1399600D02*
Y1387250D01*
X1206200D01*
Y1399600D01*
X1221900D01*
D02*
G37*
G36*
X1233850Y1376200D02*
Y1371200D01*
X1228850D01*
Y1376200D01*
X1233850D01*
D02*
G37*
G36*
X1246550D02*
Y1371200D01*
X1241550D01*
Y1376200D01*
X1246550D01*
D02*
G37*
G36*
X1243800Y1399600D02*
Y1387250D01*
X1228100D01*
Y1399600D01*
X1243800D01*
D02*
G37*
G36*
X1221150Y1426600D02*
X1216150D01*
Y1431600D01*
X1221150D01*
Y1426600D01*
D02*
G37*
G36*
X1208450D02*
X1203450D01*
Y1431600D01*
X1208450D01*
Y1426600D01*
D02*
G37*
G36*
X1221900Y1404600D02*
X1206200D01*
Y1420450D01*
X1221900D01*
Y1404600D01*
D02*
G37*
G36*
X1246550Y1426600D02*
X1241550D01*
Y1431600D01*
X1246550D01*
Y1426600D01*
D02*
G37*
G36*
X1233850D02*
X1228850D01*
Y1431600D01*
X1233850D01*
Y1426600D01*
D02*
G37*
G36*
X1245550Y1405870D02*
X1229850D01*
Y1421720D01*
X1245550D01*
Y1405870D01*
D02*
G37*
G36*
X1253400Y1448450D02*
X1258400D01*
Y1443450D01*
X1253400D01*
Y1448450D01*
D02*
G37*
G36*
Y1461150D02*
X1258400D01*
Y1456150D01*
X1253400D01*
Y1461150D01*
D02*
G37*
G36*
X1264550Y1461900D02*
X1280400D01*
Y1446200D01*
X1264550D01*
Y1461900D01*
D02*
G37*
G36*
X1253400Y1473850D02*
X1258400D01*
Y1468850D01*
X1253400D01*
Y1473850D01*
D02*
G37*
G36*
Y1486550D02*
X1258400D01*
Y1481550D01*
X1253400D01*
Y1486550D01*
D02*
G37*
G36*
X1263280Y1485550D02*
X1279130D01*
Y1469850D01*
X1263280D01*
Y1485550D01*
D02*
G37*
G36*
X1313800Y1456150D02*
X1308800D01*
Y1461150D01*
X1313800D01*
Y1456150D01*
D02*
G37*
G36*
X1297750Y1446200D02*
X1285400D01*
Y1461900D01*
X1297750D01*
Y1446200D01*
D02*
G37*
G36*
X1313800Y1443450D02*
X1308800D01*
Y1448450D01*
X1313800D01*
Y1443450D01*
D02*
G37*
G36*
Y1481550D02*
X1308800D01*
Y1486550D01*
X1313800D01*
Y1481550D01*
D02*
G37*
G36*
Y1468850D02*
X1308800D01*
Y1473850D01*
X1313800D01*
Y1468850D01*
D02*
G37*
G36*
X1297750Y1468100D02*
X1285400D01*
Y1483800D01*
X1297750D01*
Y1468100D01*
D02*
G37*
G36*
X1328025Y1448450D02*
X1333025D01*
Y1443450D01*
X1328025D01*
Y1448450D01*
D02*
G37*
G36*
Y1461150D02*
X1333025D01*
Y1456150D01*
X1328025D01*
Y1461150D01*
D02*
G37*
G36*
X1339175Y1461900D02*
X1355025D01*
Y1446200D01*
X1339175D01*
Y1461900D01*
D02*
G37*
G36*
X1328025Y1473850D02*
X1333025D01*
Y1468850D01*
X1328025D01*
Y1473850D01*
D02*
G37*
G36*
Y1486550D02*
X1333025D01*
Y1481550D01*
X1328025D01*
Y1486550D01*
D02*
G37*
G36*
X1337905Y1485550D02*
X1353755D01*
Y1469850D01*
X1337905D01*
Y1485550D01*
D02*
G37*
G36*
X1388425Y1456150D02*
X1383425D01*
Y1461150D01*
X1388425D01*
Y1456150D01*
D02*
G37*
G36*
X1372375Y1446200D02*
X1360025D01*
Y1461900D01*
X1372375D01*
Y1446200D01*
D02*
G37*
G36*
X1388425Y1443450D02*
X1383425D01*
Y1448450D01*
X1388425D01*
Y1443450D01*
D02*
G37*
G36*
Y1481550D02*
X1383425D01*
Y1486550D01*
X1388425D01*
Y1481550D01*
D02*
G37*
G36*
Y1468850D02*
X1383425D01*
Y1473850D01*
X1388425D01*
Y1468850D01*
D02*
G37*
G36*
X1372375Y1468100D02*
X1360025D01*
Y1483800D01*
X1372375D01*
Y1468100D01*
D02*
G37*
D16*
X1385000Y798850D02*
D03*
Y841150D02*
D03*
X1420000D02*
D03*
Y798850D02*
D03*
D17*
X1461600Y885000D02*
D03*
X1408400D02*
D03*
Y925000D02*
D03*
X1381600Y885000D02*
D03*
Y925000D02*
D03*
X1461600D02*
D03*
X1328400Y885000D02*
D03*
Y925000D02*
D03*
D18*
X1065500Y995000D02*
D03*
X1035500Y930000D02*
D03*
X892000Y1175000D02*
D03*
X873000Y962000D02*
D03*
X830000D02*
D03*
X1019500Y930000D02*
D03*
X1065500Y965000D02*
D03*
Y980000D02*
D03*
X895000Y1329000D02*
D03*
X879000D02*
D03*
X876000Y1175000D02*
D03*
X857000Y962000D02*
D03*
X814000D02*
D03*
X1049500Y965000D02*
D03*
Y980000D02*
D03*
Y995000D02*
D03*
X1386000Y1422000D02*
D03*
X1370000D02*
D03*
D19*
X1037000Y966250D02*
D03*
X1027475Y943390D02*
D03*
X1017950Y966250D02*
D03*
D20*
X1225000Y1486250D02*
D03*
X1195000D02*
D03*
X938000Y1279750D02*
D03*
X1000000D02*
D03*
X969000D02*
D03*
X846500Y1336250D02*
D03*
X1225000Y1453750D02*
D03*
X1195000D02*
D03*
X938000Y1312250D02*
D03*
X1000000D02*
D03*
X969000D02*
D03*
X846500Y1368750D02*
D03*
D21*
X1040000Y1323000D02*
D03*
X990000Y949500D02*
D03*
X1005000D02*
D03*
X972500D02*
D03*
X850000Y1026000D02*
D03*
X900000Y949500D02*
D03*
X915000Y965500D02*
D03*
X1050000Y1012000D02*
D03*
X1045000Y1137000D02*
D03*
X1270000Y1312000D02*
D03*
X1040000Y1307000D02*
D03*
X990000Y965500D02*
D03*
X1005000D02*
D03*
X972500D02*
D03*
X919000Y1358000D02*
D03*
Y1342000D02*
D03*
X850000Y1010000D02*
D03*
X900000Y965500D02*
D03*
X915000Y949500D02*
D03*
X1050000Y1028000D02*
D03*
X1045000Y1153000D02*
D03*
X1270000Y1296000D02*
D03*
D22*
X1097250Y1318000D02*
D03*
X1064750D02*
D03*
D23*
X918750Y1372500D02*
D03*
X1173750Y1326000D02*
D03*
X904250Y1372500D02*
D03*
X961250Y1218000D02*
D03*
X946750D02*
D03*
X961250Y1231000D02*
D03*
X946750D02*
D03*
X872250Y977000D02*
D03*
X857750D02*
D03*
X829250D02*
D03*
X814750D02*
D03*
X1066250Y1046000D02*
D03*
X1051750D02*
D03*
X1066250Y1061000D02*
D03*
X1051750D02*
D03*
X1066250Y1076000D02*
D03*
X1051750D02*
D03*
X1066250Y1091000D02*
D03*
X1051750D02*
D03*
X1159250Y1326000D02*
D03*
D24*
X869500Y1346000D02*
D03*
X879000Y1369000D02*
D03*
X888500D02*
D03*
Y1346000D02*
D03*
X879000D02*
D03*
X869500Y1369000D02*
D03*
D25*
X864000Y1201000D02*
D03*
X1078000Y1185000D02*
D03*
X900000Y1201000D02*
D03*
X1042000Y1185000D02*
D03*
D26*
X1027250Y1135000D02*
D03*
Y1020000D02*
D03*
X872750Y1025000D02*
D03*
X1027250Y1125000D02*
D03*
Y1130000D02*
D03*
Y1115000D02*
D03*
Y1120000D02*
D03*
Y1140000D02*
D03*
Y1090000D02*
D03*
Y1095000D02*
D03*
Y1080000D02*
D03*
Y1085000D02*
D03*
Y1105000D02*
D03*
Y1110000D02*
D03*
Y1100000D02*
D03*
Y1065000D02*
D03*
Y1070000D02*
D03*
Y1055000D02*
D03*
Y1060000D02*
D03*
Y1075000D02*
D03*
Y1030000D02*
D03*
Y1035000D02*
D03*
Y1025000D02*
D03*
Y1045000D02*
D03*
Y1050000D02*
D03*
Y1040000D02*
D03*
X872750Y1070000D02*
D03*
Y1065000D02*
D03*
Y1120000D02*
D03*
Y1125000D02*
D03*
Y1110000D02*
D03*
Y1115000D02*
D03*
Y1135000D02*
D03*
Y1140000D02*
D03*
Y1130000D02*
D03*
Y1085000D02*
D03*
Y1090000D02*
D03*
Y1075000D02*
D03*
Y1080000D02*
D03*
Y1100000D02*
D03*
Y1105000D02*
D03*
Y1095000D02*
D03*
Y1040000D02*
D03*
Y1045000D02*
D03*
Y1055000D02*
D03*
Y1060000D02*
D03*
Y1050000D02*
D03*
Y1020000D02*
D03*
Y1030000D02*
D03*
Y1035000D02*
D03*
D27*
X980000Y1002750D02*
D03*
X895000Y1157250D02*
D03*
X935000Y1002750D02*
D03*
X1010000Y1157250D02*
D03*
X1005000D02*
D03*
X965000D02*
D03*
X960000D02*
D03*
X975000D02*
D03*
X970000D02*
D03*
X950000D02*
D03*
X945000D02*
D03*
X955000D02*
D03*
X990000D02*
D03*
X985000D02*
D03*
X1000000D02*
D03*
X995000D02*
D03*
X980000D02*
D03*
X965000Y1002750D02*
D03*
X960000D02*
D03*
X975000D02*
D03*
X970000D02*
D03*
X950000D02*
D03*
X945000D02*
D03*
X955000D02*
D03*
X1000000D02*
D03*
X995000D02*
D03*
X1010000D02*
D03*
X1005000D02*
D03*
X985000D02*
D03*
X990000D02*
D03*
X915000Y1157250D02*
D03*
X910000D02*
D03*
X925000D02*
D03*
X920000D02*
D03*
X890000D02*
D03*
X905000D02*
D03*
X900000D02*
D03*
X935000D02*
D03*
X930000D02*
D03*
X940000D02*
D03*
X895000Y1002750D02*
D03*
X905000D02*
D03*
X900000D02*
D03*
X930000D02*
D03*
X925000D02*
D03*
X940000D02*
D03*
X915000D02*
D03*
X910000D02*
D03*
X920000D02*
D03*
X890000D02*
D03*
D28*
X1088000Y1284250D02*
D03*
X1042000D02*
D03*
X1065000D02*
D03*
D29*
X780000Y1077250D02*
D03*
Y1031250D02*
D03*
X850000Y1055250D02*
D03*
X1190500Y1159250D02*
D03*
X917000Y1476250D02*
D03*
X904000Y1357250D02*
D03*
Y1342750D02*
D03*
X930000Y1199250D02*
D03*
Y1184750D02*
D03*
X945000Y1199250D02*
D03*
Y1184750D02*
D03*
X960000Y1199250D02*
D03*
Y1184750D02*
D03*
X975000Y1199250D02*
D03*
Y1184750D02*
D03*
X780000Y1062750D02*
D03*
Y1045750D02*
D03*
X850000Y1040750D02*
D03*
X1190500Y1144750D02*
D03*
X917000Y1461750D02*
D03*
D30*
X800000Y868500D02*
D03*
X855000D02*
D03*
X800000Y941500D02*
D03*
X855000D02*
D03*
D31*
X1075000Y1158000D02*
D03*
Y1122000D02*
D03*
D32*
X1421000Y1422000D02*
D03*
X800000Y1045000D02*
D03*
X820000D02*
D03*
X800000Y1065000D02*
D03*
X820000D02*
D03*
X1156500Y1346000D02*
D03*
X1176500D02*
D03*
X1401000Y1422000D02*
D03*
D33*
X1270000Y1259000D02*
D03*
X1173000Y1162000D02*
D03*
Y1142000D02*
D03*
X1270000Y1279000D02*
D03*
D34*
X1120000Y1366500D02*
D03*
X1010000D02*
D03*
X1120000Y1453500D02*
D03*
X1010000D02*
D03*
D35*
X1140500Y1196000D02*
D03*
Y1205500D02*
D03*
X1163500D02*
D03*
Y1196000D02*
D03*
Y1186500D02*
D03*
X1140500D02*
D03*
D36*
X956000Y949000D02*
D03*
X934000Y966000D02*
D03*
Y949000D02*
D03*
X956000Y966000D02*
D03*
D37*
X907000Y1296000D02*
D03*
X877000D02*
D03*
D38*
X1065000Y1225750D02*
D03*
D39*
X902250Y1437600D02*
D03*
Y1450300D02*
D03*
Y1424900D02*
D03*
Y1412200D02*
D03*
X847750Y1424900D02*
D03*
Y1450300D02*
D03*
Y1437600D02*
D03*
Y1412200D02*
D03*
D40*
X901051Y1466001D02*
D03*
X866951D02*
D03*
M02*
