G04*
G04 #@! TF.GenerationSoftware,Altium Limited,Altium Designer,25.8.1 (18)*
G04*
G04 Layer_Physical_Order=2*
G04 Layer_Color=36540*
%FSLAX44Y44*%
%MOMM*%
G71*
G04*
G04 #@! TF.SameCoordinates,46F575A0-C790-4288-9651-3E30E3B10091*
G04*
G04*
G04 #@! TF.FilePolarity,Positive*
G04*
G01*
G75*
%ADD10C,0.2000*%
%ADD12C,0.2500*%
%ADD72C,1.6000*%
%ADD76R,1.6000X1.6000*%
%ADD77R,1.6000X1.6000*%
%ADD89C,0.3000*%
%ADD91C,1.8000*%
%ADD92C,2.7000*%
%ADD96C,0.6000*%
%ADD97C,0.8000*%
G36*
X1453589Y1495451D02*
X1450200Y1494047D01*
X1445838Y1491374D01*
X1441948Y1488052D01*
X1438626Y1484162D01*
X1435953Y1479800D01*
X1433995Y1475074D01*
X1432801Y1470100D01*
X1432399Y1465000D01*
X1432801Y1459900D01*
X1433995Y1454926D01*
X1435953Y1450200D01*
X1438626Y1445838D01*
X1441948Y1441948D01*
X1445838Y1438626D01*
X1450200Y1435953D01*
X1454926Y1433995D01*
X1459900Y1432801D01*
X1465000Y1432399D01*
X1470100Y1432801D01*
X1475074Y1433995D01*
X1479800Y1435953D01*
X1484162Y1438626D01*
X1488052Y1441948D01*
X1491374Y1445838D01*
X1494047Y1450200D01*
X1495451Y1453589D01*
X1497451Y1453191D01*
Y1316000D01*
X1279000D01*
Y1315000D01*
Y752549D01*
X796809D01*
X796411Y754549D01*
X799800Y755953D01*
X804162Y758626D01*
X808052Y761948D01*
X811374Y765838D01*
X814047Y770200D01*
X816005Y774926D01*
X817199Y779900D01*
X817600Y785000D01*
X817199Y790100D01*
X816005Y795074D01*
X814047Y799800D01*
X811374Y804162D01*
X808052Y808052D01*
X804162Y811374D01*
X799800Y814047D01*
X795074Y816005D01*
X790100Y817199D01*
X785000Y817600D01*
X779900Y817199D01*
X774926Y816005D01*
X770200Y814047D01*
X765838Y811374D01*
X761948Y808052D01*
X758626Y804162D01*
X755953Y799800D01*
X754549Y796411D01*
X752549Y796809D01*
Y1120662D01*
X754549Y1121269D01*
X754837Y1120837D01*
X767776Y1107898D01*
X767842Y1107819D01*
X768019Y1107519D01*
X768213Y1107071D01*
X768402Y1106475D01*
X768574Y1105737D01*
X768713Y1104908D01*
X768956Y1101444D01*
X768961Y1100090D01*
X768961Y1100090D01*
X768961Y1100090D01*
X768961Y1100083D01*
X769000Y1099892D01*
Y1098552D01*
X769750Y1095754D01*
X771198Y1093246D01*
X773246Y1091198D01*
X775754Y1089750D01*
X778552Y1089000D01*
X781448D01*
X784246Y1089750D01*
X786754Y1091198D01*
X788802Y1093246D01*
X790250Y1095754D01*
X791000Y1098552D01*
Y1100761D01*
X863913D01*
X929712Y1034962D01*
X929818Y1034507D01*
X929705Y1032520D01*
X928767Y1031582D01*
X928006Y1029744D01*
Y1028940D01*
X927967Y1028767D01*
X927962Y1028536D01*
X927948Y1028391D01*
X927926Y1028263D01*
X927898Y1028152D01*
X927865Y1028052D01*
X927825Y1027962D01*
X927780Y1027877D01*
X927727Y1027798D01*
X899988Y1000059D01*
X876000D01*
X874829Y999826D01*
X873837Y999163D01*
X873240Y998269D01*
X873168Y998239D01*
X871761Y996832D01*
X871000Y994995D01*
Y993006D01*
X871761Y991168D01*
X873168Y989761D01*
X875005Y989000D01*
X876995D01*
X878832Y989761D01*
X880239Y991168D01*
X881000Y993006D01*
Y993941D01*
X901255D01*
X901256Y993941D01*
X902426Y994174D01*
X903418Y994837D01*
X932053Y1023472D01*
X932133Y1023524D01*
X932217Y1023570D01*
X932307Y1023609D01*
X932407Y1023643D01*
X932519Y1023671D01*
X932646Y1023692D01*
X932792Y1023706D01*
X933023Y1023711D01*
X933195Y1023750D01*
X934000D01*
X935838Y1024511D01*
X937244Y1025918D01*
X938005Y1027755D01*
Y1029744D01*
X937244Y1031582D01*
X936885Y1031941D01*
X937714Y1033941D01*
X959248D01*
X978837Y1014352D01*
X978837Y1014352D01*
X982352Y1010837D01*
X982352Y1010837D01*
X983344Y1010174D01*
X984515Y1009941D01*
X984515Y1009941D01*
X995248D01*
X997352Y1007837D01*
X997352Y1007837D01*
X998344Y1007174D01*
X999515Y1006941D01*
X999515Y1006941D01*
X1004485D01*
X1004485Y1006941D01*
X1005656Y1007174D01*
X1006648Y1007837D01*
X1009412Y1010601D01*
X1009510Y1010669D01*
X1009617Y1010731D01*
X1009735Y1010789D01*
X1009863Y1010841D01*
X1010005Y1010888D01*
X1010162Y1010928D01*
X1010336Y1010962D01*
X1010583Y1010995D01*
X1010597Y1011000D01*
X1010995D01*
X1012832Y1011761D01*
X1014239Y1013168D01*
X1015000Y1015005D01*
Y1016995D01*
X1014239Y1018832D01*
X1012832Y1020239D01*
X1010995Y1021000D01*
X1009005D01*
X1007168Y1020239D01*
X1006000Y1019071D01*
X1004832Y1020239D01*
X1002995Y1021000D01*
X1001527D01*
X1001452Y1021008D01*
X1001355Y1021000D01*
X1001025D01*
X1000964Y1021011D01*
X1000899Y1021029D01*
X1000839Y1021052D01*
X1000780Y1021082D01*
X1000722Y1021119D01*
X998416Y1023424D01*
X998831Y1025755D01*
X998870Y1025799D01*
X1000239Y1027168D01*
X1001000Y1029005D01*
Y1030995D01*
X1000239Y1032832D01*
X999670Y1033401D01*
X999575Y1033550D01*
X999415Y1033718D01*
X999322Y1033830D01*
X999247Y1033935D01*
X999188Y1034034D01*
X999142Y1034128D01*
X999106Y1034220D01*
X999078Y1034312D01*
X999059Y1034406D01*
Y1072000D01*
X999059Y1072000D01*
X998826Y1073170D01*
X998163Y1074163D01*
X998163Y1074163D01*
X953163Y1119163D01*
X952170Y1119826D01*
X951000Y1120059D01*
X951000Y1120059D01*
X885267D01*
X830163Y1175163D01*
X829171Y1175826D01*
X828000Y1176059D01*
X828000Y1176059D01*
X817405D01*
X817312Y1176078D01*
X817220Y1176105D01*
X817129Y1176142D01*
X817035Y1176188D01*
X816935Y1176247D01*
X816830Y1176322D01*
X816718Y1176415D01*
X816550Y1176575D01*
X816401Y1176670D01*
X815832Y1177239D01*
X813995Y1178000D01*
X812005D01*
X810168Y1177239D01*
X808761Y1175832D01*
X808000Y1173995D01*
Y1172005D01*
X808761Y1170168D01*
X810168Y1168761D01*
X812005Y1168000D01*
X813995D01*
X815832Y1168761D01*
X816401Y1169330D01*
X816550Y1169425D01*
X816718Y1169585D01*
X816830Y1169678D01*
X816935Y1169753D01*
X817034Y1169812D01*
X817129Y1169858D01*
X817220Y1169894D01*
X817312Y1169922D01*
X817405Y1169941D01*
X826733D01*
X881837Y1114837D01*
X881837Y1114837D01*
X882830Y1114174D01*
X884000Y1113941D01*
X884000Y1113941D01*
X949733D01*
X992941Y1070733D01*
Y1034406D01*
X992922Y1034312D01*
X992894Y1034220D01*
X992858Y1034128D01*
X992812Y1034035D01*
X992753Y1033935D01*
X992678Y1033830D01*
X992585Y1033718D01*
X992425Y1033550D01*
X992330Y1033401D01*
X991761Y1032832D01*
X989424Y1032416D01*
X969678Y1052163D01*
X969678Y1052163D01*
X968685Y1052826D01*
X967515Y1053059D01*
X967514Y1053059D01*
X931267D01*
X856763Y1127563D01*
X855770Y1128226D01*
X854600Y1128459D01*
X854600Y1128459D01*
X794229D01*
X794126Y1128468D01*
X793789Y1128555D01*
X793335Y1128735D01*
X792779Y1129022D01*
X792136Y1129422D01*
X791451Y1129911D01*
X788830Y1132188D01*
X787864Y1133147D01*
X787701Y1133255D01*
X786754Y1134202D01*
X784246Y1135650D01*
X781448Y1136400D01*
X780108D01*
X779917Y1136439D01*
X778520Y1136444D01*
X777289Y1136486D01*
X775113Y1136684D01*
X774262Y1136826D01*
X773525Y1136998D01*
X772929Y1137188D01*
X772481Y1137381D01*
X772181Y1137558D01*
X772102Y1137624D01*
X767059Y1142667D01*
Y1149210D01*
X769000Y1149352D01*
X769750Y1146554D01*
X771198Y1144046D01*
X773246Y1141998D01*
X775754Y1140550D01*
X778552Y1139800D01*
X779000D01*
Y1150800D01*
Y1161800D01*
X778552D01*
X775754Y1161050D01*
X773246Y1159602D01*
X771198Y1157554D01*
X769750Y1155046D01*
X769000Y1152248D01*
X767059Y1152390D01*
Y1174610D01*
X769000Y1174752D01*
X769750Y1171954D01*
X771198Y1169446D01*
X773246Y1167398D01*
X775754Y1165950D01*
X778552Y1165200D01*
X781448D01*
X784246Y1165950D01*
X786754Y1167398D01*
X788802Y1169446D01*
X790250Y1171954D01*
X791000Y1174752D01*
Y1176092D01*
X791039Y1176283D01*
X791044Y1177680D01*
X791086Y1178911D01*
X791284Y1181087D01*
X791426Y1181938D01*
X791598Y1182675D01*
X791787Y1183271D01*
X791981Y1183719D01*
X792158Y1184019D01*
X792224Y1184098D01*
X794876Y1186750D01*
X795231Y1186987D01*
X797368Y1189124D01*
X797399Y1189143D01*
X797425Y1189156D01*
X797442Y1189161D01*
X797457Y1189164D01*
X797479Y1189166D01*
X797518Y1189166D01*
X797579Y1189158D01*
X797678Y1189136D01*
X798005Y1189000D01*
X799995D01*
X801832Y1189761D01*
X802401Y1190330D01*
X802550Y1190425D01*
X802718Y1190585D01*
X802830Y1190678D01*
X802935Y1190753D01*
X803034Y1190812D01*
X803129Y1190858D01*
X803220Y1190894D01*
X803312Y1190922D01*
X803406Y1190941D01*
X829733D01*
X885722Y1134952D01*
X885774Y1134873D01*
X885820Y1134788D01*
X885859Y1134698D01*
X885893Y1134598D01*
X885921Y1134486D01*
X885943Y1134359D01*
X885956Y1134214D01*
X885962Y1133983D01*
X886000Y1133810D01*
Y1133005D01*
X886761Y1131168D01*
X888168Y1129761D01*
X890005Y1129000D01*
X891995D01*
X893832Y1129761D01*
X895239Y1131168D01*
X896000Y1133005D01*
Y1134995D01*
X895239Y1136832D01*
X893832Y1138239D01*
X891995Y1139000D01*
X891190D01*
X891017Y1139038D01*
X890786Y1139044D01*
X890641Y1139057D01*
X890514Y1139079D01*
X890402Y1139107D01*
X890302Y1139141D01*
X890212Y1139180D01*
X890127Y1139226D01*
X890048Y1139278D01*
X833163Y1196163D01*
X832597Y1196541D01*
X833018Y1198541D01*
X836234D01*
X864938Y1169837D01*
X865930Y1169174D01*
X867101Y1168941D01*
X867101Y1168941D01*
X902595D01*
X902688Y1168922D01*
X902780Y1168894D01*
X902871Y1168858D01*
X902965Y1168812D01*
X903065Y1168753D01*
X903170Y1168678D01*
X903282Y1168585D01*
X903450Y1168425D01*
X903599Y1168330D01*
X904168Y1167761D01*
X906005Y1167000D01*
X907995D01*
X909941Y1165641D01*
Y1160767D01*
X907837Y1158663D01*
X907174Y1157671D01*
X906941Y1156500D01*
X906941Y1156500D01*
Y1150406D01*
X906922Y1150312D01*
X906894Y1150220D01*
X906858Y1150129D01*
X906812Y1150034D01*
X906753Y1149935D01*
X906678Y1149830D01*
X906585Y1149718D01*
X906425Y1149550D01*
X906330Y1149401D01*
X905761Y1148832D01*
X905000Y1146995D01*
Y1145005D01*
X905761Y1143168D01*
X907168Y1141761D01*
X909005Y1141000D01*
X910994D01*
X912832Y1141761D01*
X913199Y1142128D01*
X915558Y1141658D01*
X915761Y1141168D01*
X917168Y1139761D01*
X919005Y1139000D01*
X920995D01*
X922832Y1139761D01*
X924193Y1141122D01*
X924266Y1141171D01*
X926508Y1141421D01*
X927168Y1140761D01*
X929005Y1140000D01*
X930995D01*
X932832Y1140761D01*
X934239Y1142168D01*
X935000Y1144005D01*
Y1145995D01*
X934239Y1147832D01*
X934151Y1147920D01*
X934035Y1148163D01*
X933976Y1148312D01*
X933921Y1148478D01*
X933878Y1148637D01*
X933846Y1148791D01*
X933836Y1148853D01*
X934663Y1149680D01*
X935326Y1150673D01*
X935559Y1151843D01*
X935559Y1151843D01*
Y1168802D01*
X937559Y1169630D01*
X1069352Y1037837D01*
X1069352Y1037837D01*
X1070344Y1037174D01*
X1070924Y1037059D01*
X1070727Y1035059D01*
X1050267D01*
X1021278Y1064048D01*
X1021226Y1064127D01*
X1021180Y1064212D01*
X1021141Y1064302D01*
X1021107Y1064402D01*
X1021079Y1064513D01*
X1021058Y1064641D01*
X1021044Y1064786D01*
X1021039Y1065017D01*
X1021000Y1065190D01*
Y1065994D01*
X1020239Y1067832D01*
X1018832Y1069239D01*
X1016995Y1070000D01*
X1015005D01*
X1013168Y1069239D01*
X1011761Y1067832D01*
X1011000Y1065994D01*
Y1064005D01*
X1011761Y1062168D01*
X1013168Y1060761D01*
X1015005Y1060000D01*
X1015810D01*
X1015983Y1059961D01*
X1016214Y1059956D01*
X1016359Y1059942D01*
X1016487Y1059921D01*
X1016598Y1059893D01*
X1016698Y1059859D01*
X1016788Y1059820D01*
X1016873Y1059774D01*
X1016952Y1059722D01*
X1046616Y1030059D01*
X1046472Y1029146D01*
X1045899Y1028059D01*
X1042267D01*
X1021278Y1049048D01*
X1021226Y1049127D01*
X1021180Y1049212D01*
X1021141Y1049302D01*
X1021107Y1049402D01*
X1021079Y1049513D01*
X1021058Y1049641D01*
X1021044Y1049786D01*
X1021039Y1050017D01*
X1021000Y1050190D01*
Y1050994D01*
X1020239Y1052832D01*
X1018832Y1054239D01*
X1016995Y1055000D01*
X1015005D01*
X1013168Y1054239D01*
X1011761Y1052832D01*
X1011000Y1050994D01*
Y1049005D01*
X1011761Y1047168D01*
X1012713Y1046215D01*
X1012993Y1045000D01*
X1012713Y1043784D01*
X1011761Y1042832D01*
X1011000Y1040994D01*
Y1039005D01*
X1011761Y1037168D01*
X1012330Y1036599D01*
X1012425Y1036450D01*
X1012585Y1036282D01*
X1012678Y1036170D01*
X1012753Y1036065D01*
X1012812Y1035966D01*
X1012859Y1035871D01*
X1012895Y1035780D01*
X1012922Y1035688D01*
X1012941Y1035594D01*
Y1031000D01*
X1012941Y1031000D01*
X1013174Y1029829D01*
X1013837Y1028837D01*
X1027837Y1014837D01*
X1027837Y1014837D01*
X1028829Y1014174D01*
X1030000Y1013941D01*
X1131000D01*
X1131000Y1013941D01*
X1132170Y1014174D01*
X1133163Y1014837D01*
X1182163Y1063837D01*
X1182163Y1063837D01*
X1182826Y1064829D01*
X1183059Y1066000D01*
Y1147733D01*
X1212298Y1176972D01*
X1212377Y1177024D01*
X1212462Y1177070D01*
X1212552Y1177109D01*
X1212652Y1177143D01*
X1212764Y1177171D01*
X1212891Y1177193D01*
X1213036Y1177206D01*
X1213267Y1177212D01*
X1213440Y1177250D01*
X1214245D01*
X1216082Y1178011D01*
X1217489Y1179418D01*
X1218250Y1181255D01*
Y1183245D01*
X1217489Y1185082D01*
X1216082Y1186489D01*
X1214245Y1187250D01*
X1212255D01*
X1210418Y1186489D01*
X1209011Y1185082D01*
X1208250Y1183245D01*
Y1182440D01*
X1208212Y1182267D01*
X1208206Y1182036D01*
X1208193Y1181891D01*
X1208171Y1181764D01*
X1208143Y1181652D01*
X1208109Y1181552D01*
X1208070Y1181462D01*
X1208024Y1181377D01*
X1207972Y1181298D01*
X1177837Y1151163D01*
X1177174Y1150171D01*
X1176941Y1149000D01*
X1176941Y1149000D01*
Y1067267D01*
X1129733Y1020059D01*
X1096788D01*
X1096591Y1022059D01*
X1097171Y1022174D01*
X1098163Y1022837D01*
X1113163Y1037837D01*
X1113163Y1037837D01*
X1113826Y1038829D01*
X1114059Y1040000D01*
X1114059Y1040000D01*
Y1168595D01*
X1114078Y1168688D01*
X1114106Y1168780D01*
X1114142Y1168872D01*
X1114188Y1168966D01*
X1114247Y1169065D01*
X1114322Y1169170D01*
X1114415Y1169282D01*
X1114575Y1169450D01*
X1114670Y1169599D01*
X1115239Y1170168D01*
X1116000Y1172005D01*
Y1173995D01*
X1115239Y1175832D01*
X1113832Y1177239D01*
X1111995Y1178000D01*
X1110005D01*
X1108168Y1177239D01*
X1106761Y1175832D01*
X1106000Y1173995D01*
Y1172005D01*
X1106761Y1170168D01*
X1107330Y1169599D01*
X1107425Y1169450D01*
X1107585Y1169282D01*
X1107678Y1169170D01*
X1107753Y1169065D01*
X1107812Y1168966D01*
X1107858Y1168871D01*
X1107894Y1168780D01*
X1107922Y1168688D01*
X1107941Y1168595D01*
Y1041267D01*
X1094733Y1028059D01*
X1088101D01*
X1087528Y1029146D01*
X1087384Y1030059D01*
X1099163Y1041837D01*
X1099163Y1041837D01*
X1099826Y1042829D01*
X1100059Y1044000D01*
Y1108000D01*
X1099826Y1109171D01*
X1099163Y1110163D01*
X1030639Y1178686D01*
X1031468Y1180686D01*
X1140399D01*
X1141668Y1180939D01*
X1142743Y1181657D01*
X1157093Y1196007D01*
X1157811Y1197083D01*
X1158064Y1198351D01*
Y1210197D01*
X1159955Y1210669D01*
X1160068Y1210644D01*
X1160158Y1210615D01*
X1160230Y1210587D01*
X1160285Y1210558D01*
X1160329Y1210531D01*
X1160366Y1210502D01*
X1160470Y1210406D01*
X1160608Y1210321D01*
X1161168Y1209761D01*
X1163005Y1209000D01*
X1164995D01*
X1166832Y1209761D01*
X1168239Y1211168D01*
X1169000Y1213005D01*
Y1214995D01*
X1168239Y1216832D01*
X1166832Y1218239D01*
X1164995Y1219000D01*
X1163005D01*
X1161168Y1218239D01*
X1160608Y1217680D01*
X1160470Y1217594D01*
X1160366Y1217497D01*
X1160329Y1217469D01*
X1160285Y1217441D01*
X1160230Y1217413D01*
X1160158Y1217384D01*
X1160068Y1217356D01*
X1159955Y1217330D01*
X1158064Y1217803D01*
Y1240186D01*
X1158250D01*
X1158570Y1240250D01*
X1175000D01*
Y1260250D01*
X1155000D01*
Y1248371D01*
X1153229Y1247651D01*
X1153000Y1247688D01*
X1152593Y1248297D01*
X1150880Y1250010D01*
X1150000Y1250598D01*
Y1251566D01*
X1149318Y1254110D01*
X1148002Y1256390D01*
X1146140Y1258252D01*
X1143860Y1259568D01*
X1141317Y1260250D01*
X1138683D01*
X1136140Y1259568D01*
X1133860Y1258252D01*
X1131998Y1256390D01*
X1130682Y1254110D01*
X1130000Y1251566D01*
Y1248933D01*
X1130682Y1246390D01*
X1131998Y1244110D01*
X1133860Y1242248D01*
X1136140Y1240931D01*
X1138683Y1240250D01*
X1141317D01*
X1143860Y1240931D01*
X1144936Y1241553D01*
X1146936Y1240398D01*
Y1217566D01*
X1146918Y1217462D01*
X1146913Y1217447D01*
X1146898Y1217442D01*
X1146793Y1217423D01*
X1143214D01*
X1142655Y1217312D01*
X1140995Y1218000D01*
X1139005D01*
X1137168Y1217239D01*
X1135761Y1215832D01*
X1135000Y1213995D01*
Y1212005D01*
X1135761Y1210168D01*
X1137168Y1208761D01*
X1139005Y1208000D01*
X1140995D01*
X1142832Y1208761D01*
X1144239Y1210168D01*
X1144499Y1210796D01*
X1146794D01*
X1146898Y1210778D01*
X1146913Y1210773D01*
X1146918Y1210757D01*
X1146936Y1210653D01*
Y1201587D01*
X1137163Y1191814D01*
X1006636D01*
X1005368Y1191561D01*
X1004293Y1190843D01*
X993407Y1179957D01*
X992689Y1178882D01*
X992436Y1177614D01*
Y1173764D01*
X991168Y1173239D01*
X989761Y1171832D01*
X987424Y1171416D01*
X978059Y1180782D01*
Y1202595D01*
X978078Y1202688D01*
X978106Y1202780D01*
X978142Y1202871D01*
X978188Y1202965D01*
X978247Y1203065D01*
X978322Y1203170D01*
X978415Y1203282D01*
X978563Y1203437D01*
X978718Y1203585D01*
X978830Y1203678D01*
X978935Y1203753D01*
X979034Y1203812D01*
X979128Y1203858D01*
X979220Y1203894D01*
X979312Y1203922D01*
X979406Y1203941D01*
X1017000D01*
X1017000Y1203941D01*
X1018170Y1204174D01*
X1019163Y1204837D01*
X1140048Y1325722D01*
X1140127Y1325774D01*
X1140212Y1325820D01*
X1140302Y1325859D01*
X1140402Y1325893D01*
X1140514Y1325921D01*
X1140641Y1325943D01*
X1140786Y1325956D01*
X1141017Y1325961D01*
X1141190Y1326000D01*
X1141995D01*
X1143832Y1326761D01*
X1145239Y1328168D01*
X1146000Y1330005D01*
Y1331995D01*
X1145239Y1333832D01*
X1143832Y1335239D01*
X1141995Y1336000D01*
X1140005D01*
X1138168Y1335239D01*
X1136761Y1333832D01*
X1136000Y1331995D01*
Y1331190D01*
X1135962Y1331017D01*
X1135956Y1330786D01*
X1135943Y1330641D01*
X1135921Y1330513D01*
X1135893Y1330402D01*
X1135859Y1330302D01*
X1135820Y1330212D01*
X1135774Y1330127D01*
X1135722Y1330048D01*
X1015733Y1210059D01*
X979406D01*
X979312Y1210078D01*
X979220Y1210106D01*
X979128Y1210142D01*
X979035Y1210188D01*
X978935Y1210247D01*
X978830Y1210322D01*
X978718Y1210415D01*
X978550Y1210575D01*
X978401Y1210670D01*
X977832Y1211239D01*
X975995Y1212000D01*
X974005D01*
X972168Y1211239D01*
X970761Y1209832D01*
X970000Y1207995D01*
Y1206005D01*
X970761Y1204168D01*
X971330Y1203599D01*
X971425Y1203450D01*
X971585Y1203282D01*
X971678Y1203170D01*
X971753Y1203065D01*
X971812Y1202966D01*
X971858Y1202871D01*
X971894Y1202780D01*
X971922Y1202688D01*
X971941Y1202595D01*
Y1179515D01*
X971941Y1179515D01*
X972174Y1178344D01*
X972837Y1177352D01*
X1035352Y1114837D01*
X1036344Y1114174D01*
X1037515Y1113941D01*
X1037515Y1113941D01*
X1066218D01*
X1079941Y1100218D01*
Y1070406D01*
X1079922Y1070312D01*
X1079894Y1070220D01*
X1079858Y1070128D01*
X1079812Y1070034D01*
X1079753Y1069935D01*
X1079678Y1069830D01*
X1079585Y1069718D01*
X1079425Y1069550D01*
X1079330Y1069401D01*
X1078761Y1068832D01*
X1078000Y1066995D01*
Y1065005D01*
X1078761Y1063168D01*
X1079929Y1062000D01*
X1079739Y1060875D01*
X1079316Y1060000D01*
X1079005D01*
X1077168Y1059239D01*
X1076059Y1058130D01*
X1074651Y1058426D01*
X1074059Y1058743D01*
Y1102000D01*
X1073826Y1103170D01*
X1073163Y1104163D01*
X1073163Y1104163D01*
X1068163Y1109163D01*
X1067170Y1109826D01*
X1066000Y1110059D01*
X1066000Y1110059D01*
X1032267D01*
X963059Y1179267D01*
Y1202595D01*
X963078Y1202688D01*
X963106Y1202780D01*
X963142Y1202871D01*
X963188Y1202965D01*
X963247Y1203065D01*
X963322Y1203170D01*
X963415Y1203282D01*
X963575Y1203450D01*
X963670Y1203599D01*
X964239Y1204168D01*
X965000Y1206005D01*
Y1207995D01*
X964239Y1209832D01*
X963670Y1210401D01*
X963575Y1210550D01*
X963415Y1210718D01*
X963322Y1210830D01*
X963247Y1210935D01*
X963188Y1211034D01*
X963142Y1211128D01*
X963106Y1211220D01*
X963078Y1211312D01*
X963059Y1211405D01*
Y1211733D01*
X1002001Y1250675D01*
X1004001Y1249846D01*
Y1248807D01*
X1004914Y1246602D01*
X1006602Y1244914D01*
X1008807Y1244001D01*
X1011194D01*
X1013399Y1244914D01*
X1015001Y1246515D01*
X1016602Y1244914D01*
X1018807Y1244001D01*
X1021194D01*
X1023399Y1244914D01*
X1025001Y1246515D01*
X1026602Y1244914D01*
X1028807Y1244001D01*
X1031194D01*
X1033399Y1244914D01*
X1035001Y1246515D01*
X1036602Y1244914D01*
X1038807Y1244001D01*
X1041194D01*
X1043399Y1244914D01*
X1045087Y1246602D01*
X1046001Y1248807D01*
Y1251194D01*
X1045667Y1252001D01*
X1046180Y1253946D01*
X1046744Y1254228D01*
X1048399Y1254914D01*
X1050087Y1256602D01*
X1051001Y1258807D01*
Y1261194D01*
X1050087Y1263399D01*
X1048399Y1265087D01*
X1046194Y1266001D01*
X1043807D01*
X1041602Y1265087D01*
X1040001Y1263486D01*
X1038399Y1265087D01*
X1036744Y1265773D01*
X1036180Y1266055D01*
X1035667Y1268001D01*
X1036001Y1268807D01*
Y1271194D01*
X1035087Y1273399D01*
X1033399Y1275087D01*
X1031194Y1276001D01*
X1030155D01*
X1029326Y1278001D01*
X1092267Y1340941D01*
X1135594D01*
X1135688Y1340922D01*
X1135780Y1340894D01*
X1135872Y1340858D01*
X1135965Y1340812D01*
X1136065Y1340753D01*
X1136170Y1340678D01*
X1136282Y1340585D01*
X1136450Y1340425D01*
X1136599Y1340330D01*
X1137168Y1339761D01*
X1139005Y1339000D01*
X1140995D01*
X1142832Y1339761D01*
X1144239Y1341168D01*
X1145000Y1343005D01*
Y1344995D01*
X1144239Y1346832D01*
X1142832Y1348239D01*
X1140995Y1349000D01*
X1139005D01*
X1137168Y1348239D01*
X1136599Y1347670D01*
X1136450Y1347575D01*
X1136282Y1347415D01*
X1136170Y1347322D01*
X1136065Y1347247D01*
X1135966Y1347188D01*
X1135872Y1347142D01*
X1135780Y1347106D01*
X1135688Y1347078D01*
X1135594Y1347059D01*
X1093839D01*
X1092718Y1349059D01*
X1092798Y1349191D01*
X1113750D01*
X1113750Y1349191D01*
X1114921Y1349424D01*
X1115913Y1350087D01*
X1173767Y1407941D01*
X1190594D01*
X1190688Y1407922D01*
X1190780Y1407894D01*
X1190872Y1407858D01*
X1190965Y1407812D01*
X1191065Y1407753D01*
X1191170Y1407678D01*
X1191282Y1407585D01*
X1191450Y1407425D01*
X1191599Y1407330D01*
X1192168Y1406761D01*
X1194005Y1406000D01*
X1195995D01*
X1197832Y1406761D01*
X1199239Y1408168D01*
X1200000Y1410005D01*
Y1411995D01*
X1199239Y1413832D01*
X1197832Y1415239D01*
X1195995Y1416000D01*
X1194005D01*
X1192168Y1415239D01*
X1191599Y1414670D01*
X1191450Y1414575D01*
X1191282Y1414415D01*
X1191170Y1414322D01*
X1191065Y1414247D01*
X1190966Y1414188D01*
X1190872Y1414142D01*
X1190780Y1414106D01*
X1190688Y1414078D01*
X1190594Y1414059D01*
X1172500D01*
X1172500Y1414059D01*
X1171329Y1413826D01*
X1170670Y1413385D01*
X1169395Y1414939D01*
X1174397Y1419941D01*
X1190594D01*
X1190688Y1419922D01*
X1190780Y1419894D01*
X1190872Y1419858D01*
X1190965Y1419812D01*
X1191065Y1419753D01*
X1191170Y1419678D01*
X1191282Y1419585D01*
X1191450Y1419425D01*
X1191599Y1419330D01*
X1192168Y1418761D01*
X1194005Y1418000D01*
X1195995D01*
X1197832Y1418761D01*
X1199239Y1420168D01*
X1200000Y1422005D01*
Y1423995D01*
X1199239Y1425832D01*
X1197832Y1427239D01*
X1195995Y1428000D01*
X1194005D01*
X1192168Y1427239D01*
X1191599Y1426670D01*
X1191450Y1426575D01*
X1191282Y1426415D01*
X1191170Y1426322D01*
X1191065Y1426247D01*
X1190966Y1426188D01*
X1190872Y1426142D01*
X1190780Y1426106D01*
X1190688Y1426078D01*
X1190594Y1426059D01*
X1173130D01*
X1173130Y1426059D01*
X1171960Y1425826D01*
X1170967Y1425163D01*
X1170967Y1425163D01*
X1109863Y1364059D01*
X1090000D01*
X1088829Y1363826D01*
X1087837Y1363163D01*
X1087837Y1363163D01*
X982848Y1258174D01*
X981962Y1258478D01*
X981001Y1259155D01*
Y1261194D01*
X980087Y1263399D01*
X978399Y1265087D01*
X976194Y1266001D01*
X973807D01*
X971602Y1265087D01*
X970001Y1263486D01*
X968399Y1265087D01*
X966194Y1266001D01*
X963807D01*
X961602Y1265087D01*
X960059Y1263544D01*
X959383Y1263613D01*
X958059Y1264147D01*
Y1294918D01*
X957826Y1296088D01*
X957699Y1296278D01*
X958000Y1297005D01*
Y1298995D01*
X957239Y1300832D01*
X955832Y1302239D01*
X953995Y1303000D01*
X952005D01*
X950168Y1302239D01*
X948761Y1300832D01*
X948000Y1298995D01*
Y1298154D01*
X946000Y1297326D01*
X940309Y1303017D01*
Y1344395D01*
X940328Y1344488D01*
X940356Y1344580D01*
X940392Y1344671D01*
X940438Y1344766D01*
X940497Y1344865D01*
X940572Y1344970D01*
X940665Y1345082D01*
X940825Y1345250D01*
X940920Y1345399D01*
X941489Y1345968D01*
X942250Y1347805D01*
Y1349795D01*
X941489Y1351632D01*
X940082Y1353039D01*
X938245Y1353800D01*
X936255D01*
X934418Y1353039D01*
X933011Y1351632D01*
X932250Y1349795D01*
Y1347805D01*
X933011Y1345968D01*
X933580Y1345399D01*
X933675Y1345250D01*
X933835Y1345082D01*
X933928Y1344970D01*
X934003Y1344865D01*
X934062Y1344766D01*
X934108Y1344671D01*
X934144Y1344580D01*
X934172Y1344488D01*
X934191Y1344395D01*
Y1301750D01*
X934191Y1301750D01*
X934424Y1300580D01*
X935087Y1299587D01*
X943941Y1290733D01*
Y1282101D01*
X942854Y1281528D01*
X941941Y1281384D01*
X933478Y1289848D01*
X933395Y1289962D01*
X933313Y1290090D01*
X933234Y1290230D01*
X933160Y1290383D01*
X933099Y1290526D01*
X933000Y1290824D01*
Y1290995D01*
X932239Y1292832D01*
X930832Y1294239D01*
X928995Y1295000D01*
X927005D01*
X925168Y1294239D01*
X923761Y1292832D01*
X923000Y1290995D01*
Y1289005D01*
X923761Y1287168D01*
X925168Y1285761D01*
X927005Y1285000D01*
X928995D01*
X929297Y1285125D01*
X929330Y1285132D01*
X929398Y1285139D01*
X929445Y1285140D01*
X929475Y1285137D01*
X929498Y1285132D01*
X929521Y1285124D01*
X929552Y1285109D01*
X929586Y1285088D01*
X936941Y1277733D01*
Y1269358D01*
X934995Y1268000D01*
X933005D01*
X931168Y1267239D01*
X929761Y1265832D01*
X929000Y1263995D01*
Y1263190D01*
X928961Y1263017D01*
X928956Y1262786D01*
X928943Y1262641D01*
X928921Y1262514D01*
X928893Y1262402D01*
X928859Y1262302D01*
X928820Y1262212D01*
X928774Y1262127D01*
X928722Y1262048D01*
X904837Y1238163D01*
X904174Y1237170D01*
X903941Y1236000D01*
X903941Y1236000D01*
Y1185250D01*
X903941Y1185250D01*
X904174Y1184080D01*
X904837Y1183087D01*
X908333Y1179591D01*
X907999Y1177296D01*
X907667Y1177000D01*
X906005D01*
X904168Y1176239D01*
X903599Y1175670D01*
X903450Y1175575D01*
X903282Y1175415D01*
X903170Y1175322D01*
X903065Y1175247D01*
X902966Y1175188D01*
X902871Y1175142D01*
X902780Y1175106D01*
X902688Y1175078D01*
X902595Y1175059D01*
X868367D01*
X843047Y1200379D01*
X843363Y1202292D01*
X844739Y1203668D01*
X845500Y1205505D01*
Y1207495D01*
X844739Y1209332D01*
X844579Y1209492D01*
X844832Y1211761D01*
X846239Y1213168D01*
X847000Y1215005D01*
Y1216995D01*
X846239Y1218832D01*
X844832Y1220239D01*
X842995Y1221000D01*
X841005D01*
X839168Y1220239D01*
X837761Y1218832D01*
X837000Y1216995D01*
Y1215005D01*
X837761Y1213168D01*
X837921Y1213008D01*
X837668Y1210739D01*
X836261Y1209332D01*
X835500Y1207495D01*
Y1205506D01*
X833686Y1204659D01*
X794229D01*
X794126Y1204668D01*
X793789Y1204755D01*
X793335Y1204935D01*
X792779Y1205222D01*
X792136Y1205622D01*
X791451Y1206111D01*
X788830Y1208388D01*
X788273Y1208941D01*
X788734Y1210549D01*
X788916Y1210800D01*
X789044Y1210941D01*
X806000D01*
X806000Y1210941D01*
X807170Y1211174D01*
X808163Y1211837D01*
X817048Y1220722D01*
X817127Y1220774D01*
X817212Y1220820D01*
X817302Y1220859D01*
X817402Y1220893D01*
X817514Y1220921D01*
X817641Y1220943D01*
X817786Y1220956D01*
X818017Y1220962D01*
X818190Y1221000D01*
X818995D01*
X820832Y1221761D01*
X822239Y1223168D01*
X823000Y1225005D01*
Y1226995D01*
X822239Y1228832D01*
X820832Y1230239D01*
X818995Y1231000D01*
X817005D01*
X815168Y1230239D01*
X813761Y1228832D01*
X813000Y1226995D01*
Y1226190D01*
X812962Y1226017D01*
X812956Y1225786D01*
X812943Y1225641D01*
X812921Y1225514D01*
X812893Y1225402D01*
X812859Y1225302D01*
X812820Y1225212D01*
X812774Y1225127D01*
X812722Y1225048D01*
X804733Y1217059D01*
X788444D01*
X787615Y1219059D01*
X788802Y1220246D01*
X790250Y1222754D01*
X791000Y1225552D01*
Y1228448D01*
X790250Y1231246D01*
X788802Y1233754D01*
X787615Y1234941D01*
X788444Y1236941D01*
X801027D01*
X801761Y1235168D01*
X803168Y1233761D01*
X805005Y1233000D01*
X806995D01*
X808832Y1233761D01*
X810239Y1235168D01*
X811000Y1237005D01*
Y1238995D01*
X810239Y1240832D01*
X808832Y1242239D01*
X806995Y1243000D01*
X805005D01*
X804278Y1242699D01*
X804088Y1242826D01*
X802918Y1243059D01*
X802917Y1243059D01*
X773000D01*
X771830Y1242826D01*
X770837Y1242163D01*
X770837Y1242163D01*
X754837Y1226163D01*
X754549Y1225731D01*
X752549Y1226338D01*
Y1453191D01*
X754549Y1453589D01*
X755953Y1450200D01*
X758626Y1445838D01*
X761948Y1441948D01*
X765838Y1438626D01*
X770200Y1435953D01*
X774926Y1433995D01*
X779900Y1432801D01*
X785000Y1432399D01*
X790100Y1432801D01*
X795074Y1433995D01*
X799800Y1435953D01*
X804162Y1438626D01*
X808052Y1441948D01*
X811374Y1445838D01*
X814047Y1450200D01*
X816005Y1454926D01*
X817199Y1459900D01*
X817600Y1465000D01*
X817199Y1470100D01*
X816005Y1475074D01*
X814047Y1479800D01*
X811374Y1484162D01*
X808052Y1488052D01*
X804162Y1491374D01*
X799800Y1494047D01*
X796411Y1495451D01*
X796809Y1497451D01*
X1303646D01*
X1305000Y1495495D01*
Y1493506D01*
X1305761Y1491668D01*
X1307168Y1490261D01*
X1309005Y1489500D01*
X1310995D01*
X1312832Y1490261D01*
X1314239Y1491668D01*
X1315000Y1493506D01*
Y1495495D01*
X1316354Y1497451D01*
X1378853D01*
X1380189Y1495451D01*
X1380000Y1494995D01*
Y1493005D01*
X1380761Y1491168D01*
X1382168Y1489761D01*
X1384005Y1489000D01*
X1385995D01*
X1387832Y1489761D01*
X1389239Y1491168D01*
X1390000Y1493005D01*
Y1494995D01*
X1389811Y1495451D01*
X1391147Y1497451D01*
X1453191D01*
X1453589Y1495451D01*
D02*
G37*
G36*
X1192858Y1420900D02*
X1192639Y1421109D01*
X1192413Y1421296D01*
X1192181Y1421461D01*
X1191942Y1421604D01*
X1191697Y1421725D01*
X1191445Y1421824D01*
X1191187Y1421901D01*
X1190921Y1421956D01*
X1190650Y1421989D01*
X1190372Y1422000D01*
Y1424000D01*
X1190650Y1424011D01*
X1190921Y1424044D01*
X1191187Y1424099D01*
X1191445Y1424176D01*
X1191697Y1424275D01*
X1191942Y1424396D01*
X1192181Y1424539D01*
X1192413Y1424704D01*
X1192639Y1424891D01*
X1192858Y1425100D01*
Y1420900D01*
D02*
G37*
G36*
Y1408900D02*
X1192639Y1409109D01*
X1192413Y1409296D01*
X1192181Y1409461D01*
X1191942Y1409604D01*
X1191697Y1409725D01*
X1191445Y1409824D01*
X1191187Y1409901D01*
X1190921Y1409956D01*
X1190650Y1409989D01*
X1190372Y1410000D01*
Y1412000D01*
X1190650Y1412011D01*
X1190921Y1412044D01*
X1191187Y1412099D01*
X1191445Y1412176D01*
X1191697Y1412275D01*
X1191942Y1412396D01*
X1192181Y1412539D01*
X1192413Y1412704D01*
X1192639Y1412891D01*
X1192858Y1413100D01*
Y1408900D01*
D02*
G37*
G36*
X939141Y1346439D02*
X938954Y1346213D01*
X938789Y1345981D01*
X938646Y1345742D01*
X938525Y1345497D01*
X938426Y1345245D01*
X938349Y1344987D01*
X938294Y1344722D01*
X938261Y1344450D01*
X938250Y1344172D01*
X936250D01*
X936239Y1344450D01*
X936206Y1344722D01*
X936151Y1344987D01*
X936074Y1345245D01*
X935975Y1345497D01*
X935854Y1345742D01*
X935711Y1345981D01*
X935546Y1346213D01*
X935359Y1346439D01*
X935150Y1346658D01*
X939350D01*
X939141Y1346439D01*
D02*
G37*
G36*
X1137858Y1341900D02*
X1137639Y1342109D01*
X1137413Y1342296D01*
X1137181Y1342461D01*
X1136942Y1342604D01*
X1136697Y1342725D01*
X1136445Y1342824D01*
X1136187Y1342901D01*
X1135921Y1342956D01*
X1135650Y1342989D01*
X1135372Y1343000D01*
Y1345000D01*
X1135650Y1345011D01*
X1135921Y1345044D01*
X1136187Y1345099D01*
X1136445Y1345176D01*
X1136697Y1345275D01*
X1136942Y1345396D01*
X1137181Y1345539D01*
X1137413Y1345704D01*
X1137639Y1345891D01*
X1137858Y1346100D01*
Y1341900D01*
D02*
G37*
G36*
X1140970Y1328000D02*
X1140667Y1327993D01*
X1140376Y1327966D01*
X1140095Y1327918D01*
X1139825Y1327851D01*
X1139566Y1327763D01*
X1139318Y1327655D01*
X1139081Y1327526D01*
X1138854Y1327378D01*
X1138639Y1327209D01*
X1138434Y1327020D01*
X1137020Y1328434D01*
X1137209Y1328639D01*
X1137378Y1328854D01*
X1137526Y1329081D01*
X1137655Y1329318D01*
X1137763Y1329566D01*
X1137851Y1329825D01*
X1137918Y1330095D01*
X1137966Y1330376D01*
X1137993Y1330667D01*
X1138000Y1330970D01*
X1140970Y1328000D01*
D02*
G37*
G36*
X931000Y1290375D02*
X931190Y1289805D01*
X931303Y1289539D01*
X931427Y1289284D01*
X931563Y1289041D01*
X931711Y1288810D01*
X931870Y1288591D01*
X932041Y1288385D01*
X932224Y1288190D01*
X931177Y1286409D01*
X930966Y1286603D01*
X930747Y1286768D01*
X930521Y1286906D01*
X930288Y1287016D01*
X930048Y1287099D01*
X929800Y1287153D01*
X929545Y1287179D01*
X929283Y1287178D01*
X929013Y1287149D01*
X928736Y1287092D01*
X930922Y1290678D01*
X931000Y1290375D01*
D02*
G37*
G36*
X933970Y1260000D02*
X933667Y1259993D01*
X933376Y1259966D01*
X933095Y1259918D01*
X932825Y1259851D01*
X932566Y1259763D01*
X932318Y1259655D01*
X932081Y1259526D01*
X931854Y1259378D01*
X931639Y1259209D01*
X931434Y1259020D01*
X930020Y1260434D01*
X930209Y1260639D01*
X930378Y1260854D01*
X930526Y1261081D01*
X930655Y1261318D01*
X930763Y1261566D01*
X930851Y1261825D01*
X930918Y1262095D01*
X930966Y1262376D01*
X930993Y1262667D01*
X931000Y1262970D01*
X933970Y1260000D01*
D02*
G37*
G36*
X923736Y1239092D02*
X923435Y1239008D01*
X922868Y1238809D01*
X922602Y1238692D01*
X922349Y1238565D01*
X922107Y1238427D01*
X921878Y1238278D01*
X921660Y1238117D01*
X921454Y1237946D01*
X921260Y1237764D01*
X919446Y1238778D01*
X919641Y1238990D01*
X919806Y1239209D01*
X919943Y1239434D01*
X920052Y1239667D01*
X920132Y1239906D01*
X920184Y1240152D01*
X920208Y1240405D01*
X920202Y1240665D01*
X920169Y1240932D01*
X920107Y1241206D01*
X923736Y1239092D01*
D02*
G37*
G36*
X817970Y1223000D02*
X817667Y1222993D01*
X817376Y1222966D01*
X817095Y1222918D01*
X816825Y1222851D01*
X816566Y1222763D01*
X816318Y1222655D01*
X816081Y1222526D01*
X815854Y1222378D01*
X815639Y1222209D01*
X815434Y1222020D01*
X814020Y1223434D01*
X814209Y1223639D01*
X814378Y1223854D01*
X814526Y1224081D01*
X814655Y1224318D01*
X814763Y1224566D01*
X814851Y1224825D01*
X814918Y1225095D01*
X814966Y1225376D01*
X814993Y1225667D01*
X815000Y1225970D01*
X817970Y1223000D01*
D02*
G37*
G36*
X1161858Y1211900D02*
X1161684Y1212061D01*
X1161496Y1212206D01*
X1161293Y1212334D01*
X1161076Y1212444D01*
X1160845Y1212538D01*
X1160599Y1212614D01*
X1160339Y1212673D01*
X1160065Y1212716D01*
X1159776Y1212741D01*
X1159473Y1212750D01*
Y1215250D01*
X1159776Y1215258D01*
X1160065Y1215284D01*
X1160339Y1215327D01*
X1160599Y1215386D01*
X1160845Y1215462D01*
X1161076Y1215556D01*
X1161293Y1215667D01*
X1161496Y1215794D01*
X1161684Y1215938D01*
X1161858Y1216100D01*
Y1211900D01*
D02*
G37*
G36*
X1151500Y1214110D02*
X1149000Y1210360D01*
X1148975Y1210835D01*
X1148900Y1211260D01*
X1148775Y1211635D01*
X1148600Y1211960D01*
X1148375Y1212235D01*
X1148100Y1212460D01*
X1147775Y1212635D01*
X1147400Y1212760D01*
X1146975Y1212835D01*
X1146500Y1212860D01*
Y1215360D01*
X1146975Y1215385D01*
X1147400Y1215460D01*
X1147775Y1215585D01*
X1148100Y1215760D01*
X1148375Y1215985D01*
X1148600Y1216260D01*
X1148775Y1216585D01*
X1148900Y1216960D01*
X1148975Y1217385D01*
X1149000Y1217860D01*
X1151500Y1214110D01*
D02*
G37*
G36*
X961011Y1211350D02*
X961044Y1211078D01*
X961099Y1210813D01*
X961176Y1210555D01*
X961275Y1210303D01*
X961396Y1210058D01*
X961539Y1209819D01*
X961704Y1209587D01*
X961891Y1209361D01*
X962100Y1209142D01*
X957900D01*
X958109Y1209361D01*
X958296Y1209587D01*
X958461Y1209819D01*
X958604Y1210058D01*
X958725Y1210303D01*
X958824Y1210555D01*
X958901Y1210813D01*
X958956Y1211078D01*
X958989Y1211350D01*
X959000Y1211628D01*
X961000D01*
X961011Y1211350D01*
D02*
G37*
G36*
X941980Y1211566D02*
X941791Y1211361D01*
X941622Y1211146D01*
X941474Y1210919D01*
X941345Y1210682D01*
X941237Y1210434D01*
X941149Y1210175D01*
X941082Y1209905D01*
X941034Y1209624D01*
X941007Y1209333D01*
X941000Y1209030D01*
X938030Y1212000D01*
X938333Y1212007D01*
X938624Y1212034D01*
X938905Y1212082D01*
X939175Y1212149D01*
X939434Y1212237D01*
X939682Y1212345D01*
X939919Y1212474D01*
X940146Y1212622D01*
X940361Y1212791D01*
X940566Y1212980D01*
X941980Y1211566D01*
D02*
G37*
G36*
X977361Y1208891D02*
X977587Y1208704D01*
X977819Y1208539D01*
X978058Y1208396D01*
X978303Y1208275D01*
X978555Y1208176D01*
X978813Y1208099D01*
X979079Y1208044D01*
X979350Y1208011D01*
X979628Y1208000D01*
Y1206000D01*
X979350Y1205989D01*
X979079Y1205956D01*
X978813Y1205901D01*
X978555Y1205824D01*
X978303Y1205725D01*
X978058Y1205604D01*
X977819Y1205461D01*
X977587Y1205296D01*
X977361Y1205109D01*
X977142Y1204900D01*
Y1209100D01*
X977361Y1208891D01*
D02*
G37*
G36*
X949891Y1206639D02*
X949704Y1206413D01*
X949539Y1206181D01*
X949396Y1205942D01*
X949275Y1205697D01*
X949176Y1205445D01*
X949099Y1205187D01*
X949044Y1204921D01*
X949011Y1204650D01*
X949000Y1204372D01*
X947000D01*
X946989Y1204650D01*
X946956Y1204921D01*
X946901Y1205187D01*
X946824Y1205445D01*
X946725Y1205697D01*
X946604Y1205942D01*
X946461Y1206181D01*
X946296Y1206413D01*
X946109Y1206639D01*
X945900Y1206858D01*
X950100D01*
X949891Y1206639D01*
D02*
G37*
G36*
X939891D02*
X939704Y1206413D01*
X939539Y1206181D01*
X939396Y1205942D01*
X939275Y1205697D01*
X939176Y1205445D01*
X939099Y1205187D01*
X939044Y1204921D01*
X939011Y1204650D01*
X939000Y1204372D01*
X937000D01*
X936989Y1204650D01*
X936956Y1204921D01*
X936901Y1205187D01*
X936824Y1205445D01*
X936725Y1205697D01*
X936604Y1205942D01*
X936461Y1206181D01*
X936296Y1206413D01*
X936109Y1206639D01*
X935900Y1206858D01*
X940100D01*
X939891Y1206639D01*
D02*
G37*
G36*
X976891Y1204639D02*
X976704Y1204413D01*
X976539Y1204181D01*
X976396Y1203942D01*
X976275Y1203697D01*
X976176Y1203445D01*
X976099Y1203187D01*
X976044Y1202922D01*
X976011Y1202650D01*
X976000Y1202372D01*
X974000D01*
X973989Y1202650D01*
X973956Y1202922D01*
X973901Y1203187D01*
X973824Y1203445D01*
X973725Y1203697D01*
X973604Y1203942D01*
X973461Y1204181D01*
X973296Y1204413D01*
X973109Y1204639D01*
X972900Y1204858D01*
X977100D01*
X976891Y1204639D01*
D02*
G37*
G36*
X961891D02*
X961704Y1204413D01*
X961539Y1204181D01*
X961396Y1203942D01*
X961275Y1203697D01*
X961176Y1203445D01*
X961099Y1203187D01*
X961044Y1202922D01*
X961011Y1202650D01*
X961000Y1202372D01*
X959000D01*
X958989Y1202650D01*
X958956Y1202922D01*
X958901Y1203187D01*
X958824Y1203445D01*
X958725Y1203697D01*
X958604Y1203942D01*
X958461Y1204181D01*
X958296Y1204413D01*
X958109Y1204639D01*
X957900Y1204858D01*
X962100D01*
X961891Y1204639D01*
D02*
G37*
G36*
X841236Y1203592D02*
X840935Y1203508D01*
X840368Y1203309D01*
X840102Y1203193D01*
X839849Y1203065D01*
X839607Y1202927D01*
X839378Y1202778D01*
X839160Y1202617D01*
X838954Y1202446D01*
X838760Y1202264D01*
X836946Y1203278D01*
X837141Y1203490D01*
X837306Y1203709D01*
X837443Y1203934D01*
X837552Y1204166D01*
X837632Y1204406D01*
X837684Y1204652D01*
X837708Y1204905D01*
X837702Y1205165D01*
X837669Y1205432D01*
X837607Y1205706D01*
X841236Y1203592D01*
D02*
G37*
G36*
X787442Y1206893D02*
X790188Y1204508D01*
X791004Y1203925D01*
X791771Y1203448D01*
X792488Y1203077D01*
X793157Y1202812D01*
X793775Y1202653D01*
X794344Y1202600D01*
Y1200600D01*
X793775Y1200547D01*
X793157Y1200388D01*
X792488Y1200123D01*
X791771Y1199752D01*
X791004Y1199275D01*
X790188Y1198692D01*
X788406Y1197208D01*
X787442Y1196307D01*
X786427Y1195300D01*
Y1207900D01*
X787442Y1206893D01*
D02*
G37*
G36*
X801361Y1195891D02*
X801587Y1195704D01*
X801819Y1195539D01*
X802058Y1195396D01*
X802303Y1195275D01*
X802555Y1195176D01*
X802813Y1195099D01*
X803079Y1195044D01*
X803350Y1195011D01*
X803628Y1195000D01*
Y1193000D01*
X803350Y1192989D01*
X803079Y1192956D01*
X802813Y1192901D01*
X802555Y1192824D01*
X802303Y1192725D01*
X802058Y1192604D01*
X801819Y1192461D01*
X801587Y1192296D01*
X801361Y1192109D01*
X801142Y1191900D01*
Y1196100D01*
X801361Y1195891D01*
D02*
G37*
G36*
X798206Y1191107D02*
X797932Y1191169D01*
X797665Y1191202D01*
X797405Y1191208D01*
X797152Y1191184D01*
X796906Y1191132D01*
X796666Y1191052D01*
X796434Y1190943D01*
X796209Y1190806D01*
X795990Y1190640D01*
X795778Y1190446D01*
X794764Y1192260D01*
X794946Y1192454D01*
X795117Y1192660D01*
X795278Y1192878D01*
X795427Y1193107D01*
X795565Y1193349D01*
X795693Y1193602D01*
X795809Y1193868D01*
X796008Y1194435D01*
X796092Y1194736D01*
X798206Y1191107D01*
D02*
G37*
G36*
X919011Y1186350D02*
X919044Y1186078D01*
X919099Y1185813D01*
X919176Y1185555D01*
X919275Y1185303D01*
X919396Y1185058D01*
X919539Y1184819D01*
X919704Y1184587D01*
X919891Y1184361D01*
X920100Y1184142D01*
X915900D01*
X916109Y1184361D01*
X916296Y1184587D01*
X916461Y1184819D01*
X916604Y1185058D01*
X916725Y1185303D01*
X916824Y1185555D01*
X916901Y1185813D01*
X916956Y1186078D01*
X916989Y1186350D01*
X917000Y1186628D01*
X919000D01*
X919011Y1186350D01*
D02*
G37*
G36*
X1213220Y1179250D02*
X1212917Y1179243D01*
X1212626Y1179216D01*
X1212345Y1179168D01*
X1212075Y1179101D01*
X1211816Y1179013D01*
X1211568Y1178905D01*
X1211331Y1178776D01*
X1211104Y1178628D01*
X1210889Y1178459D01*
X1210684Y1178270D01*
X1209270Y1179684D01*
X1209459Y1179889D01*
X1209628Y1180104D01*
X1209776Y1180331D01*
X1209905Y1180568D01*
X1210013Y1180816D01*
X1210101Y1181075D01*
X1210168Y1181345D01*
X1210216Y1181626D01*
X1210243Y1181917D01*
X1210250Y1182220D01*
X1213220Y1179250D01*
D02*
G37*
G36*
X790850Y1185636D02*
X790485Y1185196D01*
X790160Y1184646D01*
X789875Y1183986D01*
X789630Y1183217D01*
X789425Y1182337D01*
X789260Y1181348D01*
X789050Y1179039D01*
X789005Y1177719D01*
X788999Y1176290D01*
X780090Y1185200D01*
X781519Y1185205D01*
X785147Y1185460D01*
X786137Y1185625D01*
X787017Y1185830D01*
X787786Y1186075D01*
X788446Y1186360D01*
X788996Y1186685D01*
X789436Y1187050D01*
X790850Y1185636D01*
D02*
G37*
G36*
X1016111Y1179641D02*
X1016337Y1179454D01*
X1016569Y1179289D01*
X1016808Y1179146D01*
X1017053Y1179025D01*
X1017305Y1178926D01*
X1017563Y1178849D01*
X1017828Y1178794D01*
X1018100Y1178761D01*
X1018378Y1178750D01*
Y1176750D01*
X1018100Y1176739D01*
X1017828Y1176706D01*
X1017563Y1176651D01*
X1017305Y1176574D01*
X1017053Y1176475D01*
X1016808Y1176354D01*
X1016569Y1176211D01*
X1016337Y1176046D01*
X1016111Y1175859D01*
X1015892Y1175650D01*
Y1179850D01*
X1016111Y1179641D01*
D02*
G37*
G36*
X924265Y1176726D02*
X924274Y1176460D01*
X924298Y1176193D01*
X924338Y1175926D01*
X924395Y1175658D01*
X924468Y1175389D01*
X924558Y1175120D01*
X924663Y1174850D01*
X924923Y1174308D01*
X925077Y1174036D01*
X921016Y1175107D01*
X921253Y1175257D01*
X921466Y1175422D01*
X921653Y1175602D01*
X921816Y1175798D01*
X921953Y1176009D01*
X922066Y1176235D01*
X922153Y1176476D01*
X922215Y1176732D01*
X922253Y1177004D01*
X922265Y1177291D01*
X924265Y1176726D01*
D02*
G37*
G36*
X815361Y1174891D02*
X815587Y1174704D01*
X815819Y1174539D01*
X816058Y1174396D01*
X816303Y1174275D01*
X816555Y1174176D01*
X816813Y1174099D01*
X817078Y1174044D01*
X817350Y1174011D01*
X817628Y1174000D01*
Y1172000D01*
X817350Y1171989D01*
X817078Y1171956D01*
X816813Y1171901D01*
X816555Y1171824D01*
X816303Y1171725D01*
X816058Y1171604D01*
X815819Y1171461D01*
X815587Y1171296D01*
X815361Y1171109D01*
X815142Y1170900D01*
Y1175100D01*
X815361Y1174891D01*
D02*
G37*
G36*
X904858Y1169900D02*
X904639Y1170109D01*
X904413Y1170296D01*
X904181Y1170461D01*
X903942Y1170604D01*
X903697Y1170725D01*
X903445Y1170824D01*
X903187Y1170901D01*
X902922Y1170956D01*
X902650Y1170989D01*
X902372Y1171000D01*
Y1173000D01*
X902650Y1173011D01*
X902922Y1173044D01*
X903187Y1173099D01*
X903445Y1173176D01*
X903697Y1173275D01*
X903942Y1173396D01*
X904181Y1173539D01*
X904413Y1173704D01*
X904639Y1173891D01*
X904858Y1174100D01*
Y1169900D01*
D02*
G37*
G36*
X1112891Y1170639D02*
X1112704Y1170413D01*
X1112539Y1170181D01*
X1112396Y1169942D01*
X1112275Y1169697D01*
X1112176Y1169445D01*
X1112099Y1169187D01*
X1112044Y1168922D01*
X1112011Y1168650D01*
X1112000Y1168372D01*
X1110000D01*
X1109989Y1168650D01*
X1109956Y1168922D01*
X1109901Y1169187D01*
X1109824Y1169445D01*
X1109725Y1169697D01*
X1109604Y1169942D01*
X1109461Y1170181D01*
X1109296Y1170413D01*
X1109109Y1170639D01*
X1108900Y1170858D01*
X1113100D01*
X1112891Y1170639D01*
D02*
G37*
G36*
X1008750Y1176755D02*
X1009511Y1174918D01*
X1010918Y1173511D01*
X1012755Y1172750D01*
X1014744D01*
X1016582Y1173511D01*
X1017151Y1174080D01*
X1017300Y1174175D01*
X1017468Y1174335D01*
X1017580Y1174428D01*
X1017685Y1174503D01*
X1017784Y1174562D01*
X1017878Y1174608D01*
X1017970Y1174644D01*
X1018062Y1174672D01*
X1018155Y1174691D01*
X1025983D01*
X1093941Y1106733D01*
Y1045267D01*
X1083733Y1035059D01*
X1077273D01*
X1077076Y1037059D01*
X1077656Y1037174D01*
X1078648Y1037837D01*
X1082163Y1041352D01*
X1082826Y1042344D01*
X1083059Y1043515D01*
X1083059Y1043515D01*
Y1050594D01*
X1083078Y1050688D01*
X1083106Y1050780D01*
X1083142Y1050872D01*
X1083188Y1050965D01*
X1083247Y1051065D01*
X1083322Y1051170D01*
X1083415Y1051282D01*
X1083575Y1051450D01*
X1083670Y1051599D01*
X1084239Y1052168D01*
X1085000Y1054005D01*
Y1055995D01*
X1084239Y1057832D01*
X1083071Y1059000D01*
X1083261Y1060125D01*
X1083684Y1061000D01*
X1083995D01*
X1085832Y1061761D01*
X1087239Y1063168D01*
X1088000Y1065005D01*
Y1066995D01*
X1087239Y1068832D01*
X1086670Y1069401D01*
X1086575Y1069550D01*
X1086415Y1069718D01*
X1086322Y1069830D01*
X1086247Y1069935D01*
X1086188Y1070034D01*
X1086142Y1070128D01*
X1086105Y1070220D01*
X1086078Y1070312D01*
X1086059Y1070406D01*
Y1101485D01*
X1085826Y1102656D01*
X1085163Y1103648D01*
X1085163Y1103648D01*
X1069648Y1119163D01*
X1068656Y1119826D01*
X1067485Y1120059D01*
X1067485Y1120059D01*
X1038782D01*
X996416Y1162424D01*
X996758Y1164343D01*
X998599Y1165330D01*
X999168Y1164761D01*
X1001005Y1164000D01*
X1002995D01*
X1004832Y1164761D01*
X1006239Y1166168D01*
X1007000Y1168005D01*
Y1169995D01*
X1006239Y1171832D01*
X1005043Y1173028D01*
X1004811Y1173521D01*
X1004661Y1175475D01*
X1006750Y1177564D01*
X1008750Y1176755D01*
D02*
G37*
G36*
X911011Y1150350D02*
X911044Y1150079D01*
X911099Y1149813D01*
X911176Y1149555D01*
X911275Y1149303D01*
X911396Y1149058D01*
X911539Y1148819D01*
X911704Y1148587D01*
X911891Y1148361D01*
X912100Y1148142D01*
X907900D01*
X908109Y1148361D01*
X908296Y1148587D01*
X908461Y1148819D01*
X908604Y1149058D01*
X908725Y1149303D01*
X908824Y1149555D01*
X908901Y1149813D01*
X908956Y1150079D01*
X908989Y1150350D01*
X909000Y1150629D01*
X911000D01*
X911011Y1150350D01*
D02*
G37*
G36*
X931765Y1149226D02*
X931774Y1148960D01*
X931798Y1148693D01*
X931838Y1148426D01*
X931895Y1148158D01*
X931968Y1147889D01*
X932058Y1147620D01*
X932163Y1147350D01*
X932423Y1146808D01*
X932577Y1146536D01*
X928516Y1147607D01*
X928753Y1147757D01*
X928966Y1147922D01*
X929153Y1148102D01*
X929316Y1148298D01*
X929453Y1148509D01*
X929566Y1148735D01*
X929653Y1148976D01*
X929715Y1149232D01*
X929753Y1149504D01*
X929765Y1149791D01*
X931765Y1149226D01*
D02*
G37*
G36*
X923591Y1147177D02*
X923397Y1146966D01*
X923232Y1146747D01*
X923094Y1146521D01*
X922984Y1146288D01*
X922901Y1146048D01*
X922847Y1145800D01*
X922821Y1145545D01*
X922822Y1145283D01*
X922851Y1145013D01*
X922908Y1144736D01*
X919322Y1146922D01*
X919625Y1147000D01*
X920195Y1147190D01*
X920461Y1147303D01*
X920716Y1147427D01*
X920959Y1147563D01*
X921190Y1147711D01*
X921409Y1147870D01*
X921615Y1148041D01*
X921810Y1148224D01*
X923591Y1147177D01*
D02*
G37*
G36*
X888639Y1137791D02*
X888854Y1137622D01*
X889081Y1137474D01*
X889318Y1137345D01*
X889566Y1137237D01*
X889825Y1137149D01*
X890095Y1137082D01*
X890376Y1137034D01*
X890667Y1137007D01*
X890970Y1137000D01*
X888000Y1134030D01*
X887993Y1134333D01*
X887966Y1134624D01*
X887918Y1134905D01*
X887851Y1135175D01*
X887763Y1135434D01*
X887655Y1135682D01*
X887526Y1135919D01*
X887378Y1136146D01*
X887209Y1136361D01*
X887020Y1136566D01*
X888434Y1137980D01*
X888639Y1137791D01*
D02*
G37*
G36*
X771004Y1135885D02*
X771554Y1135560D01*
X772214Y1135275D01*
X772983Y1135030D01*
X773863Y1134825D01*
X774853Y1134660D01*
X777161Y1134450D01*
X778481Y1134405D01*
X779910Y1134400D01*
X771000Y1125490D01*
X770995Y1126919D01*
X770740Y1130547D01*
X770575Y1131537D01*
X770370Y1132417D01*
X770125Y1133186D01*
X769840Y1133846D01*
X769515Y1134396D01*
X769150Y1134836D01*
X770564Y1136250D01*
X771004Y1135885D01*
D02*
G37*
G36*
X787442Y1130693D02*
X790188Y1128308D01*
X791004Y1127725D01*
X791771Y1127248D01*
X792488Y1126877D01*
X793157Y1126612D01*
X793775Y1126453D01*
X794344Y1126400D01*
Y1124400D01*
X793775Y1124347D01*
X793157Y1124188D01*
X792488Y1123923D01*
X791771Y1123552D01*
X791004Y1123075D01*
X790188Y1122492D01*
X788406Y1121008D01*
X787442Y1120107D01*
X786427Y1119100D01*
Y1131700D01*
X787442Y1130693D01*
D02*
G37*
G36*
X771004Y1110485D02*
X771554Y1110160D01*
X772214Y1109875D01*
X772983Y1109630D01*
X773863Y1109425D01*
X774853Y1109260D01*
X777161Y1109050D01*
X778481Y1109005D01*
X779910Y1109000D01*
X771000Y1100090D01*
X770995Y1101519D01*
X770740Y1105147D01*
X770575Y1106137D01*
X770370Y1107017D01*
X770125Y1107786D01*
X769840Y1108446D01*
X769515Y1108996D01*
X769150Y1109436D01*
X770564Y1110850D01*
X771004Y1110485D01*
D02*
G37*
G36*
X1062858Y1096900D02*
X1062639Y1097109D01*
X1062413Y1097296D01*
X1062181Y1097461D01*
X1061942Y1097604D01*
X1061697Y1097725D01*
X1061445Y1097824D01*
X1061187Y1097901D01*
X1060921Y1097956D01*
X1060650Y1097989D01*
X1060372Y1098000D01*
Y1100000D01*
X1060650Y1100011D01*
X1060921Y1100044D01*
X1061187Y1100099D01*
X1061445Y1100176D01*
X1061697Y1100275D01*
X1061942Y1100396D01*
X1062181Y1100539D01*
X1062413Y1100704D01*
X1062639Y1100891D01*
X1062858Y1101100D01*
Y1096900D01*
D02*
G37*
G36*
X1084011Y1070350D02*
X1084044Y1070079D01*
X1084099Y1069813D01*
X1084176Y1069555D01*
X1084275Y1069303D01*
X1084396Y1069058D01*
X1084539Y1068819D01*
X1084704Y1068587D01*
X1084891Y1068361D01*
X1085100Y1068142D01*
X1080900D01*
X1081109Y1068361D01*
X1081296Y1068587D01*
X1081461Y1068819D01*
X1081604Y1069058D01*
X1081725Y1069303D01*
X1081824Y1069555D01*
X1081901Y1069813D01*
X1081956Y1070079D01*
X1081989Y1070350D01*
X1082000Y1070628D01*
X1084000D01*
X1084011Y1070350D01*
D02*
G37*
G36*
X1019007Y1064667D02*
X1019034Y1064376D01*
X1019082Y1064095D01*
X1019149Y1063825D01*
X1019237Y1063566D01*
X1019345Y1063318D01*
X1019474Y1063081D01*
X1019622Y1062854D01*
X1019791Y1062639D01*
X1019980Y1062434D01*
X1018566Y1061020D01*
X1018361Y1061209D01*
X1018146Y1061378D01*
X1017919Y1061526D01*
X1017682Y1061655D01*
X1017434Y1061763D01*
X1017175Y1061851D01*
X1016905Y1061918D01*
X1016624Y1061966D01*
X1016333Y1061993D01*
X1016030Y1062000D01*
X1019000Y1064970D01*
X1019007Y1064667D01*
D02*
G37*
G36*
X1081891Y1052639D02*
X1081704Y1052413D01*
X1081539Y1052181D01*
X1081396Y1051942D01*
X1081275Y1051697D01*
X1081176Y1051445D01*
X1081099Y1051187D01*
X1081044Y1050921D01*
X1081011Y1050650D01*
X1081000Y1050372D01*
X1079000D01*
X1078989Y1050650D01*
X1078956Y1050921D01*
X1078901Y1051187D01*
X1078824Y1051445D01*
X1078725Y1051697D01*
X1078604Y1051942D01*
X1078461Y1052181D01*
X1078296Y1052413D01*
X1078109Y1052639D01*
X1077900Y1052858D01*
X1082100D01*
X1081891Y1052639D01*
D02*
G37*
G36*
X944215Y1205714D02*
X944330Y1205599D01*
X944425Y1205450D01*
X944585Y1205282D01*
X944678Y1205170D01*
X944753Y1205065D01*
X944812Y1204966D01*
X944858Y1204872D01*
X944894Y1204780D01*
X944922Y1204688D01*
X944941Y1204594D01*
Y1177500D01*
X944941Y1177500D01*
X945174Y1176329D01*
X945837Y1175337D01*
X1024337Y1096837D01*
X1024337Y1096837D01*
X1025329Y1096174D01*
X1026500Y1095941D01*
X1026500Y1095941D01*
X1060594D01*
X1060688Y1095922D01*
X1060780Y1095894D01*
X1060872Y1095858D01*
X1060965Y1095812D01*
X1061065Y1095753D01*
X1061170Y1095678D01*
X1061282Y1095585D01*
X1061450Y1095425D01*
X1061599Y1095330D01*
X1062168Y1094761D01*
X1064005Y1094000D01*
X1065994D01*
X1067941Y1092642D01*
Y1050728D01*
X1066257Y1049865D01*
X1066008Y1049833D01*
X941059Y1174782D01*
Y1204594D01*
X941078Y1204688D01*
X941106Y1204780D01*
X941142Y1204872D01*
X941188Y1204966D01*
X941247Y1205065D01*
X941322Y1205170D01*
X941415Y1205282D01*
X941575Y1205450D01*
X941670Y1205599D01*
X941785Y1205714D01*
X943000Y1205993D01*
X944215Y1205714D01*
D02*
G37*
G36*
X1072454Y1050054D02*
X1072660Y1049883D01*
X1072878Y1049722D01*
X1073107Y1049573D01*
X1073349Y1049435D01*
X1073602Y1049307D01*
X1073868Y1049191D01*
X1074435Y1048992D01*
X1074736Y1048908D01*
X1071107Y1046794D01*
X1071169Y1047068D01*
X1071202Y1047335D01*
X1071208Y1047595D01*
X1071184Y1047848D01*
X1071132Y1048094D01*
X1071052Y1048334D01*
X1070943Y1048566D01*
X1070806Y1048791D01*
X1070640Y1049010D01*
X1070446Y1049222D01*
X1072260Y1050236D01*
X1072454Y1050054D01*
D02*
G37*
G36*
X1019007Y1049667D02*
X1019034Y1049376D01*
X1019082Y1049095D01*
X1019149Y1048825D01*
X1019237Y1048566D01*
X1019345Y1048318D01*
X1019474Y1048081D01*
X1019622Y1047854D01*
X1019791Y1047639D01*
X1019980Y1047434D01*
X1018566Y1046020D01*
X1018361Y1046209D01*
X1018146Y1046378D01*
X1017919Y1046526D01*
X1017682Y1046655D01*
X1017434Y1046763D01*
X1017175Y1046851D01*
X1016905Y1046918D01*
X1016624Y1046966D01*
X1016333Y1046993D01*
X1016030Y1047000D01*
X1019000Y1049970D01*
X1019007Y1049667D01*
D02*
G37*
G36*
X1017891Y1037639D02*
X1017704Y1037413D01*
X1017539Y1037181D01*
X1017396Y1036942D01*
X1017275Y1036697D01*
X1017176Y1036445D01*
X1017099Y1036187D01*
X1017044Y1035921D01*
X1017011Y1035650D01*
X1017000Y1035371D01*
X1015000D01*
X1014989Y1035650D01*
X1014956Y1035921D01*
X1014901Y1036187D01*
X1014824Y1036445D01*
X1014725Y1036697D01*
X1014604Y1036942D01*
X1014461Y1037181D01*
X1014296Y1037413D01*
X1014109Y1037639D01*
X1013900Y1037858D01*
X1018100D01*
X1017891Y1037639D01*
D02*
G37*
G36*
X997011Y1034350D02*
X997044Y1034079D01*
X997099Y1033813D01*
X997176Y1033555D01*
X997275Y1033303D01*
X997396Y1033058D01*
X997539Y1032819D01*
X997704Y1032587D01*
X997891Y1032361D01*
X998100Y1032142D01*
X993900D01*
X994109Y1032361D01*
X994296Y1032587D01*
X994461Y1032819D01*
X994604Y1033058D01*
X994725Y1033303D01*
X994824Y1033555D01*
X994901Y1033813D01*
X994956Y1034079D01*
X994989Y1034350D01*
X995000Y1034628D01*
X997000D01*
X997011Y1034350D01*
D02*
G37*
G36*
X932975Y1025750D02*
X932673Y1025743D01*
X932381Y1025716D01*
X932100Y1025668D01*
X931830Y1025601D01*
X931571Y1025513D01*
X931323Y1025405D01*
X931086Y1025276D01*
X930860Y1025128D01*
X930644Y1024959D01*
X930440Y1024770D01*
X929025Y1026184D01*
X929214Y1026389D01*
X929383Y1026604D01*
X929532Y1026831D01*
X929660Y1027068D01*
X929768Y1027316D01*
X929856Y1027575D01*
X929924Y1027845D01*
X929971Y1028126D01*
X929999Y1028417D01*
X930006Y1028720D01*
X932975Y1025750D01*
D02*
G37*
G36*
X995130Y1018059D02*
X994302Y1016059D01*
X985782D01*
X983163Y1018678D01*
X983163Y1018678D01*
X983163Y1018678D01*
X962678Y1039163D01*
X961685Y1039826D01*
X960515Y1040059D01*
X960515Y1040059D01*
X933267D01*
X928483Y1044843D01*
X928556Y1045223D01*
X930000Y1046941D01*
X930000Y1046941D01*
X966248D01*
X995130Y1018059D01*
D02*
G37*
G36*
X999330Y1019616D02*
X999547Y1019448D01*
X999774Y1019305D01*
X1000011Y1019186D01*
X1000257Y1019091D01*
X1000512Y1019020D01*
X1000777Y1018973D01*
X1001051Y1018950D01*
X1001334Y1018951D01*
X1001627Y1018977D01*
X999016Y1015687D01*
X998976Y1015993D01*
X998919Y1016288D01*
X998845Y1016571D01*
X998756Y1016842D01*
X998651Y1017101D01*
X998529Y1017348D01*
X998391Y1017584D01*
X998237Y1017808D01*
X998067Y1018020D01*
X997881Y1018220D01*
X999122Y1019807D01*
X999330Y1019616D01*
D02*
G37*
G36*
X1010313Y1013016D02*
X1010007Y1012975D01*
X1009712Y1012918D01*
X1009429Y1012845D01*
X1009158Y1012756D01*
X1008899Y1012651D01*
X1008652Y1012529D01*
X1008416Y1012391D01*
X1008192Y1012237D01*
X1007980Y1012067D01*
X1007780Y1011881D01*
X1006193Y1013122D01*
X1006384Y1013330D01*
X1006552Y1013548D01*
X1006695Y1013774D01*
X1006814Y1014011D01*
X1006909Y1014257D01*
X1006980Y1014512D01*
X1007027Y1014777D01*
X1007050Y1015051D01*
X1007048Y1015334D01*
X1007023Y1015627D01*
X1010313Y1013016D01*
D02*
G37*
G36*
X877884Y997988D02*
X877844Y997972D01*
X877812Y998000D01*
X877884Y997988D01*
D02*
G37*
G36*
X880036Y996000D02*
X879694Y996001D01*
X878229Y996086D01*
X878152Y996108D01*
X878109Y996134D01*
X875013Y996833D01*
X875645Y997055D01*
X877844Y997972D01*
X880036Y996000D01*
D02*
G37*
%LPC*%
G36*
X889193Y1454000D02*
X886806D01*
X884601Y1453087D01*
X883500Y1451985D01*
X882399Y1453087D01*
X880193Y1454000D01*
X877806D01*
X875601Y1453087D01*
X873913Y1451399D01*
X873000Y1449194D01*
Y1446806D01*
X873913Y1444601D01*
X875015Y1443500D01*
X873913Y1442399D01*
X873000Y1440193D01*
Y1437807D01*
X873913Y1435601D01*
X875015Y1434500D01*
X873913Y1433399D01*
X873000Y1431194D01*
Y1428806D01*
X873913Y1426601D01*
X875601Y1424913D01*
X877806Y1424000D01*
X880193D01*
X882399Y1424913D01*
X883500Y1426015D01*
X884601Y1424913D01*
X886806Y1424000D01*
X889193D01*
X891399Y1424913D01*
X893087Y1426601D01*
X894000Y1428806D01*
Y1431194D01*
X893087Y1433399D01*
X891985Y1434500D01*
X893087Y1435601D01*
X894000Y1437807D01*
Y1440193D01*
X893087Y1442399D01*
X891985Y1443500D01*
X893087Y1444601D01*
X894000Y1446806D01*
Y1449194D01*
X893087Y1451399D01*
X891399Y1453087D01*
X889193Y1454000D01*
D02*
G37*
G36*
X1311995Y1419000D02*
X1310005D01*
X1308168Y1418239D01*
X1306761Y1416832D01*
X1306000Y1414995D01*
Y1413005D01*
X1306761Y1411168D01*
X1308168Y1409761D01*
X1310005Y1409000D01*
X1311995D01*
X1313832Y1409761D01*
X1315239Y1411168D01*
X1316000Y1413005D01*
Y1414995D01*
X1315239Y1416832D01*
X1313832Y1418239D01*
X1311995Y1419000D01*
D02*
G37*
G36*
X805500Y1420500D02*
X774500D01*
Y1389500D01*
X805500D01*
Y1420500D01*
D02*
G37*
G36*
X1353348Y1394900D02*
X1350452D01*
X1347654Y1394150D01*
X1345146Y1392702D01*
X1343098Y1390654D01*
X1341650Y1388146D01*
X1340900Y1385348D01*
Y1382452D01*
X1341650Y1379654D01*
X1343098Y1377146D01*
X1345146Y1375098D01*
X1347654Y1373650D01*
X1350452Y1372900D01*
X1353348D01*
X1356146Y1373650D01*
X1358654Y1375098D01*
X1360702Y1377146D01*
X1362150Y1379654D01*
X1362900Y1382452D01*
Y1385348D01*
X1362150Y1388146D01*
X1360702Y1390654D01*
X1358654Y1392702D01*
X1356146Y1394150D01*
X1353348Y1394900D01*
D02*
G37*
G36*
X1327948D02*
X1325052D01*
X1322254Y1394150D01*
X1319746Y1392702D01*
X1317698Y1390654D01*
X1316250Y1388146D01*
X1315500Y1385348D01*
Y1382452D01*
X1316250Y1379654D01*
X1317698Y1377146D01*
X1319746Y1375098D01*
X1322254Y1373650D01*
X1325052Y1372900D01*
X1327948D01*
X1330746Y1373650D01*
X1333254Y1375098D01*
X1335302Y1377146D01*
X1336750Y1379654D01*
X1337500Y1382452D01*
Y1385348D01*
X1336750Y1388146D01*
X1335302Y1390654D01*
X1333254Y1392702D01*
X1330746Y1394150D01*
X1327948Y1394900D01*
D02*
G37*
G36*
X1480480Y1395900D02*
X1477320D01*
X1474268Y1395082D01*
X1471532Y1393502D01*
X1469298Y1391268D01*
X1467718Y1388532D01*
X1466900Y1385480D01*
Y1382320D01*
X1467718Y1379268D01*
X1469298Y1376532D01*
X1471532Y1374298D01*
X1474268Y1372718D01*
X1477320Y1371900D01*
X1480480D01*
X1483532Y1372718D01*
X1486268Y1374298D01*
X1488502Y1376532D01*
X1490082Y1379268D01*
X1490900Y1382320D01*
Y1385480D01*
X1490082Y1388532D01*
X1488502Y1391268D01*
X1486268Y1393502D01*
X1483532Y1395082D01*
X1480480Y1395900D01*
D02*
G37*
G36*
X1253995Y1379000D02*
X1252005D01*
X1250168Y1378239D01*
X1248761Y1376832D01*
X1248000Y1374995D01*
Y1373005D01*
X1248761Y1371168D01*
X1250168Y1369761D01*
X1252005Y1369000D01*
X1253995D01*
X1255832Y1369761D01*
X1257239Y1371168D01*
X1258000Y1373005D01*
Y1374995D01*
X1257239Y1376832D01*
X1255832Y1378239D01*
X1253995Y1379000D01*
D02*
G37*
G36*
X1161995Y1373000D02*
X1160005D01*
X1158168Y1372239D01*
X1156761Y1370832D01*
X1156000Y1368995D01*
Y1367005D01*
X1156761Y1365168D01*
X1158168Y1363761D01*
X1160005Y1363000D01*
X1161995D01*
X1163832Y1363761D01*
X1165239Y1365168D01*
X1166000Y1367005D01*
Y1368995D01*
X1165239Y1370832D01*
X1163832Y1372239D01*
X1161995Y1373000D01*
D02*
G37*
G36*
X1353348Y1369500D02*
X1350452D01*
X1347654Y1368750D01*
X1345146Y1367302D01*
X1343098Y1365254D01*
X1341650Y1362746D01*
X1340900Y1359948D01*
Y1357052D01*
X1341650Y1354254D01*
X1343098Y1351746D01*
X1345146Y1349698D01*
X1347654Y1348250D01*
X1350452Y1347500D01*
X1353348D01*
X1356146Y1348250D01*
X1358654Y1349698D01*
X1360702Y1351746D01*
X1362150Y1354254D01*
X1362900Y1357052D01*
Y1359948D01*
X1362150Y1362746D01*
X1360702Y1365254D01*
X1358654Y1367302D01*
X1356146Y1368750D01*
X1353348Y1369500D01*
D02*
G37*
G36*
X1302548D02*
X1299652D01*
X1296854Y1368750D01*
X1294346Y1367302D01*
X1292298Y1365254D01*
X1290850Y1362746D01*
X1290100Y1359948D01*
Y1357052D01*
X1290850Y1354254D01*
X1292298Y1351746D01*
X1294346Y1349698D01*
X1296854Y1348250D01*
X1299652Y1347500D01*
X1302548D01*
X1305346Y1348250D01*
X1307854Y1349698D01*
X1309902Y1351746D01*
X1311350Y1354254D01*
X1312100Y1357052D01*
Y1359948D01*
X1311350Y1362746D01*
X1309902Y1365254D01*
X1307854Y1367302D01*
X1305346Y1368750D01*
X1302548Y1369500D01*
D02*
G37*
G36*
X976194Y1346001D02*
X973807D01*
X971602Y1345087D01*
X970001Y1343486D01*
X968399Y1345087D01*
X966194Y1346001D01*
X963807D01*
X961602Y1345087D01*
X960001Y1343486D01*
X958399Y1345087D01*
X956194Y1346001D01*
X953807D01*
X951602Y1345087D01*
X949914Y1343399D01*
X949000Y1341194D01*
Y1338807D01*
X949914Y1336602D01*
X951602Y1334914D01*
X953257Y1334228D01*
X953821Y1333946D01*
X954335Y1332001D01*
X954000Y1331194D01*
Y1328807D01*
X954914Y1326602D01*
X956602Y1324914D01*
X958807Y1324001D01*
X961194D01*
X963399Y1324914D01*
X965001Y1326516D01*
X966602Y1324914D01*
X968807Y1324001D01*
X971194D01*
X973399Y1324914D01*
X975001Y1326516D01*
X976602Y1324914D01*
X978807Y1324001D01*
X981194D01*
X983399Y1324914D01*
X985087Y1326602D01*
X986001Y1328807D01*
Y1331194D01*
X985087Y1333399D01*
X983399Y1335087D01*
X981744Y1335773D01*
X981180Y1336055D01*
X980666Y1338001D01*
X981001Y1338807D01*
Y1341194D01*
X980087Y1343399D01*
X978399Y1345087D01*
X976194Y1346001D01*
D02*
G37*
G36*
X921194Y1336001D02*
X918807D01*
X916602Y1335087D01*
X915001Y1333486D01*
X913399Y1335087D01*
X911194Y1336001D01*
X908807D01*
X906602Y1335087D01*
X904914Y1333399D01*
X904000Y1331194D01*
Y1328807D01*
X904914Y1326602D01*
X906602Y1324914D01*
X908807Y1324001D01*
X911194D01*
X913399Y1324914D01*
X915001Y1326516D01*
X916602Y1324914D01*
X918807Y1324001D01*
X921194D01*
X923399Y1324914D01*
X925087Y1326602D01*
X926001Y1328807D01*
Y1331194D01*
X925087Y1333399D01*
X923399Y1335087D01*
X921194Y1336001D01*
D02*
G37*
G36*
X1195945Y1335950D02*
X1193955D01*
X1192118Y1335189D01*
X1190711Y1333782D01*
X1189950Y1331944D01*
Y1329955D01*
X1190711Y1328118D01*
X1192118Y1326711D01*
X1193955Y1325950D01*
X1195945D01*
X1197782Y1326711D01*
X1199189Y1328118D01*
X1199950Y1329955D01*
Y1331944D01*
X1199189Y1333782D01*
X1197782Y1335189D01*
X1195945Y1335950D01*
D02*
G37*
G36*
X1327948Y1344100D02*
X1325052D01*
X1322254Y1343350D01*
X1319746Y1341902D01*
X1317698Y1339854D01*
X1316250Y1337346D01*
X1315500Y1334548D01*
Y1331652D01*
X1316250Y1328854D01*
X1317698Y1326346D01*
X1319746Y1324298D01*
X1322254Y1322850D01*
X1325052Y1322100D01*
X1327948D01*
X1330746Y1322850D01*
X1333254Y1324298D01*
X1335302Y1326346D01*
X1336750Y1328854D01*
X1337500Y1331652D01*
Y1334548D01*
X1336750Y1337346D01*
X1335302Y1339854D01*
X1333254Y1341902D01*
X1330746Y1343350D01*
X1327948Y1344100D01*
D02*
G37*
G36*
X1302548D02*
X1299652D01*
X1296854Y1343350D01*
X1294346Y1341902D01*
X1292298Y1339854D01*
X1290850Y1337346D01*
X1290100Y1334548D01*
Y1331652D01*
X1290850Y1328854D01*
X1292298Y1326346D01*
X1294346Y1324298D01*
X1296854Y1322850D01*
X1299652Y1322100D01*
X1302548D01*
X1305346Y1322850D01*
X1307854Y1324298D01*
X1309902Y1326346D01*
X1311350Y1328854D01*
X1312100Y1331652D01*
Y1334548D01*
X1311350Y1337346D01*
X1309902Y1339854D01*
X1307854Y1341902D01*
X1305346Y1343350D01*
X1302548Y1344100D01*
D02*
G37*
G36*
X1253995Y1304000D02*
X1252005D01*
X1250168Y1303239D01*
X1248761Y1301832D01*
X1248000Y1299995D01*
Y1298005D01*
X1248761Y1296168D01*
X1250168Y1294761D01*
X1252005Y1294000D01*
X1253995D01*
X1255832Y1294761D01*
X1257239Y1296168D01*
X1258000Y1298005D01*
Y1299995D01*
X1257239Y1301832D01*
X1255832Y1303239D01*
X1253995Y1304000D01*
D02*
G37*
G36*
X795000Y1310000D02*
X775000D01*
Y1293570D01*
X774936Y1293250D01*
Y1293064D01*
X774654D01*
X773386Y1292811D01*
X772311Y1292093D01*
X766407Y1286189D01*
X765689Y1285114D01*
X765436Y1283846D01*
Y1268269D01*
X765689Y1267001D01*
X766407Y1265926D01*
X776926Y1255407D01*
X778001Y1254689D01*
X779269Y1254436D01*
X880236D01*
X880761Y1253168D01*
X882168Y1251761D01*
X884005Y1251000D01*
X885995D01*
X887832Y1251761D01*
X889239Y1253168D01*
X890000Y1255005D01*
Y1256995D01*
X889239Y1258832D01*
X888071Y1260000D01*
X889239Y1261168D01*
X890000Y1263005D01*
Y1264995D01*
X889239Y1266832D01*
X887832Y1268239D01*
X885995Y1269000D01*
X884005D01*
X882168Y1268239D01*
X880761Y1266832D01*
X880236Y1265564D01*
X792506D01*
X791706Y1267564D01*
X793002Y1268860D01*
X794318Y1271140D01*
X795000Y1273683D01*
Y1276317D01*
X794318Y1278860D01*
X793002Y1281140D01*
X791140Y1283002D01*
X788860Y1284319D01*
X786317Y1285000D01*
X785348D01*
X784760Y1285880D01*
X783047Y1287593D01*
X782438Y1288000D01*
X782954Y1290000D01*
X795000D01*
Y1310000D01*
D02*
G37*
G36*
X834995Y1247000D02*
X833005D01*
X831168Y1246239D01*
X829761Y1244832D01*
X829000Y1242995D01*
Y1241005D01*
X829761Y1239168D01*
X831168Y1237761D01*
X833005Y1237000D01*
X834995D01*
X836832Y1237761D01*
X838239Y1239168D01*
X839000Y1241005D01*
Y1242995D01*
X838239Y1244832D01*
X836832Y1246239D01*
X834995Y1247000D01*
D02*
G37*
G36*
X781448Y1161800D02*
X781000D01*
Y1151800D01*
X791000D01*
Y1152248D01*
X790250Y1155046D01*
X788802Y1157554D01*
X786754Y1159602D01*
X784246Y1161050D01*
X781448Y1161800D01*
D02*
G37*
G36*
X791000Y1149800D02*
X781000D01*
Y1139800D01*
X781448D01*
X784246Y1140550D01*
X786754Y1141998D01*
X788802Y1144046D01*
X790250Y1146554D01*
X791000Y1149352D01*
Y1149800D01*
D02*
G37*
G36*
X1020995Y960000D02*
X1019005D01*
X1017168Y959239D01*
X1015761Y957832D01*
X1015000Y955995D01*
Y954005D01*
X1015761Y952168D01*
X1017168Y950761D01*
X1019005Y950000D01*
X1020995D01*
X1022832Y950761D01*
X1024239Y952168D01*
X1025000Y954005D01*
Y955995D01*
X1024239Y957832D01*
X1022832Y959239D01*
X1020995Y960000D01*
D02*
G37*
G36*
X886995Y1065000D02*
X885005D01*
X883168Y1064239D01*
X881761Y1062832D01*
X881000Y1060995D01*
Y1060227D01*
X880990Y1060188D01*
X880987Y1060180D01*
X880984Y1060165D01*
X880971Y1060115D01*
X880945Y1060066D01*
X880890Y1059979D01*
X880822Y1059884D01*
X880736Y1059782D01*
X809977Y989023D01*
X809203Y987866D01*
X808931Y986500D01*
Y945333D01*
X808924Y945267D01*
X808902Y945128D01*
X808879Y945028D01*
X808863Y944975D01*
X808836Y944930D01*
X808828Y944918D01*
X808825Y944910D01*
X808804Y944875D01*
X808261Y944332D01*
X807500Y942495D01*
Y940505D01*
X808261Y938668D01*
X809668Y937261D01*
X811505Y936500D01*
X813495D01*
X815332Y937261D01*
X816739Y938668D01*
X817500Y940505D01*
Y942495D01*
X816739Y944332D01*
X816196Y944875D01*
X816175Y944910D01*
X816172Y944918D01*
X816164Y944930D01*
X816137Y944975D01*
X816121Y945028D01*
X816098Y945128D01*
X816080Y945243D01*
X816069Y945377D01*
Y985022D01*
X885813Y1054766D01*
X885864Y1054808D01*
X885979Y1054890D01*
X886066Y1054945D01*
X886115Y1054971D01*
X886165Y1054984D01*
X886180Y1054987D01*
X886188Y1054990D01*
X886227Y1055000D01*
X886995D01*
X888832Y1055761D01*
X890239Y1057168D01*
X891000Y1059005D01*
Y1060995D01*
X890239Y1062832D01*
X888832Y1064239D01*
X886995Y1065000D01*
D02*
G37*
G36*
X1087095Y945000D02*
X1085106D01*
X1083268Y944239D01*
X1081862Y942832D01*
X1081101Y940995D01*
Y939005D01*
X1081862Y937168D01*
X1083268Y935761D01*
X1085106Y935000D01*
X1087095D01*
X1088933Y935761D01*
X1090339Y937168D01*
X1091101Y939005D01*
Y940995D01*
X1090339Y942832D01*
X1088933Y944239D01*
X1087095Y945000D01*
D02*
G37*
G36*
X1136317Y795000D02*
X1136000D01*
Y786000D01*
X1145000D01*
Y786317D01*
X1144318Y788860D01*
X1143002Y791140D01*
X1141140Y793002D01*
X1138860Y794318D01*
X1136317Y795000D01*
D02*
G37*
G36*
X1006317D02*
X1006000D01*
Y786000D01*
X1015000D01*
Y786317D01*
X1014318Y788860D01*
X1013002Y791140D01*
X1011140Y793002D01*
X1008860Y794318D01*
X1006317Y795000D01*
D02*
G37*
G36*
X876317Y794750D02*
X876000D01*
Y785750D01*
X885000D01*
Y786067D01*
X884318Y788610D01*
X883002Y790890D01*
X881140Y792752D01*
X878860Y794069D01*
X876317Y794750D01*
D02*
G37*
G36*
X1145000Y784000D02*
X1136000D01*
Y775000D01*
X1136317D01*
X1138860Y775682D01*
X1141140Y776998D01*
X1143002Y778860D01*
X1144318Y781140D01*
X1145000Y783683D01*
Y784000D01*
D02*
G37*
G36*
X1127000Y802000D02*
X1093000D01*
Y768000D01*
X1127000D01*
Y776245D01*
X1127952Y776639D01*
X1129000Y776917D01*
X1131140Y775682D01*
X1133683Y775000D01*
X1134000D01*
Y785000D01*
Y795000D01*
X1133683D01*
X1131140Y794318D01*
X1129000Y793083D01*
X1127952Y793361D01*
X1127000Y793755D01*
Y802000D01*
D02*
G37*
G36*
X1015000Y784000D02*
X1006000D01*
Y775000D01*
X1006317D01*
X1008860Y775682D01*
X1011140Y776998D01*
X1013002Y778860D01*
X1014318Y781140D01*
X1015000Y783683D01*
Y784000D01*
D02*
G37*
G36*
X997000Y802000D02*
X963000D01*
Y768000D01*
X997000D01*
Y776245D01*
X997952Y776639D01*
X999000Y776917D01*
X1001140Y775682D01*
X1003683Y775000D01*
X1004000D01*
Y785000D01*
X1005000D01*
D01*
X1004000D01*
Y795000D01*
X1003683D01*
X1001140Y794318D01*
X999000Y793083D01*
X997952Y793361D01*
X997000Y793755D01*
Y802000D01*
D02*
G37*
G36*
X885000Y783750D02*
X876000D01*
Y774750D01*
X876317D01*
X878860Y775432D01*
X881140Y776748D01*
X883002Y778610D01*
X884318Y780890D01*
X885000Y783434D01*
Y783750D01*
D02*
G37*
G36*
X867000Y801750D02*
X833000D01*
Y767750D01*
X867000D01*
Y775995D01*
X867952Y776389D01*
X869000Y776667D01*
X871140Y775432D01*
X873683Y774750D01*
X874000D01*
Y784750D01*
Y794750D01*
X873683D01*
X871140Y794069D01*
X869000Y792833D01*
X867952Y793111D01*
X867000Y793505D01*
Y801750D01*
D02*
G37*
%LPD*%
G36*
X885970Y1057000D02*
X885799Y1056990D01*
X885620Y1056956D01*
X885435Y1056898D01*
X885244Y1056817D01*
X885045Y1056712D01*
X884840Y1056583D01*
X884628Y1056430D01*
X884409Y1056254D01*
X883951Y1055829D01*
X881830Y1057951D01*
X882053Y1058183D01*
X882430Y1058628D01*
X882583Y1058840D01*
X882712Y1059045D01*
X882817Y1059244D01*
X882898Y1059435D01*
X882956Y1059620D01*
X882990Y1059799D01*
X883000Y1059970D01*
X885970Y1057000D01*
D02*
G37*
G36*
X814006Y945575D02*
X814054Y944995D01*
X814096Y944737D01*
X814150Y944500D01*
X814216Y944286D01*
X814294Y944092D01*
X814384Y943921D01*
X814486Y943771D01*
X814600Y943642D01*
X810400D01*
X810514Y943771D01*
X810616Y943921D01*
X810706Y944092D01*
X810784Y944286D01*
X810850Y944500D01*
X810904Y944737D01*
X810946Y944995D01*
X810976Y945274D01*
X811000Y945898D01*
X814000D01*
X814006Y945575D01*
D02*
G37*
D10*
X1173130Y1423000D02*
X1195000D01*
X1090000Y1361000D02*
X1111130D01*
X1173130Y1423000D01*
X1080000Y1043515D02*
Y1055000D01*
X1076485Y1040000D02*
X1080000Y1043515D01*
X1071515Y1040000D02*
X1076485D01*
X938000Y1209000D02*
X1090000Y1361000D01*
X938000Y1173515D02*
Y1209000D01*
Y1173515D02*
X1071515Y1040000D01*
X928000Y1228000D02*
X947000Y1247000D01*
X928500Y1153500D02*
Y1185015D01*
X928000Y1185515D02*
X928500Y1185015D01*
X920000Y1145000D02*
X928500Y1153500D01*
X928000Y1185515D02*
Y1228000D01*
X920000Y1144000D02*
Y1145000D01*
X947000Y1247000D02*
Y1292000D01*
X937250Y1301750D02*
X947000Y1292000D01*
X937250Y1301750D02*
Y1348750D01*
X1172500Y1411000D02*
X1195000D01*
X1113750Y1352250D02*
X1172500Y1411000D01*
X1089681Y1352250D02*
X1113750D01*
X1026500Y1099000D02*
X1065000D01*
X949458Y1212027D02*
X1089681Y1352250D01*
X949458Y1211541D02*
Y1212027D01*
X948000Y1210082D02*
X949458Y1211541D01*
X948000Y1177500D02*
Y1210082D01*
Y1177500D02*
X1026500Y1099000D01*
X953000Y1296918D02*
Y1298000D01*
Y1296918D02*
X955000Y1294918D01*
Y1245000D02*
Y1294918D01*
X932000Y1222000D02*
X955000Y1245000D01*
X932000Y1187172D02*
X932500Y1186672D01*
X932000Y1187172D02*
Y1222000D01*
X932500Y1151843D02*
Y1186672D01*
X930765Y1150108D02*
X932500Y1151843D01*
X930765Y1145765D02*
Y1150108D01*
X930000Y1145000D02*
X930765Y1145765D01*
X1091000Y1344000D02*
X1140000D01*
X1071000Y1050082D02*
X1074000Y1047082D01*
Y1046000D02*
Y1047082D01*
X1071000Y1050082D02*
Y1102000D01*
X1066000Y1107000D02*
X1071000Y1102000D01*
X960000Y1213000D02*
X1091000Y1344000D01*
X960000Y1207000D02*
Y1213000D01*
Y1178000D02*
X1031000Y1107000D01*
X1066000D01*
X960000Y1178000D02*
Y1207000D01*
X1017000D02*
X1141000Y1331000D01*
X1083000Y1066000D02*
Y1101485D01*
X1067485Y1117000D02*
X1083000Y1101485D01*
X1037515Y1117000D02*
X1067485D01*
X975000Y1207000D02*
X1017000D01*
X975000Y1179515D02*
X1037515Y1117000D01*
X975000Y1179515D02*
Y1207000D01*
X910000Y1156500D02*
X913000Y1159500D01*
Y1178515D01*
X912000Y1179515D02*
Y1180250D01*
Y1179515D02*
X913000Y1178515D01*
X907000Y1185250D02*
X912000Y1180250D01*
X907000Y1185250D02*
Y1236000D01*
X867101Y1172000D02*
X907000D01*
X837501Y1201600D02*
X867101Y1172000D01*
X924000Y1229657D02*
X925000Y1230657D01*
X924000Y1179515D02*
Y1229657D01*
X923265Y1178780D02*
X924000Y1179515D01*
X923265Y1173265D02*
Y1178780D01*
X922500Y1172500D02*
X923265Y1173265D01*
X918000Y1182000D02*
Y1235918D01*
X923000Y1240918D01*
X929000Y1290000D02*
X940000Y1279000D01*
X928000Y1290000D02*
X929000D01*
X940000Y1250000D02*
Y1279000D01*
X925000Y1235000D02*
X940000Y1250000D01*
X1001515Y1016000D02*
X1002000D01*
X967515Y1050000D02*
X1001515Y1016000D01*
X930000Y1050000D02*
X967515D01*
X996515Y1013000D02*
X999515Y1010000D01*
X1004485D01*
X984515Y1013000D02*
X996515D01*
X981000Y1016515D02*
X984515Y1013000D01*
X996000Y1030000D02*
Y1072000D01*
X802918Y1240000D02*
X804918Y1238000D01*
X813000Y1173000D02*
X828000D01*
X884000Y1117000D02*
X951000D01*
X804918Y1238000D02*
X806000D01*
X828000Y1173000D02*
X884000Y1117000D01*
X764000Y1141400D02*
Y1205000D01*
X773000Y1214000D02*
X806000D01*
X951000Y1117000D02*
X996000Y1072000D01*
X757000Y1123000D02*
Y1224000D01*
X854600Y1125400D02*
X930000Y1050000D01*
X757000Y1123000D02*
X780000Y1100000D01*
X789672Y1103820D02*
X865180D01*
X764000Y1205000D02*
X773000Y1214000D01*
X773000Y1240000D02*
X802918D01*
X932000Y1037000D02*
X960515D01*
X865180Y1103820D02*
X932000Y1037000D01*
X757000Y1224000D02*
X773000Y1240000D01*
X806000Y1214000D02*
X818000Y1226000D01*
X764000Y1141400D02*
X780000Y1125400D01*
X792950Y1189150D02*
X793068D01*
X797918Y1194000D01*
X831000D01*
X780000Y1176200D02*
X792950Y1189150D01*
X831000Y1194000D02*
X891000Y1134000D01*
X780000Y1201600D02*
X837501D01*
X780000Y1125400D02*
X854600D01*
X907000Y1236000D02*
X933500Y1262500D01*
X910000Y1146000D02*
Y1156500D01*
X923000Y1240918D02*
Y1243000D01*
X925000Y1230657D02*
Y1235000D01*
X901256Y997000D02*
X933005Y1028750D01*
X876000Y997000D02*
X901256D01*
X1016000Y1065000D02*
X1049000Y1032000D01*
X1085000D02*
X1097000Y1044000D01*
X1049000Y1032000D02*
X1085000D01*
X1013750Y1177750D02*
X1027250D01*
X1097000Y1044000D02*
Y1108000D01*
X1027250Y1177750D02*
X1097000Y1108000D01*
X840500Y1205418D02*
Y1206500D01*
X837501Y1202418D02*
X840500Y1205418D01*
X837501Y1201600D02*
Y1202418D01*
X1111000Y1040000D02*
Y1173000D01*
X1041000Y1025000D02*
X1096000D01*
X1111000Y1040000D01*
X1016000Y1050000D02*
X1041000Y1025000D01*
X981000Y1016515D02*
Y1016515D01*
X960515Y1037000D02*
X981000Y1016515D01*
X1010000Y1015515D02*
Y1016000D01*
X1004485Y1010000D02*
X1010000Y1015515D01*
X789104Y1103253D02*
X789672Y1103820D01*
X780000Y1100000D02*
X783253Y1103253D01*
X789104D01*
X1180000Y1066000D02*
Y1149000D01*
X1213250Y1182250D01*
X1131000Y1017000D02*
X1180000Y1066000D01*
X1016000Y1031000D02*
Y1040000D01*
Y1031000D02*
X1030000Y1017000D01*
X1131000D01*
D12*
X774654Y1289750D02*
X776786D01*
X768750Y1268269D02*
X779269Y1257750D01*
X884053Y1256000D02*
X885000D01*
X882303Y1257750D02*
X884053Y1256000D01*
X779269Y1257750D02*
X882303D01*
X768750Y1268269D02*
Y1283846D01*
X774654Y1289750D01*
X778250Y1293250D02*
X785000Y1300000D01*
X776786Y1289750D02*
X778250Y1291214D01*
Y1293250D01*
X773250Y1270133D02*
Y1281982D01*
X780704Y1285250D02*
X782417Y1283537D01*
X773250Y1270133D02*
X781133Y1262250D01*
X882303D02*
X884053Y1264000D01*
X885000D01*
X773250Y1281982D02*
X776518Y1285250D01*
X782417Y1277583D02*
X785000Y1275000D01*
X782417Y1277583D02*
Y1283537D01*
X781133Y1262250D02*
X882303D01*
X776518Y1285250D02*
X780704D01*
X1154750Y1242036D02*
X1156215Y1243500D01*
X1158250D01*
X1154750Y1212246D02*
Y1242036D01*
X994000Y1169000D02*
Y1169947D01*
X995750Y1171697D01*
Y1177614D01*
X1140000Y1250250D02*
X1142583Y1247667D01*
X1148537D01*
X1150250Y1245954D01*
Y1214110D02*
Y1245954D01*
X1140000Y1213000D02*
X1140670Y1213670D01*
X1143214Y1214110D02*
X1150250D01*
X1142774Y1213670D02*
X1143214Y1214110D01*
X1140670Y1213670D02*
X1142774D01*
X1150250Y1200214D02*
Y1214110D01*
X1138536Y1188500D02*
X1150250Y1200214D01*
X1006636Y1188500D02*
X1138536D01*
X995750Y1177614D02*
X1006636Y1188500D01*
X1000250Y1171697D02*
Y1175750D01*
Y1171697D02*
X1002000Y1169947D01*
Y1169000D02*
Y1169947D01*
X1158250Y1243500D02*
X1165000Y1250250D01*
X1154750Y1212246D02*
X1156504Y1214000D01*
X1164000D01*
X1140399Y1184000D02*
X1154750Y1198351D01*
Y1212246D01*
X1008500Y1184000D02*
X1140399D01*
X1000250Y1175750D02*
X1008500Y1184000D01*
D72*
X1135000Y785000D02*
D03*
X1005000D02*
D03*
X875000Y784750D02*
D03*
X1140000Y1250250D02*
D03*
X785000Y1275000D02*
D03*
D76*
X1165000Y1250250D02*
D03*
D77*
X785000Y1300000D02*
D03*
D89*
X812500Y986500D02*
X886000Y1060000D01*
X812500Y941500D02*
Y986500D01*
D91*
X780000Y1150800D02*
D03*
Y1176200D02*
D03*
Y1201600D02*
D03*
Y1125400D02*
D03*
Y1100000D02*
D03*
D92*
X790000Y1355000D02*
D03*
D96*
X933000Y1357000D02*
D03*
X884000Y974000D02*
D03*
X1289250Y1494500D02*
D03*
X1433000Y1422000D02*
D03*
X1203000Y1439000D02*
D03*
X1155000Y1429000D02*
D03*
X1135750Y1417250D02*
D03*
X1179000Y1398000D02*
D03*
X1118250Y1317750D02*
D03*
X1174000Y1297000D02*
D03*
X1040000Y1333000D02*
D03*
X1034000Y1213000D02*
D03*
X1263000Y1161000D02*
D03*
X1200519Y1096841D02*
D03*
X1190500Y1168500D02*
D03*
X1258000Y997000D02*
D03*
X1193000Y1000000D02*
D03*
X1167000Y1086000D02*
D03*
X1128000Y1195000D02*
D03*
X1133000Y1161000D02*
D03*
X1174908Y1008908D02*
D03*
X1128000Y997000D02*
D03*
X1201000Y926000D02*
D03*
X1193000Y985000D02*
D03*
X1192000Y970000D02*
D03*
X1258000Y865000D02*
D03*
Y845000D02*
D03*
X1167000Y914000D02*
D03*
X1128000Y845000D02*
D03*
Y865000D02*
D03*
X1077000Y1099000D02*
D03*
X1056250Y1137000D02*
D03*
X1042000Y1086000D02*
D03*
X1064000Y1007000D02*
D03*
X1071000Y926000D02*
D03*
X1066000Y954000D02*
D03*
X1037000Y916000D02*
D03*
X916750Y1485000D02*
D03*
X927750Y1372500D02*
D03*
X987000Y1230000D02*
D03*
X1018000Y1156000D02*
D03*
X940519Y1096841D02*
D03*
X885000Y1388000D02*
D03*
X911000Y1263000D02*
D03*
X869750Y1243750D02*
D03*
X862000Y1293000D02*
D03*
X860000Y1393000D02*
D03*
X841250Y1403750D02*
D03*
X830025Y1319975D02*
D03*
X818000Y1216000D02*
D03*
X888000Y1184000D02*
D03*
X873000Y1161000D02*
D03*
X907000Y1087000D02*
D03*
X860000Y1055000D02*
D03*
X810519Y1096841D02*
D03*
X835000Y1033061D02*
D03*
X767000Y1075000D02*
D03*
X1010000Y985000D02*
D03*
X987000Y1019000D02*
D03*
X911750Y1029750D02*
D03*
X933000Y976000D02*
D03*
X1019750Y919000D02*
D03*
X998000Y865000D02*
D03*
Y845000D02*
D03*
X985000Y938000D02*
D03*
X972000Y939000D02*
D03*
X956000Y938000D02*
D03*
X941000Y926000D02*
D03*
X868000Y997000D02*
D03*
X803000Y985000D02*
D03*
X769000Y1031000D02*
D03*
X803000Y1000000D02*
D03*
X802000Y970000D02*
D03*
X898000Y939000D02*
D03*
X868000Y865000D02*
D03*
Y845000D02*
D03*
X830000Y948000D02*
D03*
X767000Y940000D02*
D03*
X810950Y925950D02*
D03*
X767000Y925000D02*
D03*
X789500Y868500D02*
D03*
X1195000Y1423000D02*
D03*
X1080000Y1055000D02*
D03*
X938000Y1209000D02*
D03*
X937250Y1348800D02*
D03*
X920000Y1144000D02*
D03*
X1195000Y1411000D02*
D03*
X1065000Y1099000D02*
D03*
X948000Y1209000D02*
D03*
X885000Y1256000D02*
D03*
X953000Y1298000D02*
D03*
X930000Y1145000D02*
D03*
X1140000Y1344000D02*
D03*
X1074000Y1046000D02*
D03*
X960000Y1207000D02*
D03*
X1141000Y1331000D02*
D03*
X1083000Y1066000D02*
D03*
X975000Y1207000D02*
D03*
X928000Y1290000D02*
D03*
X799000Y1194000D02*
D03*
X818000Y1226000D02*
D03*
X1002000Y1016000D02*
D03*
X918000Y1182000D02*
D03*
X910000Y1146000D02*
D03*
X907000Y1172000D02*
D03*
X934000Y1263000D02*
D03*
X923000Y1242000D02*
D03*
X885000Y1264000D02*
D03*
X996000Y1030000D02*
D03*
X813000Y1173000D02*
D03*
X886000Y1060000D02*
D03*
X812500Y941500D02*
D03*
X994000Y1169000D02*
D03*
X1140000Y1213000D02*
D03*
X1016000Y1065000D02*
D03*
X1013750Y1177750D02*
D03*
X1002000Y1169000D02*
D03*
X1164000Y1214000D02*
D03*
X840500Y1206500D02*
D03*
X922500Y1172500D02*
D03*
X891000Y1134000D02*
D03*
X1016000Y1050000D02*
D03*
X1111000Y1173000D02*
D03*
X806000Y1238000D02*
D03*
X1010000Y1016000D02*
D03*
X1016000Y1040000D02*
D03*
X1213250Y1182250D02*
D03*
X933005Y1028750D02*
D03*
X876000Y994000D02*
D03*
D97*
X1419000Y1481000D02*
D03*
X1410000Y1472000D02*
D03*
Y1481000D02*
D03*
X1419000Y1472000D02*
D03*
X1410000Y1463000D02*
D03*
X1401000Y1472000D02*
D03*
Y1481000D02*
D03*
Y1463000D02*
D03*
X1419000D02*
D03*
Y1454000D02*
D03*
X1410000D02*
D03*
X1419000Y1445000D02*
D03*
X1410000D02*
D03*
X1401000Y1454000D02*
D03*
Y1445000D02*
D03*
X1218500Y1475000D02*
D03*
X1234000D02*
D03*
X1241000Y1283000D02*
D03*
X1232000Y1274000D02*
D03*
Y1283000D02*
D03*
X1270000Y1243250D02*
D03*
X1241000Y1274000D02*
D03*
X1232000Y1265000D02*
D03*
X1241000D02*
D03*
X1223000Y1283000D02*
D03*
Y1265000D02*
D03*
Y1274000D02*
D03*
X1214000Y1283000D02*
D03*
Y1265000D02*
D03*
Y1274000D02*
D03*
X1187500Y1475000D02*
D03*
X1203000D02*
D03*
X1144750Y1366750D02*
D03*
X1089000Y1453000D02*
D03*
X1120000Y1395250D02*
D03*
X1050333Y1453000D02*
D03*
X1031000D02*
D03*
X1069667D02*
D03*
X1103750Y1368000D02*
D03*
X1205000Y1283000D02*
D03*
Y1265000D02*
D03*
Y1274000D02*
D03*
X1085000Y1318000D02*
D03*
X1102950Y1283050D02*
D03*
X1078000Y1200000D02*
D03*
X1075500Y1169500D02*
D03*
X1059500Y1158000D02*
D03*
X1010250Y1394250D02*
D03*
X1027250Y1366250D02*
D03*
X1009750Y1339500D02*
D03*
X994500Y1366250D02*
D03*
X1009000Y1291000D02*
D03*
X928000Y1450000D02*
D03*
X939000D02*
D03*
X916000D02*
D03*
X962000Y1291000D02*
D03*
X978000D02*
D03*
X994000D02*
D03*
X864000Y1217000D02*
D03*
X860000Y1349000D02*
D03*
X846000D02*
D03*
X831000D02*
D03*
M02*
